<svg width="300" height="64" viewBox="0 0 300 64" fill="none" xmlns="http://www.w3.org/2000/svg">
<g clip-path="url(#clip0_19_8166)">
<path fill-rule="evenodd" clip-rule="evenodd" d="M82.6993 31.7009C75.2364 31.7009 70.3055 35.3416 70.3055 41.0691C70.3055 52.0802 86.7417 48.7946 86.7417 54.3001C86.7417 56.0761 85.187 57.0084 82.6993 57.0084C79.4565 57.0084 74.6589 55.1438 71.4605 52.3465L68.3954 58.4292C72.0824 61.4484 77.4131 63.402 82.6104 63.402C89.5404 63.402 95.0487 60.1163 95.0487 53.9005C95.0487 42.6675 78.6125 45.731 78.6125 40.3587C78.6125 38.8491 79.9896 38.0945 82.033 38.0945C84.565 38.0945 88.6964 39.4264 91.9836 41.3356L94.9599 35.1641C91.7615 33.0774 87.186 31.7009 82.6993 31.7009ZM128.054 63.1355V32.0561H120.147V44.8431H107.265V32.0561H99.3577V63.1355H107.265V51.059H120.147V63.1355H128.054ZM142.181 63.1355V32.0561H134.273V63.1355H142.181ZM148.4 32.0561H161.949C169.901 32.0561 174.476 35.9632 174.476 42.8895C174.476 50.171 169.901 54.389 161.949 54.389H156.306V63.1355H148.4V32.0561ZM156.306 38.272V48.1731H161.548C165.014 48.1731 167.013 46.4414 167.013 43.156C167.013 39.9147 165.014 38.272 161.548 38.272H156.306ZM207.303 63.1355V32.0561H199.93V51.2366L185.581 32.0561H178.607V63.1355H186.025V43.9995L200.329 63.1355H207.303ZM237.866 38.272V32.0561H213.523V63.1355H238.355V56.9196H221.429V50.6594H236.267V44.4435H221.429V38.272H237.866ZM261.499 46.8854L271.76 32.0561H262.475L256.478 41.1135L250.481 32.0561H241.287L251.681 47.2406L240.575 63.1355H249.772L256.478 53.2346L263.187 63.1355H272.649L261.499 46.8854ZM299.835 38.4052V32.0118H273.271V38.4052H282.555V63.1355H290.462V38.4052H299.835Z" fill="white"/>
<path fill-rule="evenodd" clip-rule="evenodd" d="M29.6357 28.3537L41.7096 7.83459L37.3191 0L20.4889 28.3537H29.6357Z" fill="#75C422"/>
<path fill-rule="evenodd" clip-rule="evenodd" d="M58.5396 47.7537C58.5396 39.1729 51.2221 31.7114 42.4412 31.7114H18.6595L13.9031 39.5461H42.4412C46.8317 39.5461 50.4903 43.2769 50.4903 47.3807C50.4903 51.8575 46.8317 55.2152 42.4412 55.2152H4.39047L0 63.0498H44.2706C52.3197 62.6768 58.5396 55.9615 58.5396 47.7537Z" fill="white"/>
</g>
<defs>
<clipPath id="clip0_19_8166">
<rect width="300" height="63.4021" fill="white"/>
</clipPath>
</defs>
</svg>
