<svg width="126" height="56" fill="none" xmlns="http://www.w3.org/2000/svg"><path fill-rule="evenodd" clip-rule="evenodd" d="M89.93 2.182A5.455 5.455 0 0085.566 0H8a8 8 0 00-8 8v40a8 8 0 008 8h77.566a5.454 5.454 0 004.364-2.182c2.182-2.909 6.545-2.909 8.727 0A5.454 5.454 0 00103.021 56H117a8 8 0 008-8V8a8 8 0 00-8-8h-13.979a5.454 5.454 0 00-4.364 2.182c-2.181 2.909-6.545 2.909-8.727 0z" fill="#4369C8"/><path d="M28.746 32.766c-.905 0-1.67-.145-2.296-.434-.616-.29-1.087-.686-1.414-1.19a3.164 3.164 0 01-.49-1.736h1.946c0 .27.075.537.224.798.15.252.387.457.714.616.336.159.775.238 1.316.238.485 0 .891-.07 1.218-.21.327-.14.57-.322.728-.546a1.36 1.36 0 00.238-.784c0-.364-.154-.653-.462-.868-.308-.224-.784-.364-1.428-.42l-.896-.07c-.98-.084-1.764-.387-2.352-.91-.579-.532-.868-1.232-.868-2.1 0-.653.154-1.213.462-1.68a2.96 2.96 0 011.288-1.092c.56-.261 1.213-.392 1.96-.392.775 0 1.442.135 2.002.406.56.27.994.653 1.302 1.148.308.485.462 1.06.462 1.722h-1.946c0-.28-.07-.537-.21-.77a1.38 1.38 0 00-.602-.574c-.261-.15-.597-.224-1.008-.224-.392 0-.719.065-.98.196a1.365 1.365 0 00-.784 1.26c0 .317.117.597.35.84.233.233.602.369 1.106.406l.896.084c.728.056 1.367.21 1.918.462.55.252.975.593 1.274 1.022.308.43.462.947.462 1.554 0 .644-.168 1.213-.504 1.708-.336.485-.817.863-1.442 1.134-.616.27-1.344.406-2.184.406zm7.69-.266v-8.75h1.988v8.75h-1.988zm-2.954-8.47v-1.75h7.896v1.75h-7.896zm9.483 8.47V22.28h1.946V32.5h-1.946zm1.666 0v-1.68h4.634v1.68h-4.634zm0-4.354v-1.68h4.27v1.68h-4.27zm0-4.186v-1.68h4.522v1.68h-4.522zm8.382 5.404v-1.722H55c.401 0 .737-.08 1.008-.238.28-.159.49-.378.63-.658.15-.28.224-.602.224-.966a2.02 2.02 0 00-.224-.966c-.14-.28-.35-.495-.63-.644-.27-.159-.607-.238-1.008-.238h-1.988V22.21h1.82c.859 0 1.587.14 2.184.42.607.28 1.069.681 1.386 1.204.317.513.476 1.125.476 1.834v.224c0 .71-.159 1.325-.476 1.848-.317.513-.78.915-1.386 1.204-.597.28-1.325.42-2.184.42h-1.82zM51.305 32.5V22.21h1.988V32.5h-1.988zm13.566 0v-8.988l.616.476h-2.702V22.28h4.06V32.5h-1.974z" fill="#fff"/><path d="M100.071 20.929L107.142 28l-7.071 7.071" stroke="#fff" stroke-width="1.5"/></svg>