<svg width="435" height="721" fill="none" xmlns="http://www.w3.org/2000/svg"><path fill-rule="evenodd" clip-rule="evenodd" d="M145.244 0h137.244a8 8 0 018 8v128.402a8 8 0 008 8h128.404a8 8 0 018 8v129.244a8 8 0 01-8 8H299.329a8 8 0 00-8 8v127.562a8 8 0 008 8h127.563a8 8 0 018 8v129.245a8 8 0 01-8 8H304.097a8 8 0 00-8 8v125.881a8 8 0 01-8 8H158.852a8 8 0 01-8-8V583.089a8 8 0 018-8h122.796a8 8 0 008-8V442.893a8 8 0 00-8-8H153.244a8 8 0 01-8-8V290.069a.42.42 0 01.421-.42.42.42 0 00.42-.421c0-.233.189-.421.421-.421h135.142a8 8 0 008-8V153.244a8 8 0 00-8-8H8a8 8 0 01-8-8V8a8 8 0 018-8h137.244z" fill="#fff"/></svg>