<svg width="35" height="35" fill="none" xmlns="http://www.w3.org/2000/svg"><rect width="35" height="35" rx="8" fill="#fff"/><path fill-rule="evenodd" clip-rule="evenodd" d="M6.708 13.266a6.704 6.704 0 016.704-6.704h8.468a6.704 6.704 0 016.704 6.704v8.468a6.704 6.704 0 01-6.704 6.703h-8.468a6.704 6.704 0 01-6.704-6.703v-8.468zm6.704-4.587a4.587 4.587 0 00-4.587 4.587v8.468a4.587 4.587 0 004.587 4.587h8.468a4.587 4.587 0 004.587-4.587v-8.468A4.587 4.587 0 0021.88 8.68h-8.468z" fill="#000"/><path fill-rule="evenodd" clip-rule="evenodd" d="M17.646 14.325a3.175 3.175 0 100 6.35 3.175 3.175 0 000-6.35zM12.353 17.5a5.292 5.292 0 1110.585 0 5.292 5.292 0 01-10.584 0z" fill="#000"/><path d="M23.291 10.443a1.411 1.411 0 100 2.823 1.411 1.411 0 000-2.823z" fill="#000"/><path fill-rule="evenodd" clip-rule="evenodd" d="M23.291 13.266a1.411 1.411 0 110-2.822 1.411 1.411 0 010 2.822z" fill="#000"/></svg>