<svg width="35" height="35" fill="none" xmlns="http://www.w3.org/2000/svg"><rect width="35" height="35" rx="8" fill="#fff"/><path fill-rule="evenodd" clip-rule="evenodd" d="M28.438 28.438h-4.375v-7.656c0-2.1-.927-3.271-2.588-3.271-1.808 0-2.881 1.22-2.881 3.271v7.655h-4.375V14.22h4.375v1.599s1.372-2.409 4.465-2.409c3.095 0 5.378 1.888 5.378 5.795v9.233zM9.233 11.945a2.681 2.681 0 01-2.67-2.692 2.681 2.681 0 012.67-2.69 2.68 2.68 0 012.67 2.69 2.68 2.68 0 01-2.67 2.692zm-2.67 16.492h5.468V14.22H6.562v14.219z" fill="#000"/></svg>