<svg width="315" height="61" fill="none" xmlns="http://www.w3.org/2000/svg"><path d="M153.041 47.355a3.721 3.721 0 013.721-3.721h150.096a3.721 3.721 0 013.721 3.721v9.924A3.721 3.721 0 01306.858 61H156.762a3.721 3.721 0 01-3.721-3.721v-9.924z" fill="#D5202C"/><mask id="path-2-outside-1_24_2052" maskUnits="userSpaceOnUse" x="104.161" y="26.359" width="23" height="11" fill="#000"><path fill="#fff" d="M104.161 26.359h23v11h-23z"/><path d="M125.757 28.698c.298-.198.53-.148.695.15.199.297.166.529-.099.694-6.914 4.499-11.594 6.748-14.042 6.748-.728 0-1.29-.198-1.687-.595-.926-.927-.728-2.73.595-5.409a9.949 9.949 0 01-.446.397c-1.687 1.522-2.812 2.514-3.374 2.977-.563.463-.976.712-1.241.745h-.099c-.463 0-.744-.232-.843-.695-.199-.728.148-1.836 1.041-3.325.894-1.488 1.787-2.398 2.68-2.729.893-.363 1.588-.082 2.084.844.165.298.099.53-.199.695-.297.132-.529.05-.694-.248-.232-.397-.53-.513-.893-.348-.629.298-1.29 1.026-1.985 2.183-.728 1.158-1.092 2.002-1.092 2.531.364-.199 1.687-1.323 3.97-3.374a458.818 458.818 0 012.729-2.481c.033-.033.066-.05.099-.05.033-.033.066-.05.099-.05h.149c.033 0 .066.017.099.05h.149c0 .034.017.05.05.05l.049.05v.05h.05v.099c.033.033.05.066.05.099.033 0 .049.016.049.05v.099c0 .033-.016.066-.049.099 0 .033-.017.066-.05.099v.05a23.236 23.236 0 00-2.134 4.118c-.529 1.39-.578 2.299-.148 2.729.165.132.38.231.645.298.264.033.744-.017 1.439-.15.727-.165 1.571-.446 2.53-.843.992-.43 2.332-1.124 4.019-2.084 1.72-.959 3.655-2.133 5.805-3.522z"/></mask><path d="M125.757 28.698c.298-.198.53-.148.695.15.199.297.166.529-.099.694-6.914 4.499-11.594 6.748-14.042 6.748-.728 0-1.29-.198-1.687-.595-.926-.927-.728-2.73.595-5.409a9.949 9.949 0 01-.446.397c-1.687 1.522-2.812 2.514-3.374 2.977-.563.463-.976.712-1.241.745h-.099c-.463 0-.744-.232-.843-.695-.199-.728.148-1.836 1.041-3.325.894-1.488 1.787-2.398 2.68-2.729.893-.363 1.588-.082 2.084.844.165.298.099.53-.199.695-.297.132-.529.05-.694-.248-.232-.397-.53-.513-.893-.348-.629.298-1.29 1.026-1.985 2.183-.728 1.158-1.092 2.002-1.092 2.531.364-.199 1.687-1.323 3.97-3.374a458.818 458.818 0 012.729-2.481c.033-.033.066-.05.099-.05.033-.033.066-.05.099-.05h.149c.033 0 .066.017.099.05h.149c0 .034.017.05.05.05l.049.05v.05h.05v.099c.033.033.05.066.05.099.033 0 .049.016.049.05v.099c0 .033-.016.066-.049.099 0 .033-.017.066-.05.099v.05a23.236 23.236 0 00-2.134 4.118c-.529 1.39-.578 2.299-.148 2.729.165.132.38.231.645.298.264.033.744-.017 1.439-.15.727-.165 1.571-.446 2.53-.843.992-.43 2.332-1.124 4.019-2.084 1.72-.959 3.655-2.133 5.805-3.522z" fill="#fff"/><path d="M125.757 28.698l.272.42.006-.003-.278-.416zm.695.15l-.437.242.01.018.011.017.416-.278zm-.099.694l-.265-.424-.008.005.273.419zm-15.729 6.153l.353-.354-.353.354zm.595-5.409l.449.222-.802-.575.353.353zm-.446.397l-.326-.38-.009.009.335.371zm-3.374 2.977l.318.386-.318-.386zm-1.241.745v.5h.031l.031-.004-.062-.496zm-.942-.695l.488-.105-.002-.013-.004-.014-.482.132zm1.041-3.325l-.428-.257.428.258zm2.68-2.729l.174.47.007-.003.008-.004-.189-.462zm2.084.844l-.441.236.004.007.437-.243zm-.199.695l.203.457.021-.01.019-.01-.243-.437zm-.694-.248l.437-.243-.005-.01-.432.253zm-.893-.348l-.207-.455-.007.003.214.452zm-1.985 2.183l.423.267.006-.01-.429-.257zm-1.092 2.531h-.5v.842l.74-.403-.24-.439zm3.97-3.374l.334.372.003-.003-.337-.37zm2.729-2.481l.334.372.01-.01.009-.008-.353-.354zm.099-.05v.5h.207l.147-.146-.354-.354zm.347 0l-.353.354.146.146h.207v-.5zm.149 0h.5v-.5h-.5v.5zm.05.05l.353-.354-.146-.146h-.207v.5zm.049.05h.5V27.3l-.146-.147-.354.354zm0 .05h-.5v.5h.5v-.5zm.05 0h.5v-.5h-.5v.5zm0 .099h-.5v.207l.146.146.354-.354zm.05.099h-.5v.5h.5v-.5zm0 .248l-.354-.354-.146.147v.207h.5zm-.05.099l-.354-.354-.146.147v.207h.5zm0 .05l.419.272.081-.124v-.148h-.5zm-2.134 4.118l-.465-.184-.002.006.467.178zM111.319 35l-.354.353.02.02.021.017.313-.39zm.645.298l-.122.485.03.007.03.004.062-.496zm1.439-.15l.093.492.009-.002.008-.002-.11-.487zm2.53-.843l.191.462.008-.003-.199-.459zm4.019-2.084l-.243-.436-.004.002.247.434zm6.083-3.106a.427.427 0 01.049-.03l.02-.008a.148.148 0 01-.054-.002.167.167 0 01-.042-.014c-.012-.006-.019-.012-.022-.014l.005.006a.234.234 0 01.024.037l.874-.485c-.121-.219-.32-.44-.63-.507-.302-.065-.574.048-.779.184l.555.832zm.001.01a.326.326 0 01.044.082c.003.008-.003-.005.001-.034a.19.19 0 01.011-.04.183.183 0 01.016-.027c.008-.011.007-.005-.02.012l.53.848c.213-.133.409-.345.453-.651.041-.288-.07-.546-.203-.745l-.832.555zm.044-.002c-3.448 2.243-6.326 3.918-8.639 5.03-2.332 1.12-4.027 1.637-5.13 1.637v1c1.345 0 3.214-.608 5.563-1.736 2.367-1.138 5.286-2.838 8.752-5.093l-.546-.838zm-13.769 6.667c-.636 0-1.056-.171-1.334-.449l-.707.707c.517.516 1.222.742 2.041.742v-1zm-1.334-.449c-.318-.319-.491-.827-.402-1.638.09-.818.442-1.879 1.093-3.195l-.897-.443c-.673 1.362-1.081 2.543-1.19 3.528-.109.991.082 1.848.689 2.455l.707-.707zm-.111-5.408c-.05.05-.184.17-.419.37l.651.76c.228-.196.393-.34.475-.423l-.707-.707zm-.428.379c-1.689 1.523-2.805 2.508-3.357 2.962l.636.772c.572-.471 1.705-1.471 3.391-2.991l-.67-.743zm-3.357 2.962a5.903 5.903 0 01-.671.49c-.188.113-.286.14-.314.144l.124.993c.237-.03.478-.143.704-.279.236-.141.501-.336.793-.576l-.636-.772zm-.923.63h-.099v1h.099v-1zm-.099 0c-.148 0-.211-.035-.24-.06-.031-.024-.081-.084-.115-.239l-.977.21c.066.308.205.595.456.802.252.208.561.288.876.288v-1zm-.361-.326c-.064-.234-.053-.587.106-1.096.158-.502.447-1.114.882-1.84l-.857-.514c-.458.764-.789 1.45-.979 2.056-.188.6-.251 1.164-.117 1.658l.965-.264zm.988-2.935c.877-1.462 1.696-2.248 2.425-2.518l-.348-.937c-1.057.391-2.025 1.425-2.934 2.94l.857.515zm2.44-2.524c.362-.147.619-.14.814-.061.203.082.425.277.64.678l.882-.472c-.282-.525-.655-.934-1.147-1.133-.5-.202-1.036-.154-1.567.062l.378.926zm1.458.624a.473.473 0 01.026.06v-.013a.09.09 0 01.005-.03.094.094 0 01.012-.03.052.052 0 01.007-.01c-.001 0-.004.005-.013.011a.377.377 0 01-.041.027l.485.874c.216-.12.429-.31.511-.598.082-.288.002-.56-.118-.777l-.874.486zm.035-.005a.195.195 0 01-.054.018h.008a.11.11 0 01.021.005c.015.006.021.012.016.008a.269.269 0 01-.045-.065l-.874.485c.119.215.299.418.566.514.272.097.541.05.768-.051l-.406-.914zm-.059-.043c-.149-.255-.356-.486-.648-.599-.304-.118-.612-.076-.884.048l.413.91a.29.29 0 01.091-.027c.012-.001.015 0 .018.001.006.002.063.028.146.17l.864-.503zm-1.539-.548c-.769.365-1.495 1.203-2.2 2.378l.858.515c.684-1.14 1.281-1.758 1.77-1.989l-.428-.904zm-2.194 2.37a11.92 11.92 0 00-.855 1.568c-.192.445-.314.863-.314 1.228h1c0-.164.06-.433.232-.832.168-.39.427-.866.783-1.433l-.846-.532zm-.429 3.235c.132-.072.313-.204.522-.368.218-.171.494-.4.827-.682a140.35 140.35 0 002.715-2.391l-.668-.744a139.793 139.793 0 01-2.694 2.373c-.329.279-.594.497-.798.657-.212.167-.333.25-.383.277l.479.878zm4.067-3.444a533.035 533.035 0 012.726-2.478l-.669-.744c-.663.597-1.574 1.425-2.732 2.484l.675.738zm2.745-2.496a.362.362 0 01-.254.096v-1a.64.64 0 00-.453.196l.707.708zm.1-.05a.364.364 0 01-.255.097v-1a.643.643 0 00-.453.196l.708.707zm-.255.097h.099v-1h-.099v1zm.099 0h.05v-1h-.05v1zm.05 0a.361.361 0 01-.254-.097l.707-.707a.64.64 0 00-.453-.196v1zm.099.05h.149v-1h-.149v1zm-.351-.5a.55.55 0 00.159.39.55.55 0 00.391.159v-1a.45.45 0 01.316.134.449.449 0 01.134.316h-1zm.55.049l-.354.354h.001l.002.003.01.009.015.015.01.01.006.006.003.003.001.002h.001l.001.001.707-.707-.012-.012-.01-.01-.015-.015-.003-.003-.003-.003-.004-.003c-.001-.001.001 0 0 0v-.001h-.001l-.001-.002h-.001l-.353.353zm.049.05h-.5v.05h1v-.049h-.5zm0 .55h.05v-1h-.05v1zm.05-.5h-.5v.099h1v-.098h-.5zm-.354.452a.365.365 0 01-.096-.254h1a.643.643 0 00-.196-.453l-.708.707zm.404.246a.452.452 0 01-.317-.134.454.454 0 01-.134-.317h1a.546.546 0 00-.549-.55v1zm-.451-.45v.099h1v-.098h-1zm0 .099c0-.147.076-.233.097-.255l.707.707a.639.639 0 00.196-.452h-1zm-.049.099a.37.37 0 01.096-.255l.708.708a.643.643 0 00.196-.453h-1zm.45.099h-.5v.05h1v-.049h-.5zm-.419-.223a23.669 23.669 0 00-2.18 4.207l.93.368a22.738 22.738 0 012.088-4.03l-.838-.545zM111 32.093c-.273.716-.437 1.346-.466 1.875-.029.526.074 1.029.431 1.385l.707-.707c-.073-.073-.16-.24-.139-.623.02-.382.145-.901.402-1.574l-.935-.356zm.006 3.297c.235.189.521.314.836.393l.243-.97a1.174 1.174 0 01-.454-.203l-.625.78zm.896.404c.353.044.906-.023 1.594-.154l-.187-.982c-.701.133-1.107.166-1.283.144l-.124.992zm1.611-.158c.764-.173 1.635-.465 2.611-.869l-.382-.924c-.943.39-1.758.661-2.45.818l.221.975zm2.619-.872c1.017-.44 2.375-1.146 4.067-2.108l-.494-.87c-1.682.957-3.003 1.641-3.971 2.06l.398.918zm4.064-2.106c1.732-.966 3.676-2.146 5.833-3.54l-.543-.84c-2.143 1.386-4.069 2.554-5.777 3.507l.487.873z" fill="#fff" mask="url(#path-2-outside-1_24_2052)"/><path d="M107.416 28.629l-.007.004-.007.004c-2.607 1.683-4.963 3.034-7.068 4.054-1.038.493-1.895.852-2.576 1.08-.69.23-1.169.313-1.46.285h-.024a.472.472 0 01-.16-.022.103.103 0 01-.028-.015c-.02-.033-.046-.116-.046-.281 0-.165.026-.384.082-.66.112-.554.339-1.305.685-2.26v-.001c.163-.456.278-.786.346-.988.103-.242.188-.5.256-.772h0l.002-.007c.068-.306.094-.577.052-.794-.038-.223-.117-.423-.261-.57-.257-.296-.602-.418-1.003-.378h0l-.013.002c-.317.05-.727.242-1.212.54-.493.302-1.092.732-1.795 1.285-1.174.924-2.65 2.202-4.425 3.833a182.976 182.976 0 012.378-4.244h0l.002-.003c.101-.183.154-.385.096-.587-.058-.203-.21-.347-.392-.448-.183-.101-.385-.154-.587-.096-.202.057-.346.209-.447.39a354.302 354.302 0 00-2.135 3.823 47.116 47.116 0 00-1.246 2.393c-.264.528-.439.975-.513 1.335-.05.15-.085.282-.104.395a.793.793 0 00-.002.304.55.55 0 00.17.336.785.785 0 00.575.222c.153 0 .295-.05.424-.133.098-.053.248-.17.43-.322l.01-.007.007-.008c.196-.196.59-.573 1.185-1.136 2.083-1.95 3.765-3.455 5.05-4.517a26.32 26.32 0 011.62-1.256c.206-.143.385-.26.54-.352-.087.303-.226.715-.42 1.24-.166.431-.285.77-.354 1.012a23.77 23.77 0 01-.294.933l-.004.009-.002.009c-.1.4-.168.724-.203.968l-.003.017v.018c0 .244.018.502.052.776.036.287.109.547.223.775l.005.012.008.01c.28.442.737.686 1.32.76h.014c.51.037 1.176-.086 1.98-.346.809-.261 1.78-.667 2.91-1.216h0l.003-.001c2.257-1.129 4.644-2.505 7.162-4.128.174-.098.328-.24.375-.443.047-.203-.03-.394-.145-.552-.101-.176-.243-.321-.439-.378-.202-.057-.405-.005-.587.097z" fill="#fff" stroke="#fff" stroke-width=".5"/><path d="M89.245 28.629l-.007.004-.007.004c-2.607 1.683-4.963 3.034-7.068 4.054-1.037.493-1.895.852-2.576 1.08-.69.23-1.169.313-1.46.285h-.024a.472.472 0 01-.16-.022.103.103 0 01-.028-.015c-.02-.033-.046-.116-.046-.281 0-.165.026-.384.082-.66.112-.554.339-1.305.685-2.26v-.001c.163-.456.278-.786.346-.988.103-.242.188-.5.257-.772h0l.001-.007c.068-.306.094-.577.052-.793-.038-.224-.117-.424-.261-.572-.256-.295-.602-.417-1.003-.377h0l-.013.002c-.317.05-.726.242-1.212.54-.493.302-1.092.732-1.795 1.285-1.174.924-2.65 2.202-4.425 3.833a182.976 182.976 0 012.378-4.244h0l.002-.003c.101-.183.154-.385.096-.587-.058-.203-.21-.347-.392-.448-.183-.101-.385-.154-.587-.096-.202.057-.346.209-.447.39a354.302 354.302 0 00-2.135 3.823 47.116 47.116 0 00-1.246 2.393c-.264.528-.439.975-.513 1.335-.05.15-.085.282-.104.395a.793.793 0 00-.002.304.55.55 0 00.171.336.785.785 0 00.574.222c.153 0 .296-.05.424-.133.098-.053.248-.17.43-.322l.01-.007.007-.008c.196-.196.59-.573 1.186-1.136 2.082-1.95 3.764-3.455 5.049-4.517a26.32 26.32 0 011.62-1.256c.206-.143.385-.26.54-.352-.087.303-.226.715-.42 1.24-.166.431-.285.77-.354 1.012-.065.227-.163.537-.294.933l-.003.009-.003.009c-.1.4-.168.724-.203.968l-.003.017v.018c0 .244.018.502.052.776.036.287.109.547.223.775l.006.012.007.01c.28.442.737.686 1.32.76h.014c.511.037 1.176-.086 1.98-.346.809-.261 1.78-.667 2.91-1.216h0l.003-.001c2.257-1.129 4.644-2.505 7.162-4.128.174-.098.328-.24.375-.443.047-.203-.03-.394-.145-.552-.1-.176-.243-.321-.44-.378-.201-.057-.404-.005-.586.097z" fill="#fff" stroke="#fff" stroke-width=".5"/><mask id="path-6-outside-2_24_2052" maskUnits="userSpaceOnUse" x="49.552" y="26.359" width="23" height="11" fill="#000"><path fill="#fff" d="M49.552 26.359h23v11h-23z"/><path d="M71.148 28.698c.298-.198.53-.148.695.15.198.297.165.529-.1.694-6.913 4.499-11.593 6.748-14.041 6.748-.728 0-1.29-.198-1.687-.595-.926-.927-.728-2.73.595-5.409a9.949 9.949 0 01-.446.397c-1.687 1.522-2.812 2.514-3.374 2.977-.563.463-.976.712-1.24.745h-.1c-.463 0-.744-.232-.844-.695-.198-.728.15-1.836 1.042-3.325.893-1.488 1.787-2.398 2.68-2.729.893-.363 1.587-.082 2.084.844.165.298.099.53-.199.695-.297.132-.529.05-.694-.248-.232-.397-.53-.513-.893-.348-.629.298-1.29 1.026-1.985 2.183-.728 1.158-1.092 2.002-1.092 2.531.364-.199 1.687-1.323 3.97-3.374a500.465 500.465 0 012.729-2.481c.033-.033.066-.05.099-.05.033-.033.066-.05.1-.05h.147c.033 0 .066.017.1.05h.148c0 .034.017.05.05.05l.05.05v.05h.049v.099c.033.033.05.066.05.099.033 0 .05.016.05.05v.099c0 .033-.017.066-.05.099 0 .033-.017.066-.05.099v.05a23.181 23.181 0 00-2.134 4.118c-.529 1.39-.579 2.299-.149 2.729.166.132.38.231.645.298.265.033.745-.017 1.44-.15.727-.165 1.57-.446 2.53-.843.992-.43 2.332-1.124 4.019-2.084 1.72-.959 3.655-2.133 5.805-3.522z"/></mask><path d="M71.148 28.698c.298-.198.53-.148.695.15.198.297.165.529-.1.694-6.913 4.499-11.593 6.748-14.041 6.748-.728 0-1.29-.198-1.687-.595-.926-.927-.728-2.73.595-5.409a9.949 9.949 0 01-.446.397c-1.687 1.522-2.812 2.514-3.374 2.977-.563.463-.976.712-1.24.745h-.1c-.463 0-.744-.232-.844-.695-.198-.728.15-1.836 1.042-3.325.893-1.488 1.787-2.398 2.68-2.729.893-.363 1.587-.082 2.084.844.165.298.099.53-.199.695-.297.132-.529.05-.694-.248-.232-.397-.53-.513-.893-.348-.629.298-1.29 1.026-1.985 2.183-.728 1.158-1.092 2.002-1.092 2.531.364-.199 1.687-1.323 3.97-3.374a500.465 500.465 0 012.729-2.481c.033-.033.066-.05.099-.05.033-.033.066-.05.1-.05h.147c.033 0 .066.017.1.05h.148c0 .034.017.05.05.05l.05.05v.05h.049v.099c.033.033.05.066.05.099.033 0 .05.016.05.05v.099c0 .033-.017.066-.05.099 0 .033-.017.066-.05.099v.05a23.181 23.181 0 00-2.134 4.118c-.529 1.39-.579 2.299-.149 2.729.166.132.38.231.645.298.265.033.745-.017 1.44-.15.727-.165 1.57-.446 2.53-.843.992-.43 2.332-1.124 4.019-2.084 1.72-.959 3.655-2.133 5.805-3.522z" fill="#fff"/><path d="M71.148 28.698l.272.42.006-.003-.278-.416zm.695.15l-.437.242.01.018.011.017.416-.278zm-.1.694l-.264-.424-.008.005.273.419zm-15.728 6.153l.353-.354-.353.354zm.595-5.409l.449.222-.802-.575.353.353zm-.446.397l-.326-.38-.01.009.336.371zM52.79 33.66l.317.386-.317-.386zm-1.24.745v.5h.03l.031-.004-.062-.496zm-.944-.695l.49-.105-.004-.013-.003-.014-.483.132zm1.042-3.325l-.428-.257.428.258zm2.68-2.729l.173.47.008-.003.007-.004-.188-.462zm2.084.844l-.441.236.004.007.437-.243zm-.199.695l.203.457.02-.01.02-.01-.243-.437zm-.694-.248l.437-.243-.006-.01-.431.253zm-.893-.348l-.207-.455-.008.003.215.452zm-1.985 2.183l.423.267.005-.01-.428-.257zm-1.092 2.531h-.5v.842l.74-.403-.24-.439zm3.97-3.374l.334.372.003-.003-.337-.37zm2.729-2.481l.334.372.01-.01.01-.008-.354-.354zm.099-.05v.5h.207l.146-.146-.353-.354zm.347 0l-.353.354.146.146h.207v-.5zm.149 0h.5v-.5h-.5v.5zm.05.05l.353-.354-.146-.146h-.207v.5zm.05.05h.5V27.3l-.147-.147-.354.354zm0 .05h-.5v.5h.5v-.5zm.049 0h.5v-.5h-.5v.5zm0 .099h-.5v.207l.146.146.354-.354zm.05.099h-.5v.5h.5v-.5zm0 .248l-.354-.354-.147.147v.207h.5zm-.05.099l-.354-.354-.146.147v.207h.5zm0 .05l.42.272.08-.124v-.148h-.5zm-2.134 4.118l-.465-.184-.002.006.467.178zM56.71 35l-.353.353.02.02.021.017.312-.39zm.645.298l-.12.485.029.007.03.004.062-.496zm1.44-.15l.093.492.009-.002.008-.002-.11-.487zm2.53-.843l.191.462.008-.003-.2-.459zm4.019-2.084l-.243-.436-.004.002.247.434zm6.083-3.106a.424.424 0 01.05-.03l.019-.008s-.005.002-.015.002c-.01 0-.024 0-.04-.003a.168.168 0 01-.063-.03c-.002-.001 0 0 .005.007a.314.314 0 01.024.037l.874-.485c-.121-.219-.32-.44-.63-.507-.302-.065-.575.048-.779.184l.555.832zm.001.01a.35.35 0 01.044.082c.003.008-.003-.005.001-.034a.169.169 0 01.027-.067c.008-.011.007-.005-.02.012l.53.848c.213-.133.41-.345.453-.651.041-.288-.07-.546-.203-.745l-.832.555zm.044-.002c-3.448 2.243-6.326 3.918-8.64 5.03-2.331 1.12-4.026 1.637-5.13 1.637v1c1.346 0 3.215-.608 5.564-1.736 2.367-1.138 5.286-2.838 8.751-5.093l-.545-.838zm-13.77 6.667c-.635 0-1.055-.171-1.333-.449l-.707.707c.516.516 1.221.742 2.04.742v-1zm-1.333-.449c-.318-.319-.491-.827-.402-1.638.09-.818.442-1.879 1.093-3.195l-.897-.443c-.673 1.362-1.082 2.543-1.19 3.528-.11.991.082 1.848.69 2.455l.706-.707zm-.111-5.408c-.05.05-.184.17-.419.37l.651.76c.228-.196.393-.34.475-.423l-.707-.707zm-.428.379c-1.689 1.523-2.805 2.508-3.357 2.962l.635.772c.573-.471 1.706-1.471 3.392-2.991l-.67-.743zm-3.357 2.962c-.27.223-.494.384-.672.49-.187.113-.285.14-.313.144l.124.993c.237-.03.478-.143.704-.279.236-.141.5-.336.792-.576l-.635-.772zm-.923.63h-.099v1h.099v-1zm-.1 0c-.147 0-.21-.035-.24-.06-.03-.024-.08-.084-.114-.239l-.977.21c.066.308.205.595.456.802.252.208.56.288.876.288v-1zm-.36-.326c-.064-.234-.053-.587.106-1.096.158-.502.447-1.114.882-1.84l-.857-.514c-.458.764-.79 1.45-.98 2.056-.187.6-.25 1.164-.116 1.658l.965-.264zm.988-2.935c.877-1.462 1.696-2.248 2.424-2.518l-.347-.937c-1.057.391-2.025 1.425-2.934 2.94l.857.515zm2.44-2.524c.361-.147.62-.14.814-.061.202.082.425.277.64.678l.882-.472c-.282-.525-.655-.934-1.147-1.133-.5-.202-1.036-.154-1.567.062l.377.926zm1.458.624c.01.019.017.034.02.044.005.01.006.016.006.016v-.013a.13.13 0 01.016-.06l.008-.01s-.004.005-.013.011a.353.353 0 01-.042.027l.486.874c.216-.12.429-.31.51-.598.083-.288.003-.56-.117-.777l-.874.486zm.035-.005a.197.197 0 01-.054.018h.008c.006 0 .013.002.02.005.016.006.022.012.017.008a.282.282 0 01-.045-.065l-.875.485c.12.215.3.418.567.514.272.097.541.05.768-.051l-.406-.914zm-.06-.043c-.148-.255-.355-.486-.647-.599-.304-.118-.612-.076-.884.048l.413.91a.28.28 0 01.091-.027c.012-.001.015 0 .017.001.006.002.064.028.147.17l.863-.503zm-1.539-.548c-.768.365-1.494 1.203-2.199 2.378l.857.515c.684-1.14 1.282-1.758 1.77-1.989l-.428-.904zm-2.194 2.37a11.922 11.922 0 00-.854 1.568c-.192.445-.314.863-.314 1.228h1c0-.164.06-.433.232-.832.168-.39.427-.866.783-1.433l-.847-.532zm-.428 3.235c.132-.072.312-.204.521-.368.219-.171.495-.4.828-.682.667-.567 1.572-1.365 2.715-2.391l-.669-.744a138.68 138.68 0 01-2.693 2.373c-.329.279-.594.497-.798.657-.212.167-.333.25-.383.277l.478.878zm4.067-3.444a500.007 500.007 0 012.726-2.478l-.669-.744c-.663.597-1.574 1.425-2.732 2.484l.675.738zm2.745-2.496a.363.363 0 01-.254.096v-1a.64.64 0 00-.453.196l.707.708zm.1-.05a.363.363 0 01-.255.097v-1a.64.64 0 00-.453.196l.707.707zm-.255.097h.099v-1h-.098v1zm.1 0h.048v-1h-.048v1zm.049 0a.362.362 0 01-.254-.097l.707-.707a.64.64 0 00-.453-.196v1zm.1.05h.148v-1h-.148v1zm-.352-.5a.55.55 0 00.159.39.55.55 0 00.39.159v-1c.061 0 .198.016.317.134a.451.451 0 01.134.316h-1zm.55.049l-.354.354.003.003.01.009.015.015.01.01.006.006.003.003.001.002h.001v.001l.708-.707-.012-.012-.01-.01-.015-.015-.003-.003-.003-.003-.004-.003c0-.001 0 0 0 0v-.001h-.001l-.001-.002-.354.353zm.05.05h-.5v.05h1v-.049h-.5zm0 .55h.048v-1h-.048v1zm.049-.5h-.5v.099h1v-.098h-.5zm-.354.452a.363.363 0 01-.096-.254h1a.64.64 0 00-.197-.453l-.707.707zm.404.246a.451.451 0 01-.317-.134.451.451 0 01-.134-.317h1a.55.55 0 00-.159-.39.55.55 0 00-.39-.16v1zm-.45-.45v.099h1v-.098h-1zm0 .099c0-.147.075-.233.096-.255l.707.707a.64.64 0 00.196-.452h-1zm-.05.099a.37.37 0 01.096-.255l.707.708a.64.64 0 00.197-.453h-1zm.45.099h-.5v.05h1v-.049h-.5zm-.42-.223a23.685 23.685 0 00-2.179 4.207l.93.368a22.684 22.684 0 012.088-4.03l-.838-.545zm-2.181 4.213c-.273.716-.437 1.346-.466 1.875-.029.526.074 1.029.43 1.385l.708-.707c-.073-.073-.16-.24-.14-.623.021-.382.146-.901.402-1.574l-.934-.356zm.006 3.297c.235.189.521.314.836.393l.243-.97a1.176 1.176 0 01-.454-.203l-.625.78zm.895.404c.354.044.907-.023 1.595-.154l-.187-.982c-.701.133-1.108.166-1.284.144l-.123.992zm1.612-.158c.764-.173 1.635-.465 2.611-.869l-.382-.924c-.943.39-1.758.661-2.45.818l.221.975zm2.619-.872c1.017-.44 2.375-1.146 4.067-2.108l-.494-.87c-1.682.957-3.003 1.641-3.97 2.06l.397.918zm4.064-2.106c1.731-.966 3.676-2.146 5.833-3.54l-.543-.84c-2.143 1.386-4.07 2.554-5.777 3.507l.487.873z" fill="#fff" mask="url(#path-6-outside-2_24_2052)"/><path d="M23.58 29.03a186.275 186.275 0 004.497-8.306v-.001c2.385-4.754 3.95-8.643 4.684-11.664.73-3.001.659-5.22-.34-6.559-.91-1.236-2.486-1.61-4.61-1.239-1.401.24-3.368 1.086-5.885 2.51-2.525 1.428-5.131 3.155-7.818 5.178-2.693 2.028-5.235 4.37-7.626 7.028-2.394 2.627-4.053 5.117-4.96 7.471h0c-1.248 3.237-.99 6.03.829 8.33.122.163.281.29.485.319.204.029.394-.05.557-.172.163-.122.292-.283.321-.487.03-.205-.05-.394-.171-.557h0l-.005-.006c-1.453-1.832-1.676-4.098-.607-6.85.682-1.754 1.84-3.633 3.483-5.638l.001-.001a42.111 42.111 0 015.474-5.623 92.494 92.494 0 016.235-4.799c2.11-1.484 4.052-2.685 5.826-3.605 1.78-.923 3.157-1.453 4.142-1.612h0l.004-.001c.906-.162 1.623-.148 2.166.018.534.163.907.475 1.14.94h0c.38.754.495 1.845.304 3.303-.191 1.455-.683 3.246-1.481 5.379-1.588 4.239-4.376 9.792-8.372 16.662-2.486.065-4.59.13-6.313.195-2.893.097-4.625.163-5.19.197a2.373 2.373 0 00-.692.003l-.214.031v.06c-.04.01-.077.022-.111.034a.47.47 0 00-.25.192.863.863 0 00-.147.392.671.671 0 00.097.412c.154.256.412.37.71.37v0h.006c1.314-.033 2.34.175 3.097.6.75.42 1.256 1.065 1.52 1.95.475 1.614.277 3.705-.64 6.295l-.002.003a38.315 38.315 0 01-3.396 7.336c-1.07 1.49-1.742 2.372-2.033 2.67a.654.654 0 00-.244.281.695.695 0 00-.044.395.83.83 0 00.22.516.718.718 0 00.524.197c.196 0 .37-.074.51-.208.34-.255.73-.684 1.166-1.269.445-.595.949-1.366 1.512-2.31a706.81 706.81 0 004.314-6.447l.002-.003a342.887 342.887 0 006.435-10.408 3361.45 3361.45 0 0118.932-.483c-2.616 4.875-4.604 9.11-5.964 12.702v.003c-.681 1.859-1.153 3.435-1.413 4.725-.258 1.285-.312 2.312-.134 3.06.145.617.463 1.081.968 1.353h0l.007.003a.69.69 0 00.31.076.817.817 0 00.426-.11.775.775 0 00.294-.326h0l.005-.01c.081-.184.115-.384.042-.576a.729.729 0 00-.386-.384c-.061-.055-.132-.17-.188-.392-.134-.553-.084-1.424.188-2.64.269-1.207.748-2.725 1.44-4.555 1.373-3.627 3.412-7.957 6.12-12.99a708.84 708.84 0 016.784-.097c.197.018.398-.013.551-.15.154-.14.205-.337.207-.535.017-.208-.012-.418-.143-.58-.138-.167-.341-.226-.547-.227-.684-.032-2.698-.002-6.029.087 4.68-8.53 10.228-17.126 16.643-25.788h0l.007-.01c.119-.178.191-.375.164-.58-.028-.21-.153-.377-.321-.503-.166-.124-.364-.201-.575-.156-.203.044-.357.188-.474.36-6.622 8.93-12.344 17.827-17.164 26.693-3.553.099-8.152.213-13.798.343h0-.005c-1.355.062-3.04.124-5.058.186zm-9.18 1.778c2.305-.082 4.49-.152 6.556-.21a260.432 260.432 0 01-5.57 8.933c.593-2.04.817-3.792.658-5.251-.143-1.49-.688-2.657-1.644-3.472zm298.367-2.388h-.001l-.01.005c-2.909 1.455-5.67 2.28-8.287 2.484.081-.97-.21-1.74-.916-2.253a1.203 1.203 0 00-.128-.108.704.704 0 00-.049-.14c-.062-.194-.173-.37-.364-.457-.19-.088-.398-.061-.591.013a2.151 2.151 0 00-.361.13c-.942-.118-1.688.023-2.128.534-.533.536-.77 1.128-.633 1.754-1.035 1.428-1.456 2.852-1.216 4.262.088.544.278.986.594 1.292.321.311.744.455 1.241.455.792 0 1.596-.45 2.409-1.264h0l.004-.004c.774-.806 1.352-1.692 1.731-2.658 2.939-.128 6.061-1.015 9.364-2.65h0l.01-.005c.183-.101.334-.245.392-.447.057-.199.007-.398-.091-.578-.082-.18-.207-.334-.395-.407-.191-.073-.391-.04-.575.042zm-11.587 5.66h0l-.005.005c-.273.29-.514.497-.723.631-.21.136-.369.184-.485.184h-.049a.235.235 0 01-.202-.092c-.059-.074-.116-.209-.146-.436h0l-.002-.01c-.139-.783.053-1.652.618-2.618.283.197.578.353.887.465l.01.004.011.003c.406.108.843.184 1.308.228a7.065 7.065 0 01-1.222 1.636zm.34-3.34h0-.003a1.018 1.018 0 01-.405-.208 5.38 5.38 0 011.165-.868c.164.054.285.115.369.178.25.188.382.53.292 1.125a7.694 7.694 0 01-1.418-.227z" fill="#fff" stroke="#fff" stroke-width=".5"/><path d="M300.474 28.697h0l-.005.004c-3.341 2.646-5.776 4.405-7.313 5.288l-.002.002c-1.502.881-2.754 1.25-3.77 1.157h0-.007c-.466-.03-.966-.235-1.502-.644a4.924 4.924 0 01-1.276-1.417l-.005-.009-.006-.009a4.006 4.006 0 01-.397-.662.894.894 0 01-.063-.194l-.005-.043c.241-.343.646-.703 1.235-1.076.657-.393 2.057-1.167 4.205-2.324 0 0 0 0 0 0l.736-.393c.181-.082.341-.211.402-.411.061-.2.004-.402-.095-.58-.098-.176-.231-.327-.414-.397a.682.682 0 00-.561.047h0l-.006.003-.744.397s0 0 0 0c-1.918 1.018-3.303 1.778-4.146 2.277 1.131-2.334 2.542-5.03 4.234-8.088h0a150.886 150.886 0 013.765-6.49l.001-.002c1.223-2.016 2.213-3.582 2.97-4.702.395-.577.722-1.025.981-1.35.234-.291.396-.46.494-.536a.753.753 0 00.418-.2.67.67 0 00.185-.486c0-.22-.056-.432-.21-.586-.154-.155-.366-.21-.586-.21a.828.828 0 00-.399.121 2.325 2.325 0 00-.401.3c-.28.252-.609.621-.985 1.101-.753.962-1.718 2.398-2.893 4.302a179.324 179.324 0 00-6.907 12.173v.002c-2.215 4.33-3.582 7.326-4.085 8.972h-.001c-.185.607-.273 1.125-.246 1.54.029.422.179.77.499.976l.012.007.012.006c.11.056.234.076.36.076.259 0 .49-.09.646-.298l.009-.013.008-.013a.757.757 0 00.105-.497.773.773 0 00-.181-.38 1.36 1.36 0 01.016-.209c.021-.14.061-.316.121-.534.088-.318.218-.71.39-1.181.409.752.979 1.427 1.703 2.026.787.65 1.621 1.022 2.501 1.097.15.035.313.052.487.052 1.221 0 2.638-.487 4.244-1.423h0l.003-.002c1.602-.968 4.06-2.763 7.367-5.375.162-.122.289-.282.318-.485.03-.205-.049-.395-.171-.558-.122-.163-.283-.291-.487-.32-.205-.03-.395.049-.558.17zm-16.918 5.41h0z" fill="#fff" stroke="#fff" stroke-width=".5"/><path d="M285.557 28.629l-.007.004-.007.004c-2.607 1.683-4.963 3.034-7.068 4.054-1.037.493-1.895.852-2.576 1.08-.69.23-1.168.313-1.46.285h-.024a.47.47 0 01-.16-.022.084.084 0 01-.024-.012l-.004-.003c-.019-.033-.045-.116-.045-.281 0-.165.025-.384.081-.66.113-.554.339-1.305.685-2.26l.001-.001c.162-.456.278-.786.345-.988.103-.242.189-.5.257-.772h0l.002-.007c.068-.306.093-.577.051-.794-.038-.223-.117-.423-.26-.57-.257-.296-.603-.418-1.003-.378h0l-.014.002c-.317.05-.726.242-1.211.54-.494.302-1.092.732-1.795 1.285-1.174.924-2.65 2.202-4.426 3.833a187.67 187.67 0 012.378-4.244h0l.002-.003c.102-.183.154-.385.096-.587-.057-.203-.209-.347-.391-.448-.183-.101-.385-.154-.587-.096-.202.057-.346.209-.448.39a354.38 354.38 0 00-2.134 3.823 47.246 47.246 0 00-1.246 2.393c-.264.528-.439.975-.514 1.335-.049.15-.085.282-.104.395a.797.797 0 00-.001.304c.012.138.085.25.171.336a.783.783 0 00.573.222.78.78 0 00.425-.133 3.27 3.27 0 00.43-.322l.009-.007.008-.008c.195-.196.589-.573 1.185-1.136 2.082-1.95 3.765-3.455 5.049-4.517.642-.531 1.182-.95 1.621-1.256.205-.143.385-.26.54-.352-.087.303-.226.715-.421 1.24-.165.431-.284.77-.353 1.012-.065.227-.163.537-.295.933l-.003.009-.002.009c-.1.4-.169.724-.204.968l-.002.017v.018c0 .244.017.502.051.776.036.287.109.547.223.775l.006.012.007.01c.281.442.737.686 1.321.76h.013c.512.037 1.176-.086 1.981-.346.808-.261 1.779-.667 2.91-1.216h0l.002-.001c2.257-1.129 4.645-2.505 7.163-4.128.174-.098.328-.24.375-.443.047-.203-.03-.394-.145-.552-.101-.176-.243-.321-.44-.378-.202-.057-.404-.005-.587.097z" fill="#fff" stroke="#fff" stroke-width=".5"/><path d="M268.186 30.001l.008-.005.008-.006c.163-.122.291-.283.32-.487.029-.199-.044-.384-.161-.544-.098-.171-.238-.321-.439-.368-.206-.047-.398.032-.557.15-2.673 1.682-4.829 2.932-6.471 3.753a34.579 34.579 0 01-4.926 2.02h0c-.913.293-1.643.411-2.202.373-.55-.038-.914-.225-1.141-.529-.212-.308-.262-.771-.069-1.44h.036l.02-.004c1.782-.3 3.148-.732 4.073-1.312.934-.585 1.445-1.337 1.445-2.259 0-.485-.151-.921-.452-1.297-.286-.358-.613-.6-.984-.683h0l-.012-.003c-1.5-.256-2.889.62-4.165 2.433-.821 1.122-1.338 2.138-1.53 3.046-.194.917-.056 1.727.438 2.406.263.375.635.65 1.102.83.435.181.948.267 1.532.267.726 0 1.512-.139 2.358-.409a35.267 35.267 0 005.146-2.048h0l.003-.002c1.697-.865 3.904-2.16 6.62-3.882zm-11.747-.212l-.013.018-.01.02c-.038.076-.13.18-.312.3-.19.128-.43.272-.722.434a6.382 6.382 0 01-1.044.378c-.304.087-.631.174-.979.261.106-.181.226-.372.359-.572.915-1.24 1.742-1.779 2.475-1.779.073 0 .115.013.136.023l.053.027h.043l.005.004c.02.017.053.053.094.123l.007.01.008.01a.475.475 0 01.099.297c0 .066-.01.133-.031.201a2.318 2.318 0 01-.168.245z" fill="#fff" stroke="#fff" stroke-width=".5"/><path d="M253.274 28.629h0l-.011.006c-.543.34-1.895 1.359-4.04 3.042-2.661 2.083-4.848 3.704-6.561 4.865-1.721 1.167-2.943 1.854-3.682 2.09-.665.211-1.192.301-1.589.286-.394-.015-.631-.13-.769-.303-.189-.24-.264-.58-.173-1.063.091-.488.348-1.096.787-1.828l.001-.001c.426-.72.984-1.575 1.677-2.564h0l.003-.005c.46-.69.768-1.2.911-1.52.181-.364.25-.722.165-1.061l-.004-.017-.006-.015c-.17-.426-.547-.697-1.057-.843h-.001a10.063 10.063 0 01-1.67-.61c.487-.459.855-.884 1.096-1.276.281-.456.41-.902.302-1.31h0l-.001-.003c-.128-.47-.477-.757-.979-.872-.521-.12-1.119.047-1.769.424h0l-.005.003c-.64.39-1.054.905-1.205 1.545-.156.663.07 1.32.598 1.954h-.001l.005.005c.538.61 1.597 1.13 3.113 1.589a8.002 8.002 0 01-.111.186c-.145.233-.357.547-.637.942h0l-.003.005a114.91 114.91 0 00-1.74 2.635h0l-.004.007c-1.135 1.903-1.376 3.477-.477 4.6h0l.001.002c.488.6 1.195.886 2.08.886.563 0 1.218-.122 1.96-.358.797-.243 1.879-.822 3.239-1.717a96.943 96.943 0 003.482-2.388h0l.004-.004c.962-.729 2.27-1.756 3.924-3.079 2.121-1.657 3.432-2.639 3.947-2.961.165-.103.302-.246.347-.441.044-.193-.014-.38-.115-.543-.101-.18-.245-.33-.445-.387-.202-.057-.404-.005-.587.097zm-16.465-1.286a8.837 8.837 0 01-.644.65l.002-.01.005-.014.003-.015c.018-.087.086-.206.263-.354l.008-.007.008-.008a1.45 1.45 0 01.403-.298 1.944 1.944 0 01-.048.056z" fill="#fff" stroke="#fff" stroke-width=".5"/><mask id="path-14-outside-3_24_2052" maskUnits="userSpaceOnUse" x="214.078" y="26.359" width="23" height="11" fill="#000"><path fill="#fff" d="M214.078 26.359h23v11h-23z"/><path d="M235.674 28.698c.297-.198.529-.148.694.15.199.297.166.529-.099.694-6.913 4.499-11.594 6.748-14.042 6.748-.728 0-1.29-.198-1.687-.595-.926-.927-.728-2.73.596-5.409a10.19 10.19 0 01-.447.397c-1.687 1.522-2.812 2.514-3.374 2.977-.562.463-.976.712-1.24.745h-.1c-.463 0-.744-.232-.843-.695-.199-.728.149-1.836 1.042-3.325.893-1.488 1.786-2.398 2.679-2.729.893-.363 1.588-.082 2.084.844.166.298.099.53-.198.695-.298.132-.53.05-.695-.248-.232-.397-.529-.513-.893-.348-.629.298-1.29 1.026-1.985 2.183-.728 1.158-1.091 2.002-1.091 2.531.363-.199 1.687-1.323 3.969-3.374a493.006 493.006 0 012.729-2.481c.033-.033.066-.05.099-.05.033-.033.066-.05.099-.05h.149c.033 0 .066.017.1.05h.148c0 .034.017.05.05.05l.05.05v.05h.049v.099c.033.033.05.066.05.099.033 0 .05.016.05.05v.099c0 .033-.017.066-.05.099 0 .033-.017.066-.05.099v.05a23.165 23.165 0 00-2.133 4.118c-.53 1.39-.579 2.299-.149 2.729.165.132.38.231.645.298.264.033.744-.017 1.439-.15.728-.165 1.571-.446 2.53-.843.993-.43 2.332-1.124 4.019-2.084 1.721-.959 3.656-2.133 5.806-3.522z"/></mask><path d="M235.674 28.698c.297-.198.529-.148.694.15.199.297.166.529-.099.694-6.913 4.499-11.594 6.748-14.042 6.748-.728 0-1.29-.198-1.687-.595-.926-.927-.728-2.73.596-5.409a10.19 10.19 0 01-.447.397c-1.687 1.522-2.812 2.514-3.374 2.977-.562.463-.976.712-1.24.745h-.1c-.463 0-.744-.232-.843-.695-.199-.728.149-1.836 1.042-3.325.893-1.488 1.786-2.398 2.679-2.729.893-.363 1.588-.082 2.084.844.166.298.099.53-.198.695-.298.132-.53.05-.695-.248-.232-.397-.529-.513-.893-.348-.629.298-1.29 1.026-1.985 2.183-.728 1.158-1.091 2.002-1.091 2.531.363-.199 1.687-1.323 3.969-3.374a493.006 493.006 0 012.729-2.481c.033-.033.066-.05.099-.05.033-.033.066-.05.099-.05h.149c.033 0 .066.017.1.05h.148c0 .034.017.05.05.05l.05.05v.05h.049v.099c.033.033.05.066.05.099.033 0 .05.016.05.05v.099c0 .033-.017.066-.05.099 0 .033-.017.066-.05.099v.05a23.165 23.165 0 00-2.133 4.118c-.53 1.39-.579 2.299-.149 2.729.165.132.38.231.645.298.264.033.744-.017 1.439-.15.728-.165 1.571-.446 2.53-.843.993-.43 2.332-1.124 4.019-2.084 1.721-.959 3.656-2.133 5.806-3.522z" fill="#fff"/><path d="M235.674 28.698l.271.42.006-.003-.277-.416zm.694.15l-.437.242.01.018.011.017.416-.278zm-.099.694l-.265-.424-.008.005.273.419zm-15.729 6.153l.354-.354-.354.354zm.596-5.409l.448.222-.802-.575.354.353zm-.447.397l-.325-.38-.01.009.335.371zm-3.374 2.977l.318.386-.318-.386zm-1.24.745v.5h.031l.031-.004-.062-.496zm-.943-.695l.489-.105-.003-.013-.004-.014-.482.132zm1.042-3.325l-.429-.257.429.258zm2.679-2.729l.174.47.007-.003.008-.004-.189-.462zm2.084.844l-.441.236.004.007.437-.243zm-.198.695l.203.457.02-.01.019-.01-.242-.437zm-.695-.248l.437-.243-.005-.01-.432.253zm-.893-.348l-.207-.455-.007.003.214.452zm-1.985 2.183l.424.267.005-.01-.429-.257zm-1.091 2.531h-.5v.842l.739-.403-.239-.439zm3.969-3.374l.334.372.003-.003-.337-.37zm2.729-2.481l.334.372.01-.01.01-.008-.354-.354zm.099-.05v.5h.207l.147-.146-.354-.354zm.348 0l-.354.354.146.146h.208v-.5zm.148 0h.5v-.5h-.5v.5zm.05.05l.354-.354-.147-.146h-.207v.5zm.05.05h.5V27.3l-.147-.147-.353.354zm0 .05h-.5v.5h.5v-.5zm.049 0h.5v-.5h-.5v.5zm0 .099h-.5v.207l.147.146.353-.354zm.05.099h-.5v.5h.5v-.5zm0 .248l-.354-.354-.146.147v.207h.5zm-.05.099l-.353-.354-.147.147v.207h.5zm0 .05l.419.272.081-.124v-.148h-.5zm-2.133 4.118l-.465-.184-.003.006.468.178zM221.235 35l-.354.353.02.02.021.017.313-.39zm.645.298l-.121.485.029.007.03.004.062-.496zm1.439-.15l.093.492.009-.002.009-.002-.111-.487zm2.53-.843l.192.462.007-.003-.199-.459zm4.019-2.084l-.243-.436-.004.002.247.434zm6.083-3.106a.422.422 0 01.069-.038.155.155 0 01-.054-.002.167.167 0 01-.042-.014.076.076 0 01-.021-.014c-.003-.002-.001-.001.005.006a.378.378 0 01.023.037l.875-.485c-.122-.219-.321-.44-.631-.507-.302-.065-.574.048-.779.184l.555.832zm.001.01a.349.349 0 01.045.082c.002.008-.004-.005 0-.034a.147.147 0 01.012-.04.13.13 0 01.015-.027c.008-.011.007-.005-.02.012l.53.848c.213-.133.41-.345.453-.651.042-.288-.07-.546-.203-.745l-.832.555zm.044-.002c-3.447 2.243-6.326 3.918-8.639 5.03-2.332 1.12-4.027 1.637-5.13 1.637v1c1.345 0 3.215-.608 5.563-1.736 2.368-1.138 5.286-2.838 8.752-5.093l-.546-.838zm-13.769 6.667c-.636 0-1.056-.171-1.333-.449l-.707.707c.516.516 1.221.742 2.04.742v-1zm-1.333-.449c-.319-.319-.492-.827-.403-1.638.09-.818.443-1.879 1.093-3.195l-.897-.443c-.673 1.362-1.081 2.543-1.19 3.528-.109.991.082 1.848.69 2.455l.707-.707zm-.112-5.408c-.05.05-.183.17-.418.37l.65.76a9.77 9.77 0 00.475-.423l-.707-.707zm-.428.379c-1.689 1.523-2.805 2.508-3.357 2.962l.636.772c.572-.471 1.706-1.471 3.391-2.991l-.67-.743zm-3.357 2.962a5.815 5.815 0 01-.671.49c-.188.113-.285.14-.313.144l.124.993c.236-.03.477-.143.703-.279.236-.141.501-.336.793-.576l-.636-.772zm-.922.63h-.1v1h.1v-1zm-.1 0c-.147 0-.211-.035-.24-.06-.03-.024-.081-.084-.114-.239l-.978.21c.066.308.205.595.456.802.252.208.561.288.876.288v-1zm-.361-.326c-.064-.234-.053-.587.107-1.096.157-.502.446-1.114.881-1.84l-.857-.514c-.458.764-.789 1.45-.979 2.056-.188.6-.251 1.164-.117 1.658l.965-.264zm.988-2.935c.878-1.462 1.696-2.248 2.425-2.518l-.348-.937c-1.057.391-2.025 1.425-2.934 2.94l.857.515zm2.44-2.524c.362-.147.62-.14.814-.061.203.082.426.277.64.678l.882-.472c-.282-.525-.654-.934-1.146-1.133-.5-.202-1.036-.154-1.568.062l.378.926zm1.458.624a.305.305 0 01.026.06v-.013a.09.09 0 01.005-.03.094.094 0 01.012-.03.052.052 0 01.007-.01s-.004.005-.013.011a.377.377 0 01-.041.027l.485.874c.217-.12.429-.31.511-.598.083-.288.002-.56-.118-.777l-.874.486zm.036-.005a.194.194 0 01-.055.018h.009c.006 0 .013.002.02.005.016.006.021.012.016.008a.304.304 0 01-.045-.065l-.874.485c.119.215.299.418.567.514.271.097.541.05.768-.051l-.406-.914zm-.06-.043c-.149-.255-.356-.486-.648-.599-.304-.118-.612-.076-.884.048l.414.91a.276.276 0 01.091-.027c.011-.001.015 0 .017.001.006.002.063.028.146.17l.864-.503zm-1.539-.548c-.769.365-1.494 1.203-2.2 2.378l.858.515c.684-1.14 1.282-1.758 1.77-1.989l-.428-.904zm-2.194 2.37a11.92 11.92 0 00-.855 1.568c-.192.445-.313.863-.313 1.228h1c0-.164.06-.433.232-.832.168-.39.426-.866.782-1.433l-.846-.532zm-.429 3.235c.132-.072.313-.204.522-.368.218-.171.494-.4.828-.682.666-.567 1.572-1.365 2.714-2.391l-.668-.744a139.793 139.793 0 01-2.694 2.373c-.328.279-.594.497-.797.657-.213.167-.334.25-.384.277l.479.878zm4.067-3.444a533.035 533.035 0 012.726-2.478l-.668-.744c-.663.597-1.574 1.425-2.732 2.484l.674.738zm2.746-2.496a.365.365 0 01-.255.096v-1a.643.643 0 00-.453.196l.708.708zm.099-.05a.364.364 0 01-.255.097v-1a.638.638 0 00-.452.196l.707.707zm-.255.097h.1v-1h-.1v1zm.1 0h.049v-1h-.049v1zm.049 0a.361.361 0 01-.254-.097l.707-.707a.639.639 0 00-.453-.196v1zm.1.05h.148v-1h-.148v1zm-.352-.5a.55.55 0 00.159.39.55.55 0 00.391.159v-1c.061 0 .198.016.316.134a.449.449 0 01.134.316h-1zm.55.049l-.354.354h.001s-.001 0 0 0l.003.003.009.009.015.015.01.01.006.006.003.003.002.002h.001v.001l.707-.707a.251.251 0 00-.011-.012l-.011-.01-.015-.015-.003-.003-.002-.003-.004-.003h-.001c0-.001.001 0 0 0v-.001h-.001s.001 0 0 0l-.001-.002-.354.353zm.05.05h-.5v.05h1v-.049h-.5zm0 .55h.049v-1h-.049v1zm.049-.5h-.5v.099h1v-.098h-.5zm-.353.452a.36.36 0 01-.097-.254h1a.643.643 0 00-.196-.453l-.707.707zm.403.246a.449.449 0 01-.316-.134.449.449 0 01-.134-.317h1a.55.55 0 00-.159-.39.55.55 0 00-.391-.16v1zm-.45-.45v.099h1v-.098h-1zm0 .099c0-.147.075-.233.096-.255l.707.707a.639.639 0 00.197-.452h-1zm-.05.099a.36.36 0 01.097-.255l.707.708a.643.643 0 00.196-.453h-1zm.45.099h-.5v.05h1v-.049h-.5zm-.419-.223a23.663 23.663 0 00-2.179 4.207l.93.368a22.666 22.666 0 012.087-4.03l-.838-.545zm-2.182 4.213c-.273.716-.437 1.346-.466 1.875-.028.526.075 1.029.431 1.385l.707-.707c-.073-.073-.16-.24-.139-.623.021-.382.146-.901.402-1.574l-.935-.356zm.006 3.297c.236.189.522.314.837.393l.242-.97a1.18 1.18 0 01-.454-.203l-.625.78zm.896.404c.353.044.906-.023 1.594-.154l-.187-.982c-.701.133-1.107.166-1.283.144l-.124.992zm1.612-.158c.763-.173 1.634-.465 2.611-.869l-.383-.924c-.942.39-1.758.661-2.45.818l.222.975zm2.618-.872c1.017-.44 2.375-1.146 4.068-2.108l-.495-.87c-1.681.957-3.003 1.641-3.97 2.06l.397.918zm4.064-2.106c1.732-.966 3.676-2.146 5.833-3.54l-.543-.84c-2.143 1.386-4.069 2.554-5.777 3.507l.487.873z" fill="#fff" mask="url(#path-14-outside-3_24_2052)"/><mask id="path-16-outside-4_24_2052" maskUnits="userSpaceOnUse" x="196.323" y="26.259" width="23" height="11" fill="#000"><path fill="#fff" d="M196.323 26.259h23v11h-23z"/><path d="M217.576 28.649c.298-.133.513-.033.645.297.132.298.033.513-.298.646-4.598 1.885-7.972 2.828-10.122 2.828-1.158.033-1.985-.248-2.481-.844-.43-.529-.529-1.24-.297-2.133-.761.727-1.902 1.984-3.424 3.77a71.202 71.202 0 01-1.985 2.283c-.43.43-.794.711-1.091.844a.538.538 0 01-.298.099c-.331 0-.562-.166-.695-.496-.331-.662-.264-2.117.199-4.367.43-2.282.909-3.572 1.439-3.87.264-.132.479-.066.645.199.165.297.115.529-.149.694-.265.298-.579 1.34-.943 3.126-.364 1.753-.48 2.944-.347 3.573.331-.298 1.157-1.208 2.481-2.73 2.381-2.844 4.118-4.58 5.21-5.21l.049-.049h.05c.033-.033.066-.05.099-.05h.199c0 .034.033.05.099.05v.05h.049l.05.099.099.05v.05l.05.049v.298l-.05.099v.05a6.33 6.33 0 00-.496.843 6.092 6.092 0 00-.347 1.091c-.066.43 0 .745.198.943.133.133.298.248.496.348.199.099.579.148 1.142.148.562 0 1.224-.066 1.984-.198.794-.132 1.869-.413 3.226-.843a91.155 91.155 0 004.614-1.737z"/></mask><path d="M217.576 28.649c.298-.133.513-.033.645.297.132.298.033.513-.298.646-4.598 1.885-7.972 2.828-10.122 2.828-1.158.033-1.985-.248-2.481-.844-.43-.529-.529-1.24-.297-2.133-.761.727-1.902 1.984-3.424 3.77a71.202 71.202 0 01-1.985 2.283c-.43.43-.794.711-1.091.844a.538.538 0 01-.298.099c-.331 0-.562-.166-.695-.496-.331-.662-.264-2.117.199-4.367.43-2.282.909-3.572 1.439-3.87.264-.132.479-.066.645.199.165.297.115.529-.149.694-.265.298-.579 1.34-.943 3.126-.364 1.753-.48 2.944-.347 3.573.331-.298 1.157-1.208 2.481-2.73 2.381-2.844 4.118-4.58 5.21-5.21l.049-.049h.05c.033-.033.066-.05.099-.05h.199c0 .034.033.05.099.05v.05h.049l.05.099.099.05v.05l.05.049v.298l-.05.099v.05a6.33 6.33 0 00-.496.843 6.092 6.092 0 00-.347 1.091c-.066.43 0 .745.198.943.133.133.298.248.496.348.199.099.579.148 1.142.148.562 0 1.224-.066 1.984-.198.794-.132 1.869-.413 3.226-.843a91.155 91.155 0 004.614-1.737z" fill="#fff"/><path d="M217.576 28.649l.187.463.008-.003.008-.003-.203-.457zm.645.297l-.464.186.003.009.004.009.457-.203zm-.298.646l-.185-.465-.004.002.189.463zm-10.122 2.828v-.5h-.014l.014.5zm-2.481-.844l-.388.316.004.004.384-.32zm-.297-2.133l.484.125.441-1.702-1.271 1.215.346.362zm-3.424 3.77l-.381-.324-.001.002.382.323zm-1.985 2.283l.354.354.006-.007.007-.007-.367-.34zm-1.091.844l-.203-.457-.039.017-.036.024.278.416zm-.993-.397l.464-.186-.007-.02-.01-.018-.447.224zm.199-4.367l.49.101.001-.008-.491-.093zm1.439-3.87l-.224-.447-.011.005-.01.006.245.436zm.645.199l.437-.243-.007-.011-.006-.011-.424.265zm-.149.694l-.265-.424-.061.038-.048.054.374.332zm-.943 3.126l.49.102v-.002l-.49-.1zm-.347 3.573l-.49.103.179.849.645-.58-.334-.372zm2.481-2.73l.377.329.006-.007-.383-.321zm5.21-5.21l.249.434.057-.033.047-.047-.353-.353zm.049-.049v-.5h-.207l-.146.147.353.353zm.05 0v.5h.207l.146-.146-.353-.354zm.298-.05h.5v-.5h-.5v.5zm.099.05h.5v-.5h-.5v.5zm0 .05h-.5v.5h.5v-.5zm.049 0l.448-.224-.139-.276h-.309v.5zm.05.099l-.447.224.074.149.149.074.224-.447zm.099.05h.5v-.31l-.276-.138-.224.448zm0 .05h-.5v.206l.147.147.353-.354zm.05.049h.5V27.4l-.147-.147-.353.354zm0 .298l.447.223.053-.105v-.118h-.5zm-.05.099l-.447-.224-.053.106v.118h.5zm0 .05l.407.29.093-.13v-.16h-.5zm-.496.843l-.447-.224-.005.01-.005.01.457.204zm-.347 1.091l-.487-.112-.005.018-.002.019.494.075zm.198.943l.354-.353-.354.353zm.496.348l.224-.448-.224.448zm3.126-.05l-.082-.493h-.003l.085.493zm3.226-.843l.151.476.01-.003-.161-.474zm4.817-1.28c.034-.016.045-.015.037-.014a.158.158 0 01-.093-.031l-.006-.005.014.022c.008.013.016.03.026.054l.928-.371c-.09-.226-.244-.466-.515-.591-.282-.13-.568-.08-.797.022l.406.914zm-.015.044c.015.034.014.045.014.037a.157.157 0 01.014-.065.135.135 0 01.017-.029l.005-.005c-.003.002-.009.007-.022.014a.467.467 0 01-.054.025l.371.929c.226-.09.466-.245.591-.515.13-.282.08-.569-.022-.797l-.914.406zm-.03-.021c-4.597 1.885-7.89 2.79-9.933 2.79v1c2.258 0 5.712-.979 10.312-2.865l-.379-.925zm-9.947 2.791c-1.083.031-1.726-.235-2.083-.664l-.768.64c.636.763 1.646 1.059 2.88 1.024l-.029-1zm-2.079-.659c-.297-.365-.408-.895-.201-1.693l-.968-.25c-.257.987-.17 1.88.393 2.574l.776-.631zm-1.031-2.18c-.781.747-1.936 2.021-3.459 3.808l.762.649c1.52-1.785 2.647-3.025 3.388-3.734l-.691-.723zm-3.46 3.81a71.978 71.978 0 01-1.969 2.265l.733.68a73.18 73.18 0 002-2.3l-.764-.645zm-1.956 2.252c-.418.417-.729.645-.941.74l.406.914c.383-.17.799-.505 1.242-.947l-.707-.707zm-1.016.78a.125.125 0 01-.029.017l.009-.001v1c.216 0 .41-.074.575-.183l-.555-.832zm-.02.016c-.079 0-.113-.018-.131-.031-.021-.015-.06-.052-.1-.151l-.928.371c.093.232.235.443.447.594.213.152.46.217.712.217v-1zm-.248-.22c-.105-.21-.178-.631-.146-1.341.032-.691.159-1.59.387-2.7l-.979-.203c-.234 1.138-.372 2.093-.407 2.857-.034.745.026 1.384.251 1.834l.894-.447zm.243-4.05c.213-1.13.434-1.991.66-2.598.112-.303.221-.529.322-.687.104-.164.179-.224.211-.242l-.49-.872c-.234.131-.417.344-.565.577a4.727 4.727 0 00-.416.876c-.254.683-.487 1.608-.705 2.76l.983.186zm1.171-3.516c.028-.014.039-.014.034-.014a.13.13 0 01-.045-.005.112.112 0 01-.022-.01l-.007-.003.012.012a.37.37 0 01.026.037l.848-.53a1.03 1.03 0 00-.563-.461.974.974 0 00-.73.08l.447.894zm-.015-.006c.023.043.03.067.032.075v-.002c0-.005 0-.013.003-.023a.123.123 0 01.009-.028.079.079 0 01.01-.017c.003-.004-.003.005-.031.023l.53.848a.967.967 0 00.459-.617c.06-.276-.022-.535-.138-.744l-.874.485zm-.086.12a1.89 1.89 0 00-.293.497 6.585 6.585 0 00-.246.696 25.11 25.11 0 00-.52 2.165l.98.2a24.92 24.92 0 01.497-2.077 5.8 5.8 0 01.207-.588c.066-.152.11-.214.123-.229l-.748-.664zm-1.058 3.357a21.819 21.819 0 00-.368 2.26c-.06.611-.062 1.127.02 1.517l.979-.206c-.05-.239-.06-.633-.004-1.213.056-.572.172-1.288.352-2.155l-.979-.203zm.476 4.045c.359-.323 1.21-1.261 2.524-2.772l-.755-.656c-1.332 1.532-2.135 2.413-2.438 2.685l.669.743zm2.53-2.78c1.186-1.416 2.205-2.549 3.059-3.403.861-.86 1.53-1.414 2.017-1.694l-.499-.867c-.605.349-1.349.978-2.225 1.854-.883.883-1.923 2.04-3.119 3.469l.767.642zm5.18-5.177l.037-.037.01-.01.002-.002h.001l-.354-.354-.353-.353h-.001l-.002.003a1.487 1.487 0 01-.047.046l.707.707zm-.304.097h.05v-1h-.05v1zm.403-.146a.362.362 0 01-.254.096v-1a.642.642 0 00-.453.197l.707.707zm-.254-.404v.5h.099v-1h-.099v.5zm.099.5h.1v-1h-.1v1zm-.4-.5a.536.536 0 00.301.485.67.67 0 00.298.065v-1c.003 0 .017 0 .039.004a.459.459 0 01.362.447h-1zm.599.05h-.5v.05h1v-.048h-.5zm0 .55h.049v-1h-.049v1zm.049-.5l-.447.223.001.002.002.005.01.018.037.075.894-.448-.037-.074a4.762 4.762 0 00-.012-.023v-.001l-.448.223zm-.174.546l.044.022.004.002.005.002.008.004.014.007a.093.093 0 00.011.006l.007.004c.004.001-.002-.002.001 0h.001c.006.003-.005-.002.001.001h.001c.004.002-.003 0 .001.001h.002l.223-.446.224-.448h-.001c-.002 0 .001 0 0 0h-.002c0-.001.001 0 0 0 0-.001 0 0 0 0v-.001h-.001l-.002-.002h-.002l-.002-.001-.004-.003-.011-.005-.014-.007a.096.096 0 00-.008-.004l-.009-.005-.01-.004c-.024-.012.014.007-.01-.006h-.002l-.001-.001c-.026-.013.023.012-.003-.001-.007-.004.005.002-.002-.002l-.003-.001-.012-.006-.448.894zm.323-.397h-.5v.05h1v-.049h-.5zm-.353.403l.011.011.01.01.016.016.009.01h.001c.001.001-.001 0 0 0h.001l.001.002.354-.353.353-.354s.001 0 0 0 .001 0 0 0l-.003-.003-.001-.002h-.001l-.001-.001h-.001l-.002-.003-.003-.003-.015-.016-.011-.01-.005-.005-.003-.003-.002-.002h-.001v-.001l-.707.707zm-.097-.304v.1h1v-.099h-1zm.5.1h-.5v.099h1v-.098h-.5zm-.5.098v.1h1v-.098h-1zm.5.1l-.447-.224h-.001v.002l-.002.004a.14.14 0 00-.01.019l-.037.074.894.447.038-.074.009-.019.002-.004.001-.001-.447-.224zm-.55.099v.05h1v-.049h-1zm.093-.241a6.874 6.874 0 00-.536.91l.894.448a5.89 5.89 0 01.456-.777l-.814-.581zm-.546.93a6.562 6.562 0 00-.377 1.183l.974.225c.094-.41.201-.74.317-1.001l-.914-.406zm-.384 1.22c-.077.498-.024 1.01.339 1.372l.707-.707c-.035-.035-.114-.152-.058-.513l-.988-.152zm.339 1.372c.176.177.388.322.626.44l.447-.894a1.394 1.394 0 01-.366-.253l-.707.707zm.626.44c.172.087.382.133.593.161.219.029.478.041.772.041v-1c-.269 0-.481-.011-.643-.033a.994.994 0 01-.275-.063l-.447.895zm1.365.202c.599 0 1.291-.07 2.07-.205l-.171-.986a11.22 11.22 0 01-1.899.191v1zm2.067-.205c.828-.138 1.929-.427 3.294-.86l-.303-.953c-1.348.427-2.396.7-3.156.827l.165.986zm3.304-.863a91.608 91.608 0 004.64-1.747l-.374-.927a90.793 90.793 0 01-4.589 1.727l.323.947z" fill="#fff" mask="url(#path-16-outside-4_24_2052)"/><path d="M198.035 28.629h0l-.011.006c-.543.34-1.895 1.359-4.041 3.042-2.66 2.083-4.847 3.704-6.56 4.865-1.722 1.167-2.943 1.854-3.682 2.09-.665.211-1.192.301-1.589.286-.394-.015-.631-.13-.769-.303-.189-.24-.264-.58-.173-1.063.091-.488.347-1.096.787-1.828l.001-.001c.425-.72.984-1.575 1.676-2.564h0l.004-.005c.46-.69.768-1.2.911-1.52.18-.364.25-.722.165-1.061l-.004-.017-.006-.015c-.171-.426-.548-.697-1.057-.843h-.001a10.063 10.063 0 01-1.67-.61c.487-.459.855-.884 1.096-1.276.281-.456.409-.902.302-1.31h0l-.001-.003c-.128-.47-.478-.757-.979-.872-.521-.12-1.119.047-1.769.424h0l-.005.003c-.64.39-1.054.905-1.205 1.545-.156.663.069 1.32.597 1.954h0l.005.005c.537.61 1.597 1.13 3.113 1.589a8.002 8.002 0 01-.111.186c-.145.233-.357.547-.637.942h0l-.003.005a115.348 115.348 0 00-1.741 2.635h0l-.003.007c-1.136 1.903-1.376 3.477-.477 4.6h0l.001.002c.488.6 1.195.886 2.08.886.563 0 1.218-.122 1.96-.358.796-.243 1.879-.822 3.238-1.717a96.179 96.179 0 003.483-2.388h0l.004-.004c.962-.729 2.27-1.756 3.924-3.079 2.121-1.657 3.431-2.639 3.947-2.961.165-.103.302-.246.347-.441.044-.193-.014-.38-.115-.543-.102-.18-.245-.33-.445-.387-.202-.057-.404-.005-.587.097zm-16.465-1.286a8.876 8.876 0 01-.645.65l.003-.01.005-.014.003-.015c.017-.087.085-.206.262-.354l.009-.007.008-.008a1.45 1.45 0 01.403-.298l-.048.056z" fill="#fff" stroke="#fff" stroke-width=".5"/><mask id="path-19-outside-5_24_2052" maskUnits="userSpaceOnUse" x="158.839" y="26.359" width="23" height="11" fill="#000"><path fill="#fff" d="M158.839 26.359h23v11h-23z"/><path d="M180.435 28.698c.297-.198.529-.148.694.15.199.297.166.529-.099.694-6.913 4.499-11.594 6.748-14.042 6.748-.728 0-1.29-.198-1.687-.595-.926-.927-.728-2.73.596-5.409a10.19 10.19 0 01-.447.397c-1.687 1.522-2.812 2.514-3.374 2.977-.562.463-.976.712-1.24.745h-.1c-.463 0-.744-.232-.843-.695-.199-.728.149-1.836 1.042-3.325.893-1.488 1.786-2.398 2.679-2.729.893-.363 1.588-.082 2.084.844.165.298.099.53-.198.695-.298.132-.53.05-.695-.248-.232-.397-.529-.513-.893-.348-.629.298-1.29 1.026-1.985 2.183-.728 1.158-1.091 2.002-1.091 2.531.363-.199 1.687-1.323 3.969-3.374a493.006 493.006 0 012.729-2.481c.033-.033.066-.05.099-.05.033-.033.066-.05.099-.05h.149c.033 0 .066.017.1.05h.148c0 .034.017.05.05.05l.05.05v.05h.049v.099c.033.033.05.066.05.099.033 0 .049.016.049.05v.099c0 .033-.016.066-.049.099 0 .033-.017.066-.05.099v.05a23.165 23.165 0 00-2.133 4.118c-.53 1.39-.579 2.299-.149 2.729.165.132.38.231.645.298.264.033.744-.017 1.439-.15.728-.165 1.571-.446 2.53-.843.993-.43 2.332-1.124 4.019-2.084 1.721-.959 3.656-2.133 5.806-3.522z"/></mask><path d="M180.435 28.698c.297-.198.529-.148.694.15.199.297.166.529-.099.694-6.913 4.499-11.594 6.748-14.042 6.748-.728 0-1.29-.198-1.687-.595-.926-.927-.728-2.73.596-5.409a10.19 10.19 0 01-.447.397c-1.687 1.522-2.812 2.514-3.374 2.977-.562.463-.976.712-1.24.745h-.1c-.463 0-.744-.232-.843-.695-.199-.728.149-1.836 1.042-3.325.893-1.488 1.786-2.398 2.679-2.729.893-.363 1.588-.082 2.084.844.165.298.099.53-.198.695-.298.132-.53.05-.695-.248-.232-.397-.529-.513-.893-.348-.629.298-1.29 1.026-1.985 2.183-.728 1.158-1.091 2.002-1.091 2.531.363-.199 1.687-1.323 3.969-3.374a493.006 493.006 0 012.729-2.481c.033-.033.066-.05.099-.05.033-.033.066-.05.099-.05h.149c.033 0 .066.017.1.05h.148c0 .034.017.05.05.05l.05.05v.05h.049v.099c.033.033.05.066.05.099.033 0 .049.016.049.05v.099c0 .033-.016.066-.049.099 0 .033-.017.066-.05.099v.05a23.165 23.165 0 00-2.133 4.118c-.53 1.39-.579 2.299-.149 2.729.165.132.38.231.645.298.264.033.744-.017 1.439-.15.728-.165 1.571-.446 2.53-.843.993-.43 2.332-1.124 4.019-2.084 1.721-.959 3.656-2.133 5.806-3.522z" fill="#fff"/><path d="M180.435 28.698l.271.42.006-.003-.277-.416zm.694.15l-.437.242.01.018.011.017.416-.278zm-.099.694l-.265-.424-.008.005.273.419zm-15.729 6.153l.354-.354-.354.354zm.596-5.409l.448.222-.802-.575.354.353zm-.447.397l-.325-.38-.01.009.335.371zm-3.374 2.977l.318.386-.318-.386zm-1.24.745v.5h.031l.031-.004-.062-.496zm-.943-.695l.489-.105-.003-.013-.004-.014-.482.132zm1.042-3.325l-.429-.257.429.258zm2.679-2.729l.174.47.007-.003.008-.004-.189-.462zm2.084.844l-.441.236.004.007.437-.243zm-.198.695l.203.457.02-.01.019-.01-.242-.437zm-.695-.248l.437-.243-.005-.01-.432.253zm-.893-.348l-.207-.455-.007.003.214.452zm-1.985 2.183l.424.267.005-.01-.429-.257zm-1.091 2.531h-.5v.842l.739-.403-.239-.439zm3.969-3.374l.334.372.003-.003-.337-.37zm2.729-2.481l.334.372.01-.01.01-.008-.354-.354zm.099-.05v.5h.207l.147-.146-.354-.354zm.348 0l-.354.354.146.146h.208v-.5zm.148 0h.5v-.5h-.5v.5zm.05.05l.354-.354-.147-.146h-.207v.5zm.05.05h.5V27.3l-.147-.147-.353.354zm0 .05h-.5v.5h.5v-.5zm.049 0h.5v-.5h-.5v.5zm0 .099h-.5v.207l.147.146.353-.354zm.05.099h-.5v.5h.5v-.5zm0 .248l-.354-.354-.146.147v.207h.5zm-.05.099l-.353-.354-.147.147v.207h.5zm0 .05l.419.272.081-.124v-.148h-.5zm-2.133 4.118l-.465-.184-.003.006.468.178zM165.996 35l-.354.353.02.02.021.017.313-.39zm.645.298l-.121.485.029.007.03.004.062-.496zm1.439-.15l.093.492.009-.002.009-.002-.111-.487zm2.53-.843l.192.462.007-.003-.199-.459zm4.019-2.084l-.243-.436-.004.002.247.434zm6.083-3.106a.422.422 0 01.069-.038.155.155 0 01-.054-.002.167.167 0 01-.042-.014.076.076 0 01-.021-.014c-.003-.002-.001-.001.004.006a.234.234 0 01.024.037l.874-.485c-.121-.219-.32-.44-.63-.507-.302-.065-.574.048-.779.184l.555.832zm.001.01a.349.349 0 01.045.082c.002.008-.004-.005 0-.034a.147.147 0 01.012-.04.13.13 0 01.015-.027c.008-.011.007-.005-.02.012l.53.848c.213-.133.41-.345.453-.651.042-.288-.07-.546-.203-.745l-.832.555zm.044-.002c-3.447 2.243-6.326 3.918-8.639 5.03-2.332 1.12-4.027 1.637-5.13 1.637v1c1.345 0 3.215-.608 5.563-1.736 2.368-1.138 5.286-2.838 8.752-5.093l-.546-.838zm-13.769 6.667c-.636 0-1.056-.171-1.333-.449l-.707.707c.516.516 1.221.742 2.04.742v-1zm-1.333-.449c-.319-.319-.492-.827-.403-1.638.09-.818.443-1.879 1.093-3.195l-.897-.443c-.673 1.362-1.081 2.543-1.19 3.528-.109.991.082 1.848.69 2.455l.707-.707zm-.112-5.408c-.05.05-.183.17-.418.37l.65.76a9.77 9.77 0 00.475-.423l-.707-.707zm-.428.379c-1.689 1.523-2.805 2.508-3.357 2.962l.636.772c.572-.471 1.706-1.471 3.391-2.991l-.67-.743zm-3.357 2.962a5.815 5.815 0 01-.671.49c-.188.113-.285.14-.314.144l.125.993c.236-.03.477-.143.703-.279.236-.141.501-.336.793-.576l-.636-.772zm-.922.63h-.1v1h.1v-1zm-.1 0c-.147 0-.211-.035-.24-.06-.03-.024-.081-.084-.114-.239l-.978.21c.066.308.205.595.456.802.252.208.561.288.876.288v-1zm-.361-.326c-.064-.234-.053-.587.107-1.096.157-.502.446-1.114.881-1.84l-.857-.514c-.458.764-.789 1.45-.979 2.056-.188.6-.251 1.164-.117 1.658l.965-.264zm.988-2.935c.878-1.462 1.696-2.248 2.425-2.518l-.348-.937c-1.057.391-2.025 1.425-2.934 2.94l.857.515zm2.44-2.524c.362-.147.62-.14.814-.061.203.082.426.277.64.678l.882-.472c-.282-.525-.654-.934-1.146-1.133-.5-.202-1.036-.154-1.568.062l.378.926zm1.458.624a.305.305 0 01.026.06v-.013a.09.09 0 01.005-.03.094.094 0 01.012-.03.052.052 0 01.007-.01s-.004.005-.013.011a.377.377 0 01-.041.027l.485.874c.217-.12.429-.31.511-.598.083-.288.002-.56-.118-.777l-.874.486zm.036-.005a.194.194 0 01-.055.018h.009c.006 0 .013.002.02.005.016.006.021.012.016.008a.304.304 0 01-.045-.065l-.874.485c.119.215.299.418.567.514.271.097.541.05.768-.051l-.406-.914zm-.06-.043c-.149-.255-.356-.486-.648-.599-.304-.118-.612-.076-.884.048l.414.91a.276.276 0 01.091-.027c.011-.001.015 0 .017.001.006.002.063.028.146.17l.864-.503zm-1.539-.548c-.769.365-1.494 1.203-2.2 2.378l.858.515c.684-1.14 1.282-1.758 1.77-1.989l-.428-.904zm-2.194 2.37a11.92 11.92 0 00-.855 1.568c-.192.445-.313.863-.313 1.228h1c0-.164.06-.433.232-.832.168-.39.426-.866.782-1.433l-.846-.532zm-.429 3.235c.132-.072.313-.204.522-.368.218-.171.494-.4.828-.682.666-.567 1.572-1.365 2.714-2.391l-.668-.744a139.793 139.793 0 01-2.694 2.373c-.328.279-.594.497-.797.657-.213.167-.334.25-.384.277l.479.878zm4.067-3.444a533.035 533.035 0 012.726-2.478l-.669-.744c-.663.597-1.573 1.425-2.731 2.484l.674.738zm2.746-2.496a.365.365 0 01-.255.096v-1a.643.643 0 00-.453.196l.708.708zm.099-.05a.365.365 0 01-.255.097v-1a.638.638 0 00-.452.196l.707.707zm-.255.097h.1v-1h-.1v1zm.1 0h.049v-1h-.049v1zm.049 0a.361.361 0 01-.254-.097l.707-.707a.639.639 0 00-.453-.196v1zm.1.05h.148v-1h-.148v1zm-.352-.5a.55.55 0 00.159.39.55.55 0 00.391.159v-1c.061 0 .198.016.316.134a.449.449 0 01.134.316h-1zm.55.049l-.354.354h.001l.003.003.009.009.015.015.01.01.006.006.003.003.002.002h.001v.001l.707-.707a.251.251 0 00-.011-.012l-.011-.01-.015-.015-.003-.003-.002-.003-.004-.003h-.001c0-.001.001 0 0 0v-.001h-.001l-.001-.002-.354.353zm.05.05h-.5v.05h1v-.049h-.5zm0 .55h.049v-1h-.049v1zm.049-.5h-.5v.099h1v-.098h-.5zm-.353.452a.36.36 0 01-.097-.254h1a.643.643 0 00-.196-.453l-.707.707zm.403.246a.449.449 0 01-.316-.134.451.451 0 01-.135-.317h1a.548.548 0 00-.158-.39.55.55 0 00-.391-.16v1zm-.451-.45v.099h1v-.098h-1zm0 .099c0-.147.076-.233.097-.255l.707.707a.639.639 0 00.196-.452h-1zm-.049.099a.36.36 0 01.097-.255l.707.708a.643.643 0 00.196-.453h-1zm.45.099h-.5v.05h1v-.049h-.5zm-.419-.223a23.663 23.663 0 00-2.179 4.207l.93.368a22.666 22.666 0 012.087-4.03l-.838-.545zm-2.182 4.213c-.273.716-.437 1.346-.466 1.875-.028.526.075 1.029.431 1.385l.707-.707c-.073-.073-.16-.24-.139-.623.021-.382.146-.901.402-1.574l-.935-.356zm.006 3.297c.236.189.522.314.837.393l.242-.97a1.18 1.18 0 01-.454-.203l-.625.78zm.896.404c.353.044.906-.023 1.594-.154l-.187-.982c-.701.133-1.107.166-1.283.144l-.124.992zm1.612-.158c.763-.173 1.634-.465 2.61-.869l-.382-.924c-.942.39-1.758.661-2.45.818l.222.975zm2.618-.872c1.017-.44 2.375-1.146 4.068-2.108l-.495-.87c-1.681.957-3.003 1.641-3.97 2.06l.397.918zm4.064-2.106c1.732-.966 3.676-2.146 5.833-3.54l-.543-.84c-2.143 1.386-4.069 2.554-5.777 3.507l.487.873z" fill="#fff" mask="url(#path-19-outside-5_24_2052)"/><path d="M183.504.832h0c.184-.081.385-.115.576-.041.188.072.313.227.395.406.098.18.147.38.091.578-.058.202-.21.346-.392.447l-.008.005-.009.004c-1.275.588-2.635 1.375-4.082 2.361h-.001c-1.413.954-2.911 2.106-4.493 3.457a201.476 201.476 0 00-4.509 3.964h-.001c-1.383 1.253-2.984 2.82-4.8 4.702a342.404 342.404 0 00-4.562 4.81l-.002.002c-1.254 1.32-2.823 3.054-4.707 5.203l-.001.001a373.535 373.535 0 00-4.314 4.909l-.002.002a515.345 515.345 0 00-4.216 4.86h0c-4.895 5.69-8.422 9.632-10.579 11.822-1.063 1.096-1.98 1.926-2.749 2.483-.757.55-1.413.867-1.945.867-1.085 0-1.939-.496-2.543-1.456M183.504.832l-52.642 49.252M183.504.832l-.008.004c-1.505.736-3.154 1.753-4.948 3.049a75.04 75.04 0 00-5.027 3.932c-1.594 1.328-3.435 3.02-5.522 5.073a255.93 255.93 0 00-5.314 5.365 306.61 306.61 0 00-5.512 5.959l-.002.001a879.594 879.594 0 00-5.013 5.659l-.002.002a930.657 930.657 0 01-4.861 5.655l-.001.001a364.036 364.036 0 01-4.909 5.653l-.002.002a152.81 152.81 0 01-3.963 4.36h0l-.004.003c-1.52 1.685-2.701 2.883-3.548 3.599a8.25 8.25 0 01-1.07.794c-.298.178-.493.238-.604.238-.493 0-.917-.238-1.278-.777M183.504.832l-26.146 23.55a871.07 871.07 0 00-5.012 5.656 912.582 912.582 0 01-4.862 5.657c-2.15 2.514-3.788 4.4-4.912 5.656a152.864 152.864 0 01-3.97 4.367c-1.522 1.687-2.712 2.894-3.572 3.622-.86.727-1.472 1.091-1.836 1.091-.596 0-1.092-.297-1.489-.893m-1.054.68h-.001l.212-.134m-.211.134s0 0 0 0l.211-.134m-.211.134c-.248-.39-.455-.876-.625-1.453l-.003-.01h.001c-.139-.554-.239-1.451-.305-2.677v-.006h0c-.034-1.207.05-2.61.25-4.206h0c.2-1.57.616-3.63 1.245-6.182l.001-.003c.664-2.554 1.526-5.356 2.586-8.404l.001-.003c1.094-3.05 2.568-6.742 4.421-11.078l.001-.001c1.887-4.37 4.071-9.053 6.553-14.05m-13.915 47.939c-.232-.364-.43-.827-.596-1.39-.132-.529-.231-1.405-.297-2.63-.034-1.19.049-2.58.248-4.167.198-1.555.612-3.606 1.24-6.153.662-2.547 1.522-5.342 2.58-8.385 1.092-3.044 2.564-6.732 4.416-11.065 1.886-4.367 4.069-9.047 6.55-14.042m-.226-.107l-.003.005.229.102m-.226-.107c.082-.182.212-.343.413-.405.196-.06.394-.006.57.09.179.081.334.207.407.394.073.191.039.392-.043.576l-.004.01h0c-2.744 5.52-5.123 10.675-7.138 15.466-1.983 4.792-3.535 8.903-4.657 12.335-1.09 3.4-1.897 6.434-2.424 9.102-.528 2.67-.772 4.767-.74 6.294m13.616-43.862l.002-.004.224.11m0 0c.132-.297.347-.363.645-.198.298.133.38.348.248.645-2.746 5.525-5.127 10.685-7.145 15.481-1.985 4.797-3.539 8.915-4.664 12.355-1.092 3.407-1.902 6.45-2.431 9.13-.53 2.68-.778 4.797-.745 6.351.066 1.588.331 2.762.794 3.523m0 0l.214-.13-.003-.004m-.211.134l-.544-3.53m.755 3.396c-.428-.706-.689-1.827-.755-3.397m.755 3.397l-.755-3.397m52.892-44.003c-1.291.595-2.663 1.39-4.119 2.382l3.672-3.325c.298-.132.513-.05.645.248.165.298.099.53-.198.695z" fill="#fff" stroke="#fff" stroke-width=".5"/><path d="M306.102 57.36c-.546 0-1.019-.077-1.419-.231a1.803 1.803 0 01-.914-.792c-.209-.382-.314-.896-.314-1.542v-7.013h1.255v7.177c0 .391.105.696.314.914.219.21.523.314.914.314h1.283v1.174h-1.119zm-3.902-6.385v-.983h5.021v.983H302.2zm-7.664 6.304v-7.287h1.037v3.125h-.164c0-.719.096-1.324.287-1.815.2-.5.5-.878.901-1.132.4-.264.905-.396 1.514-.396h.055c.918 0 1.596.286 2.033.86.446.573.668 1.4.668 2.483v4.162h-1.309v-4.435c0-.564-.16-1.014-.478-1.35-.318-.346-.755-.52-1.31-.52-.573 0-1.037.178-1.392.533-.355.355-.532.828-.532 1.419v4.353h-1.31zm-3.441 0v-2.184h-.218v-2.524c0-.5-.132-.878-.396-1.132-.255-.255-.632-.383-1.133-.383-.282 0-.573.005-.873.014l-.86.027a13.7 13.7 0 00-.709.041v-1.146c.2-.018.409-.032.627-.04a8.38 8.38 0 01.696-.028c.237-.01.464-.014.683-.014.746 0 1.355.091 1.828.273.473.173.823.46 1.051.86.227.4.341.941.341 1.624v4.612h-1.037zm-2.388.19c-.546 0-1.019-.09-1.419-.272a2.16 2.16 0 01-.914-.819c-.21-.355-.314-.782-.314-1.283 0-.518.114-.95.341-1.296.236-.346.578-.605 1.023-.778.446-.182.983-.273 1.61-.273h1.979v.983h-2.033c-.528 0-.933.127-1.215.382a1.264 1.264 0 00-.423.982c0 .4.141.724.423.97.282.245.687.368 1.215.368.309 0 .605-.055.887-.164.282-.118.514-.31.696-.573.191-.273.295-.646.314-1.12l.354.52c-.045.518-.173.955-.382 1.31a1.97 1.97 0 01-.846.79c-.355.183-.787.274-1.296.274zm-4.964-.109c-.546 0-1.019-.077-1.42-.231a1.807 1.807 0 01-.914-.792c-.209-.382-.314-.896-.314-1.542v-7.013h1.256v7.177c0 .391.104.696.314.914.218.21.523.314.914.314h1.282v1.174h-1.118zm-3.903-6.385v-.983h5.021v.983h-5.021zm-2.758 6.304v-9.961h1.31v9.96h-1.31zm-1.01-8.924v-1.037h2.32v1.037h-2.32zm-5.116 9.142c-.864 0-1.528-.282-1.992-.846-.464-.564-.696-1.378-.696-2.443v-4.23h1.31v4.49c0 .573.155 1.023.464 1.35.309.319.728.478 1.255.478.546 0 .992-.173 1.337-.518.346-.355.519-.837.519-1.447v-4.353h1.31v7.3h-1.037v-3.124h.164c0 .718-.096 1.328-.287 1.828-.191.492-.477.87-.86 1.133-.373.255-.85.382-1.432.382h-.055zm-7.452 0c-.955 0-1.696-.205-2.224-.614-.518-.41-.787-.969-.805-1.678h1.228c.018.282.159.55.423.805.273.245.732.368 1.378.368.582 0 1.028-.114 1.338-.341.309-.237.463-.523.463-.86 0-.3-.113-.532-.341-.696-.227-.172-.596-.286-1.105-.34l-.791-.083c-.692-.072-1.256-.277-1.692-.614-.437-.345-.655-.827-.655-1.446 0-.464.118-.86.354-1.187.237-.337.564-.591.983-.764.418-.182.9-.273 1.446-.273.819 0 1.483.182 1.992.546.51.364.774.905.792 1.623h-1.228c-.009-.29-.146-.536-.41-.736-.254-.21-.636-.314-1.146-.314-.509 0-.896.104-1.16.314a.971.971 0 00-.395.791c0 .273.091.491.273.655.191.164.5.268.928.314l.791.082c.782.081 1.41.3 1.883.655.473.345.709.837.709 1.473 0 .455-.131.86-.395 1.215-.255.345-.61.618-1.065.818-.454.191-.977.287-1.569.287zm-11.116-.218v-7.287h1.037v3.125h-.163c0-.719.095-1.324.286-1.815.2-.5.501-.878.901-1.132.4-.264.905-.396 1.514-.396h.055c.919 0 1.596.286 2.033.86.446.573.669 1.4.669 2.483v4.162h-1.31v-4.435c0-.564-.159-1.014-.478-1.35-.318-.346-.755-.52-1.31-.52-.573 0-1.037.178-1.391.533-.355.355-.533.828-.533 1.419v4.353h-1.31zm-5.864.245c-.637 0-1.196-.109-1.679-.327a3.876 3.876 0 01-1.228-.86 3.935 3.935 0 01-.75-1.214 3.924 3.924 0 01-.246-1.365v-.245c0-.464.087-.92.26-1.365.172-.455.427-.86.764-1.214.336-.364.746-.65 1.228-.86.482-.218 1.032-.328 1.651-.328.618 0 1.169.11 1.651.328.482.21.891.496 1.228.86.337.354.591.76.764 1.214.173.446.259.9.259 1.365v.245c0 .464-.086.919-.259 1.365-.164.445-.414.85-.75 1.214a3.72 3.72 0 01-1.215.86c-.482.218-1.041.327-1.678.327zm0-1.173c.546 0 1.01-.118 1.392-.355.391-.246.686-.573.887-.983.209-.409.313-.868.313-1.378 0-.518-.104-.982-.313-1.391a2.38 2.38 0 00-.901-.97c-.382-.236-.841-.354-1.378-.354-.528 0-.987.118-1.378.355-.391.236-.692.56-.901.969a3.014 3.014 0 00-.314 1.391c0 .51.1.97.3 1.379.21.409.505.736.887.982.392.236.86.355 1.406.355zm-9.687 1.173c-.91 0-1.687-.159-2.333-.477-.637-.319-1.151-.733-1.542-1.242a5.218 5.218 0 01-.86-1.651 5.966 5.966 0 01-.273-1.733v-.3c0-.6.091-1.201.273-1.801.191-.6.482-1.147.874-1.638.391-.491.9-.887 1.528-1.187.627-.3 1.378-.45 2.251-.45.892 0 1.656.154 2.293.464.636.31 1.141.741 1.514 1.296s.601 1.21.682 1.965h-1.364c-.073-.564-.255-1.028-.546-1.392a2.641 2.641 0 00-1.105-.832 3.802 3.802 0 00-1.474-.273c-.591 0-1.11.104-1.555.314-.446.2-.819.486-1.119.86a3.94 3.94 0 00-.669 1.268 5.427 5.427 0 00-.218 1.57c0 .536.073 1.046.218 1.528.155.482.382.91.682 1.282.31.373.692.669 1.147.887.454.21.987.314 1.596.314.855 0 1.574-.214 2.156-.641.582-.428.937-1.046 1.064-1.856h1.365a4.398 4.398 0 01-.696 1.87c-.364.564-.873 1.014-1.528 1.35-.646.337-1.433.505-2.361.505zm-14.073 2.593c-.336 0-.677-.014-1.023-.041-.337-.028-.66-.064-.969-.11v-1.105c.328.046.669.082 1.023.11.364.036.705.054 1.024.054.664 0 1.192-.09 1.583-.273.4-.173.686-.45.859-.832.182-.373.273-.855.273-1.447v-1.391l.437-1.037c-.027.736-.182 1.35-.464 1.842-.282.482-.65.846-1.105 1.091a3.126 3.126 0 01-1.488.355c-.509 0-.978-.095-1.405-.286a3.448 3.448 0 01-1.092-.82 4.005 4.005 0 01-.709-1.186 4.191 4.191 0 01-.246-1.433v-.245c0-.51.087-.983.259-1.42a3.53 3.53 0 01.724-1.16 3.247 3.247 0 011.105-.764 3.687 3.687 0 011.433-.273c.609 0 1.146.132 1.61.396a2.68 2.68 0 011.091 1.133c.273.491.423 1.096.451 1.815l-.382.013v-3.11h1.037v6.426c0 .873-.137 1.578-.41 2.115-.264.546-.691.946-1.282 1.2-.583.255-1.36.383-2.334.383zm.396-3.985c.437 0 .832-.095 1.187-.286.364-.191.65-.464.86-.819.218-.364.327-.796.327-1.296v-.628c0-.491-.114-.905-.341-1.242a2.107 2.107 0 00-.86-.764 2.607 2.607 0 00-1.159-.259c-.473 0-.892.11-1.256.328a2.2 2.2 0 00-.846.928c-.2.39-.3.855-.3 1.391 0 .537.1 1.005.3 1.406.209.4.491.71.846.928.364.209.778.313 1.242.313zm-11.88 1.147v-7.287h1.037v3.125h-.164c0-.719.096-1.324.287-1.815.2-.5.5-.878.9-1.132.401-.264.906-.396 1.515-.396h.055c.918 0 1.596.286 2.033.86.445.573.668 1.4.668 2.483v4.162h-1.31v-4.435c0-.564-.159-1.014-.477-1.35-.319-.346-.755-.52-1.31-.52-.573 0-1.037.178-1.392.533-.355.355-.532.828-.532 1.419v4.353h-1.31zm-3.843 0v-7.287h1.31v7.287h-1.31zm-1.119-6.25v-1.037h2.429v1.037h-2.429zm1.488-2.21c-.291 0-.51-.078-.655-.232a.852.852 0 01-.205-.587c0-.236.068-.432.205-.587.145-.154.364-.232.655-.232.291 0 .505.078.641.232a.82.82 0 01.218.587.82.82 0 01-.218.587c-.136.154-.35.232-.641.232zm-3.695 8.541c-.546 0-1.019-.077-1.419-.231a1.805 1.805 0 01-.915-.792c-.209-.382-.313-.896-.313-1.542v-7.013h1.255v7.177c0 .391.105.696.314.914.218.21.523.314.914.314h1.283v1.174h-1.119zm-3.903-6.385v-.983h5.022v.983h-5.022zm-4.193 6.549c-.636 0-1.187-.109-1.651-.327a3.194 3.194 0 01-1.132-.86 3.824 3.824 0 01-.655-1.214 4.619 4.619 0 01-.205-1.365v-.245c0-.474.068-.933.205-1.379a3.66 3.66 0 01.655-1.2c.291-.364.659-.65 1.105-.86.455-.218.987-.328 1.596-.328.792 0 1.442.173 1.952.519.518.337.9.773 1.146 1.31.255.537.382 1.11.382 1.72v.586h-6.468v-.983h5.513l-.3.533c0-.519-.082-.965-.246-1.337a1.918 1.918 0 00-.737-.888c-.327-.209-.741-.313-1.242-.313-.518 0-.95.118-1.296.355a2.199 2.199 0 00-.764.968c-.164.41-.246.883-.246 1.42 0 .518.082.986.246 1.405.173.41.437.737.791.982.355.237.805.355 1.351.355.573 0 1.037-.127 1.392-.382.364-.255.582-.55.655-.887h1.228c-.1.5-.3.932-.6 1.296s-.678.642-1.133.833a3.95 3.95 0 01-1.542.286zm-5.738-.245l-2.742-3.398h-1.201l3.343-3.889h1.378l-3.029 3.507.095-.696 3.671 4.476h-1.515zm-5.021 0v-9.961h1.31v9.96h-1.31zm-5.597 0v-7.287h1.037v3.002h-.054c0-1.064.232-1.842.696-2.333.473-.5 1.178-.75 2.115-.75h.245v1.173h-.464c-.728 0-1.287.195-1.678.586-.391.383-.587.938-.587 1.665v3.944h-1.31zm-3.441 0v-2.184H176v-2.524c0-.5-.132-.878-.396-1.132-.255-.255-.632-.383-1.133-.383-.282 0-.573.005-.873.014l-.86.027a13.7 13.7 0 00-.709.041v-1.146c.2-.018.409-.032.628-.04.227-.019.459-.028.695-.028.237-.01.464-.014.683-.014.746 0 1.355.091 1.828.273.473.173.823.46 1.051.86.227.4.341.941.341 1.624v4.612h-1.037zm-2.388.19c-.546 0-1.019-.09-1.419-.272a2.16 2.16 0 01-.914-.819c-.21-.355-.314-.782-.314-1.283 0-.518.114-.95.341-1.296.237-.346.578-.605 1.023-.778.446-.182.983-.273 1.61-.273h1.979v.983h-2.033c-.528 0-.933.127-1.215.382a1.264 1.264 0 00-.423.982c0 .4.141.724.423.97.282.245.687.368 1.215.368.309 0 .605-.055.887-.164.282-.118.514-.31.696-.573.191-.273.295-.646.314-1.12l.354.52c-.045.518-.173.955-.382 1.31a1.97 1.97 0 01-.846.79c-.354.183-.787.274-1.296.274zm-14.381-.19v-9.961h1.774l2.947 6.645h.219l2.933-6.645h1.788v9.96h-1.337v-8.5l.095.027-2.824 6.413h-1.638l-2.838-6.413.109-.027v8.5h-1.228z" fill="#fff"/></svg>