<svg width="315" height="61" fill="none" xmlns="http://www.w3.org/2000/svg"><mask id="path-1-outside-1_24_2014" maskUnits="userSpaceOnUse" x="104.161" y="26.358" width="23" height="11" fill="#000"><path fill="#fff" d="M104.161 26.358h23v11h-23z"/><path d="M125.757 28.698c.298-.198.53-.149.695.149.198.298.165.53-.099.695-6.914 4.498-11.594 6.748-14.042 6.748-.728 0-1.29-.199-1.687-.596-.927-.926-.728-2.729.595-5.408a10.66 10.66 0 01-.446.397c-1.688 1.522-2.812 2.514-3.375 2.977-.562.463-.975.711-1.24.744h-.099c-.463 0-.745-.231-.844-.695-.198-.727.149-1.835 1.042-3.324.893-1.488 1.787-2.398 2.68-2.729.893-.364 1.587-.083 2.084.844.165.297.099.529-.199.694-.298.133-.529.05-.695-.248-.231-.397-.529-.513-.893-.347-.628.298-1.29 1.025-1.984 2.183-.728 1.158-1.092 2.001-1.092 2.53.364-.198 1.687-1.323 3.969-3.373a533.595 533.595 0 012.729-2.481c.034-.033.067-.05.1-.05.033-.033.066-.05.099-.05h.149c.033 0 .066.017.099.05h.149c0 .033.016.05.05.05l.049.05v.049h.05v.1c.033.032.049.065.049.098.033 0 .05.017.05.05v.1c0 .032-.017.065-.05.098 0 .034-.016.067-.049.1v.05a23.236 23.236 0 00-2.134 4.118c-.529 1.389-.579 2.299-.149 2.729.166.132.381.231.645.297.265.033.745-.016 1.439-.148.728-.166 1.572-.447 2.531-.844.992-.43 2.332-1.125 4.019-2.084 1.72-.96 3.655-2.134 5.805-3.523z"/></mask><path d="M125.757 28.698c.298-.198.53-.149.695.149.198.298.165.53-.099.695-6.914 4.498-11.594 6.748-14.042 6.748-.728 0-1.29-.199-1.687-.596-.927-.926-.728-2.729.595-5.408a10.66 10.66 0 01-.446.397c-1.688 1.522-2.812 2.514-3.375 2.977-.562.463-.975.711-1.24.744h-.099c-.463 0-.745-.231-.844-.695-.198-.727.149-1.835 1.042-3.324.893-1.488 1.787-2.398 2.68-2.729.893-.364 1.587-.083 2.084.844.165.297.099.529-.199.694-.298.133-.529.05-.695-.248-.231-.397-.529-.513-.893-.347-.628.298-1.29 1.025-1.984 2.183-.728 1.158-1.092 2.001-1.092 2.53.364-.198 1.687-1.323 3.969-3.373a533.595 533.595 0 012.729-2.481c.034-.033.067-.05.1-.05.033-.033.066-.05.099-.05h.149c.033 0 .066.017.099.05h.149c0 .033.016.05.05.05l.049.05v.049h.05v.1c.033.032.049.065.049.098.033 0 .05.017.05.05v.1c0 .032-.017.065-.05.098 0 .034-.016.067-.049.1v.05a23.236 23.236 0 00-2.134 4.118c-.529 1.389-.579 2.299-.149 2.729.166.132.381.231.645.297.265.033.745-.016 1.439-.148.728-.166 1.572-.447 2.531-.844.992-.43 2.332-1.125 4.019-2.084 1.72-.96 3.655-2.134 5.805-3.523z" fill="#fff"/><path d="M125.757 28.698l.272.42.006-.004-.278-.416zm.695.149l-.437.243.01.018.011.016.416-.277zm-.099.695l-.265-.425-.008.005.273.42zm-15.729 6.152l.353-.353-.353.353zm.595-5.408l.448.221-.801-.575.353.354zm-.446.397l-.326-.38-.009.008.335.372zm-3.375 2.977l.318.386-.318-.386zm-1.24.744v.5h.031l.031-.004-.062-.496zm-.943-.695l.489-.104-.003-.014-.003-.013-.483.131zm1.042-3.324l-.429-.257.429.257zm2.68-2.729l.173.469.008-.003.007-.003-.188-.463zm2.084.844l-.441.236.004.006.437-.242zm-.199.694l.203.457.021-.009.019-.01-.243-.438zm-.695-.248l.438-.243-.006-.009-.432.252zm-.893-.347l-.207-.455-.007.003.214.452zm-1.984 2.183l.423.266.005-.009-.428-.257zm-1.092 2.53h-.5v.843l.739-.404-.239-.438zm3.969-3.373l.335.372.003-.003-.338-.37zm2.729-2.481l.335.371.01-.009.009-.009-.354-.353zm.1-.05v.5h.207l.146-.146-.353-.354zm.347 0l-.354.354.147.146h.207v-.5zm.149 0h.5v-.5h-.5v.5zm.05.05l.353-.354-.146-.146h-.207v.5zm.049.05h.5V27.3l-.146-.146-.354.353zm0 .049h-.5v.5h.5v-.5zm.05 0h.5v-.5h-.5v.5zm0 .1h-.5v.206l.146.147.354-.354zm.049.098h-.5v.5h.5v-.5zm0 .248l-.353-.353-.147.146v.207h.5zm-.049.1l-.354-.354-.146.147v.207h.5zm0 .05l.419.272.081-.125v-.148h-.5zm-2.134 4.118l-.465-.184-.002.006.467.178zM111.318 35l-.353.353.019.02.022.017.312-.39zm.645.297l-.121.485.029.008.03.004.062-.497zm1.439-.148l.094.49.009-.001.008-.002-.111-.488zm2.531-.844l.191.462.008-.003-.199-.459zm4.019-2.084l-.244-.437-.003.002.247.435zm6.083-3.107a.442.442 0 01.049-.029.085.085 0 01.02-.008l-.015.002a.163.163 0 01-.081-.019l-.022-.013c-.002-.003 0-.002.005.005.005.008.014.02.024.038l.874-.486c-.121-.218-.32-.44-.63-.506-.302-.065-.575.048-.779.184l.555.832zm.001.01a.37.37 0 01.044.083c.003.008-.003-.006.001-.034a.189.189 0 01.011-.04.176.176 0 01.016-.028c.008-.01.007-.004-.02.013l.53.848c.213-.134.409-.345.453-.651.041-.288-.07-.547-.203-.745l-.832.554zm.044-.002c-3.448 2.244-6.326 3.918-8.64 5.03-2.332 1.12-4.026 1.638-5.129 1.638v1c1.344 0 3.214-.608 5.563-1.737 2.367-1.137 5.286-2.837 8.751-5.092l-.545-.838zm-13.769 6.668c-.636 0-1.056-.172-1.334-.45l-.707.708c.516.516 1.221.742 2.041.742v-1zm-1.334-.45c-.318-.318-.492-.826-.402-1.638.09-.818.442-1.878 1.092-3.195l-.896-.443c-.673 1.363-1.082 2.544-1.19 3.529-.109.99.082 1.847.689 2.455l.707-.707zm-.111-5.408c-.051.05-.184.17-.419.371l.651.76c.228-.196.392-.341.475-.424l-.707-.707zm-.428.38c-1.689 1.523-2.805 2.507-3.357 2.962l.635.772c.573-.472 1.706-1.472 3.391-2.992l-.669-.742zm-3.357 2.962a5.823 5.823 0 01-.672.49c-.187.113-.285.14-.313.144l.124.992c.237-.03.478-.142.704-.278.236-.141.501-.336.792-.576l-.635-.772zm-.923.63h-.099v1h.099v-1zm-.099 0c-.148 0-.212-.036-.241-.06-.03-.024-.081-.085-.114-.24l-.978.21c.066.309.206.596.457.803.252.207.56.287.876.287v-1zm-.361-.326c-.064-.234-.053-.588.106-1.096.158-.503.447-1.114.882-1.84l-.858-.514c-.457.763-.788 1.45-.978 2.055-.188.6-.252 1.165-.117 1.658l.965-.263zm.988-2.936c.877-1.461 1.695-2.247 2.424-2.517l-.347-.938c-1.057.392-2.025 1.425-2.935 2.94l.858.515zm2.439-2.523c.362-.147.62-.14.815-.061.202.082.425.277.64.678l.881-.473c-.281-.525-.654-.933-1.146-1.132-.5-.203-1.036-.154-1.567.062l.377.926zm1.459.623a.473.473 0 01.026.06l-.001-.012c.001-.009.002-.02.005-.03a.204.204 0 01.012-.03l.007-.01s-.003.004-.012.01a.396.396 0 01-.042.027l.486.874c.216-.12.428-.309.511-.597.082-.288.002-.561-.118-.777l-.874.485zm.035-.005a.197.197 0 01-.054.018h.008l.02.006c.016.005.022.012.017.007a.271.271 0 01-.045-.065l-.875.486c.119.214.299.418.567.513.272.097.541.05.768-.05l-.406-.915zm-.06-.043c-.148-.254-.355-.485-.647-.598-.305-.119-.613-.076-.885.048l.414.91a.285.285 0 01.091-.028c.011 0 .015 0 .017.002.006.002.063.028.147.17l.863-.504zm-1.539-.547c-.768.364-1.494 1.202-2.199 2.378l.857.514c.684-1.14 1.282-1.757 1.77-1.988l-.428-.904zm-2.194 2.369a12.019 12.019 0 00-.854 1.569c-.192.445-.314.862-.314 1.228h1c0-.164.06-.433.232-.832.168-.39.427-.866.783-1.433l-.847-.532zm-.429 3.236c.132-.073.313-.205.522-.369.219-.17.495-.399.828-.682.667-.566 1.572-1.364 2.715-2.39l-.669-.744a136.866 136.866 0 01-2.694 2.372c-.328.28-.593.498-.797.658a3.99 3.99 0 01-.383.277l.478.877zm4.068-3.444a489.18 489.18 0 012.726-2.479l-.669-.743c-.663.597-1.574 1.425-2.732 2.484l.675.738zm2.745-2.497a.362.362 0 01-.254.097v-1a.638.638 0 00-.453.196l.707.707zm.099-.05a.362.362 0 01-.254.097v-1a.642.642 0 00-.453.197l.707.707zm-.254.097h.099v-1h-.099v1zm.099 0h.05v-1h-.05v1zm.05 0a.365.365 0 01-.255-.096l.708-.707a.642.642 0 00-.453-.197v1zm.099.05h.149v-1h-.149v1zm-.351-.5a.55.55 0 00.159.39.55.55 0 00.391.16v-1a.45.45 0 01.316.134.453.453 0 01.134.316h-1zm.55.05l-.354.353.001.001.002.002.009.01.016.015.01.01.006.006.003.003.001.001.001.001h.001l.707-.706-.012-.012-.01-.01-.016-.016-.002-.002-.003-.003-.004-.004c-.001 0 0 0 0 0h-.001v-.001l-.001-.001h-.001c0-.001 0 0 0 0l-.353.353zm.049.05h-.5v.049h1v-.048h-.5zm0 .549h.05v-1h-.05v1zm.05-.5h-.5v.1h1v-.099h-.5zm-.354.453a.365.365 0 01-.097-.255h1a.638.638 0 00-.196-.452l-.707.707zm.403.245a.452.452 0 01-.316-.134.449.449 0 01-.134-.316h1a.55.55 0 00-.159-.39.55.55 0 00-.391-.16v1zm-.45-.45v.1h1v-.099h-1zm0 .1a.36.36 0 01.097-.255l.707.707a.638.638 0 00.196-.453h-1zm-.05.098c0-.146.076-.233.097-.254l.707.707a.638.638 0 00.196-.453h-1zm.451.1h-.5v.05h1v-.049h-.5zm-.419-.223a23.669 23.669 0 00-2.18 4.207l.93.367a22.741 22.741 0 012.088-4.03l-.838-.544zM111 32.093c-.273.716-.437 1.346-.466 1.875-.029.525.074 1.028.431 1.385l.707-.707c-.073-.073-.161-.24-.14-.624.021-.381.146-.9.402-1.573l-.934-.356zm.006 3.297c.235.188.521.314.836.392l.243-.97a1.168 1.168 0 01-.454-.203l-.625.781zm.895.404c.354.044.907-.023 1.595-.154l-.187-.983c-.701.134-1.108.166-1.284.144l-.124.992zm1.612-.158c.764-.174 1.635-.465 2.611-.869l-.382-.924c-.943.39-1.759.66-2.451.818l.222.975zm2.619-.872c1.017-.44 2.375-1.146 4.067-2.108l-.494-.87c-1.682.956-3.003 1.64-3.971 2.06l.398.918zm4.063-2.106c1.732-.966 3.677-2.146 5.834-3.54l-.543-.84c-2.144 1.385-4.069 2.554-5.778 3.506l.487.874z" fill="#000" mask="url(#path-1-outside-1_24_2014)"/><path d="M107.416 28.628l-.007.005-.007.004c-2.607 1.683-4.963 3.034-7.068 4.053-1.038.494-1.895.853-2.576 1.08-.69.23-1.169.314-1.46.286h-.024a.474.474 0 01-.16-.022.103.103 0 01-.028-.015c-.02-.034-.046-.116-.046-.281 0-.165.026-.384.082-.66.112-.554.339-1.305.685-2.26v-.001c.163-.456.278-.786.346-.988.103-.242.188-.5.256-.772h0l.002-.007c.068-.306.094-.578.052-.794-.038-.223-.117-.424-.261-.57-.257-.296-.602-.418-1.003-.378h0l-.013.002c-.317.05-.727.241-1.212.54-.493.302-1.092.731-1.795 1.284-1.174.924-2.65 2.203-4.425 3.834a182.976 182.976 0 012.378-4.244h0l.002-.004c.101-.182.154-.385.096-.587-.058-.202-.21-.346-.392-.447-.183-.102-.385-.154-.587-.096-.202.057-.346.208-.447.39a353.339 353.339 0 00-2.135 3.823 47.121 47.121 0 00-1.246 2.393c-.264.528-.439.975-.513 1.335a2.66 2.66 0 00-.104.395.793.793 0 00-.002.304.55.55 0 00.17.336.786.786 0 00.575.222c.153 0 .295-.05.424-.134.098-.053.248-.169.43-.321l.01-.007.007-.008c.196-.196.59-.574 1.185-1.136 2.083-1.95 3.765-3.455 5.05-4.517a26.32 26.32 0 011.62-1.256c.206-.144.385-.26.54-.352-.087.303-.226.715-.42 1.24-.166.431-.285.77-.354 1.012a23.77 23.77 0 01-.294.932l-.004.01-.002.009c-.1.4-.168.724-.203.968l-.003.017v.018c0 .243.018.502.052.775.036.288.109.548.223.776l.005.011.008.011c.28.442.737.686 1.32.76h.014c.51.037 1.176-.086 1.98-.346.809-.261 1.78-.667 2.91-1.216h0l.003-.002c2.257-1.128 4.644-2.504 7.162-4.127.174-.099.328-.24.375-.444.047-.203-.03-.393-.145-.552-.101-.176-.243-.32-.439-.377-.202-.058-.405-.005-.587.096z" fill="#fff" stroke="#000" stroke-width=".5"/><path d="M89.245 28.628l-.007.005-.007.004c-2.607 1.683-4.963 3.034-7.068 4.053-1.037.494-1.895.853-2.576 1.08-.69.23-1.169.314-1.46.286h-.024a.474.474 0 01-.16-.022.103.103 0 01-.028-.015c-.02-.034-.046-.116-.046-.281 0-.165.026-.384.082-.66.112-.554.339-1.305.685-2.26v-.001c.163-.456.278-.786.346-.988.103-.242.188-.5.257-.772h0l.001-.007c.068-.306.094-.578.052-.794-.038-.223-.117-.424-.261-.57-.256-.296-.602-.418-1.003-.378h0l-.013.002c-.317.05-.726.241-1.212.54-.493.302-1.092.731-1.795 1.284-1.174.924-2.65 2.203-4.425 3.834a182.976 182.976 0 012.378-4.244h0l.002-.004c.101-.182.154-.385.096-.587-.058-.202-.21-.346-.392-.447-.183-.102-.385-.154-.587-.096-.202.057-.346.208-.447.39a352.38 352.38 0 00-2.135 3.823 47.121 47.121 0 00-1.246 2.393c-.264.528-.439.975-.513 1.335a2.66 2.66 0 00-.104.395.793.793 0 00-.002.304.55.55 0 00.171.336.786.786 0 00.574.222c.153 0 .296-.05.424-.134.098-.053.248-.169.43-.321l.01-.007.007-.008c.196-.196.59-.574 1.186-1.136 2.082-1.95 3.764-3.455 5.049-4.517a26.32 26.32 0 011.62-1.256c.206-.144.385-.26.54-.352a18.64 18.64 0 01-.42 1.24c-.166.431-.285.77-.354 1.012-.065.226-.163.537-.294.932l-.003.01-.003.009c-.1.4-.168.724-.203.968l-.003.017v.018c0 .243.018.502.052.775.036.288.109.548.223.776l.006.011.007.011c.28.442.737.686 1.32.76h.014c.511.037 1.176-.086 1.98-.346.809-.261 1.78-.667 2.91-1.216h0l.003-.002c2.257-1.128 4.644-2.504 7.162-4.127.174-.099.328-.24.375-.444.047-.203-.03-.393-.145-.552-.1-.176-.243-.32-.44-.377-.201-.058-.404-.005-.586.096z" fill="#fff" stroke="#000" stroke-width=".5"/><mask id="path-5-outside-2_24_2014" maskUnits="userSpaceOnUse" x="49.552" y="26.358" width="23" height="11" fill="#000"><path fill="#fff" d="M49.552 26.358h23v11h-23z"/><path d="M71.148 28.698c.298-.198.53-.149.695.149.198.298.165.53-.1.695-6.913 4.498-11.593 6.748-14.04 6.748-.728 0-1.29-.199-1.687-.596-.926-.926-.728-2.729.595-5.408a10.66 10.66 0 01-.446.397c-1.687 1.522-2.812 2.514-3.374 2.977-.563.463-.976.711-1.24.744h-.1c-.463 0-.744-.231-.844-.695-.198-.727.15-1.835 1.042-3.324.893-1.488 1.787-2.398 2.68-2.729.893-.364 1.587-.083 2.084.844.165.297.099.529-.199.694-.297.133-.529.05-.694-.248-.232-.397-.53-.513-.893-.347-.629.298-1.29 1.025-1.985 2.183-.728 1.158-1.092 2.001-1.092 2.53.364-.198 1.687-1.323 3.97-3.373a501.252 501.252 0 012.729-2.481c.033-.033.066-.05.099-.05.033-.033.066-.05.1-.05h.146c.033 0 .066.017.1.05h.148c0 .033.017.05.05.05l.05.05v.049h.049v.1c.033.032.05.065.05.098.033 0 .05.017.05.05v.1c0 .032-.017.065-.05.098 0 .034-.017.067-.05.1v.05a23.181 23.181 0 00-2.134 4.118C56.33 33.66 56.28 34.57 56.71 35c.166.132.38.231.645.297.265.033.745-.016 1.44-.148.727-.166 1.57-.447 2.53-.844.992-.43 2.332-1.125 4.019-2.084 1.72-.96 3.655-2.134 5.805-3.523z"/></mask><path d="M71.148 28.698c.298-.198.53-.149.695.149.198.298.165.53-.1.695-6.913 4.498-11.593 6.748-14.04 6.748-.728 0-1.29-.199-1.687-.596-.926-.926-.728-2.729.595-5.408a10.66 10.66 0 01-.446.397c-1.687 1.522-2.812 2.514-3.374 2.977-.563.463-.976.711-1.24.744h-.1c-.463 0-.744-.231-.844-.695-.198-.727.15-1.835 1.042-3.324.893-1.488 1.787-2.398 2.68-2.729.893-.364 1.587-.083 2.084.844.165.297.099.529-.199.694-.297.133-.529.05-.694-.248-.232-.397-.53-.513-.893-.347-.629.298-1.29 1.025-1.985 2.183-.728 1.158-1.092 2.001-1.092 2.53.364-.198 1.687-1.323 3.97-3.373a501.252 501.252 0 012.729-2.481c.033-.033.066-.05.099-.05.033-.033.066-.05.1-.05h.146c.033 0 .066.017.1.05h.148c0 .033.017.05.05.05l.05.05v.049h.049v.1c.033.032.05.065.05.098.033 0 .05.017.05.05v.1c0 .032-.017.065-.05.098 0 .034-.017.067-.05.1v.05a23.181 23.181 0 00-2.134 4.118C56.33 33.66 56.28 34.57 56.71 35c.166.132.38.231.645.297.265.033.745-.016 1.44-.148.727-.166 1.57-.447 2.53-.844.992-.43 2.332-1.125 4.019-2.084 1.72-.96 3.655-2.134 5.805-3.523z" fill="#fff"/><path d="M71.148 28.698l.272.42.006-.004-.278-.416zm.695.149l-.437.243.01.018.011.016.416-.277zm-.1.695l-.264-.425-.008.005.273.42zm-15.728 6.152l.353-.353-.353.353zm.595-5.408l.449.221-.802-.575.353.354zm-.446.397l-.326-.38-.01.008.336.372zM52.79 33.66l.317.386-.317-.386zm-1.24.744v.5h.03l.031-.004-.062-.496zm-.944-.695l.49-.104-.004-.014-.003-.013-.483.131zm1.042-3.324l-.428-.257.428.257zm2.68-2.729l.173.469.008-.003.007-.003-.188-.463zm2.084.844l-.441.236.004.006.437-.242zm-.199.694l.203.457.02-.009.02-.01-.243-.438zm-.694-.248l.437-.243-.006-.009-.431.252zm-.893-.347l-.207-.455-.008.003.215.452zm-1.985 2.183l.423.266.005-.009-.428-.257zm-1.092 2.53h-.5v.843l.74-.404-.24-.438zm3.97-3.373l.334.372.003-.003-.337-.37zm2.729-2.481l.334.371.01-.009.01-.009-.354-.353zm.099-.05v.5h.207l.146-.146-.353-.354zm.347 0l-.353.354.146.146h.207v-.5zm.149 0h.5v-.5h-.5v.5zm.05.05l.353-.354-.146-.146h-.207v.5zm.05.05h.5V27.3l-.147-.146-.354.353zm0 .049h-.5v.5h.5v-.5zm.049 0h.5v-.5h-.5v.5zm0 .1h-.5v.206l.146.147.354-.354zm.05.098h-.5v.5h.5v-.5zm0 .248l-.354-.353-.147.146v.207h.5zm-.05.1l-.354-.354-.146.147v.207h.5zm0 .05l.42.272.08-.125v-.148h-.5zm-2.134 4.118l-.465-.184-.002.006.467.178zM56.71 35l-.353.353.02.02.021.017.312-.39zm.645.297l-.12.485.029.008.03.004.062-.497zm1.44-.148l.093.49.009-.001.008-.002-.11-.488zm2.53-.844l.191.462.008-.003-.2-.459zm4.019-2.084l-.243-.437-.004.002.247.435zm6.083-3.107a.44.44 0 01.05-.029.071.071 0 01.019-.008l-.015.002a.16.16 0 01-.103-.032.297.297 0 01.029.043l.874-.486c-.121-.218-.32-.44-.63-.506-.302-.065-.575.048-.779.184l.555.832zm.001.01a.35.35 0 01.044.083c.003.008-.003-.006.001-.034a.169.169 0 01.027-.068c.008-.01.007-.004-.02.013l.53.848c.213-.134.41-.345.453-.651.041-.288-.07-.547-.203-.745l-.832.554zm.044-.002c-3.448 2.244-6.326 3.918-8.64 5.03-2.331 1.12-4.026 1.638-5.13 1.638v1c1.346 0 3.215-.608 5.564-1.737 2.367-1.137 5.286-2.837 8.751-5.092l-.545-.838zm-13.77 6.668c-.635 0-1.055-.172-1.333-.45l-.707.708c.516.516 1.221.742 2.04.742v-1zm-1.333-.45c-.318-.318-.491-.826-.402-1.638.09-.818.442-1.878 1.093-3.195l-.897-.443c-.673 1.363-1.082 2.544-1.19 3.529-.11.99.082 1.847.69 2.455l.706-.707zm-.111-5.408c-.05.05-.184.17-.419.371l.651.76c.228-.196.393-.341.475-.424l-.707-.707zm-.428.38c-1.689 1.523-2.805 2.507-3.357 2.962l.635.772c.573-.472 1.706-1.472 3.392-2.992l-.67-.742zm-3.357 2.962c-.27.223-.494.384-.672.49-.187.113-.285.14-.313.144l.124.992c.237-.03.478-.142.704-.278.236-.141.5-.336.792-.576l-.635-.772zm-.923.63h-.099v1h.099v-1zm-.1 0c-.147 0-.21-.036-.24-.06s-.08-.085-.114-.24l-.977.21c.066.309.205.596.456.803.252.207.56.287.876.287v-1zm-.36-.326c-.064-.234-.053-.588.106-1.096.158-.503.447-1.114.882-1.84l-.857-.514c-.458.763-.79 1.45-.98 2.055-.187.6-.25 1.165-.116 1.658l.965-.263zm.988-2.936c.877-1.461 1.696-2.247 2.424-2.517l-.347-.938c-1.057.392-2.025 1.425-2.934 2.94l.857.515zm2.44-2.523c.361-.147.62-.14.814-.061.202.082.425.277.64.678l.882-.473c-.282-.525-.655-.933-1.147-1.132-.5-.203-1.036-.154-1.567.062l.377.926zm1.458.623a.287.287 0 01.026.061v-.013a.13.13 0 01.016-.06l.008-.01-.013.01a.34.34 0 01-.042.027l.486.874c.216-.12.429-.309.51-.597.083-.288.003-.561-.117-.777l-.874.485zm.035-.005a.186.186 0 01-.054.018h.008l.02.006c.016.005.022.012.017.007a.284.284 0 01-.045-.065l-.875.486c.12.214.3.418.567.513.272.097.541.05.768-.05l-.406-.915zm-.06-.043c-.148-.254-.355-.485-.647-.598-.304-.119-.612-.076-.884.048l.413.91a.283.283 0 01.091-.028c.012 0 .015 0 .017.002.006.002.064.028.147.17l.863-.504zm-1.539-.547c-.768.364-1.494 1.202-2.199 2.378l.857.514c.684-1.14 1.282-1.757 1.77-1.988l-.428-.904zm-2.194 2.369a11.922 11.922 0 00-.854 1.569c-.192.445-.314.862-.314 1.228h1c0-.164.06-.433.232-.832.168-.39.427-.866.783-1.433l-.847-.532zm-.428 3.236c.132-.073.312-.205.521-.369.219-.17.495-.399.828-.682.667-.566 1.572-1.364 2.715-2.39l-.669-.744a138.75 138.75 0 01-2.693 2.372c-.329.28-.594.498-.798.658-.212.166-.333.25-.383.277l.478.877zm4.067-3.444a495.871 495.871 0 012.726-2.479l-.669-.743c-.663.597-1.574 1.425-2.732 2.484l.675.738zm2.745-2.497a.363.363 0 01-.254.097v-1a.64.64 0 00-.453.196l.707.707zm.1-.05a.363.363 0 01-.255.097v-1a.64.64 0 00-.453.197l.707.707zm-.255.097h.099v-1h-.098v1zm.1 0h.048v-1h-.048v1zm.049 0a.363.363 0 01-.254-.096l.707-.707a.64.64 0 00-.453-.197v1zm.1.05h.148v-1h-.148v1zm-.352-.5a.55.55 0 00.159.39.55.55 0 00.39.16v-1a.45.45 0 01.317.134.451.451 0 01.134.316h-1zm.55.05l-.354.353v.001c.002 0 .002 0 .003.002l.01.01.015.015.01.01.006.006.003.003.001.001v.001h.001l.708-.706-.012-.012-.01-.01-.015-.016-.003-.002-.003-.003-.004-.004v-.001h-.001l-.001-.001c0-.001 0 0 0 0l-.354.353zm.05.05h-.5v.049h1v-.048h-.5zm0 .549h.048v-1h-.048v1zm.049-.5h-.5v.1h1v-.099h-.5zm-.354.453a.363.363 0 01-.096-.255h1a.64.64 0 00-.197-.452l-.707.707zm.404.245a.45.45 0 01-.317-.134.451.451 0 01-.134-.316h1a.55.55 0 00-.159-.39.55.55 0 00-.39-.16v1zm-.45-.45v.1h1v-.099h-1zm0 .1c0-.147.075-.234.096-.255l.707.707a.64.64 0 00.196-.453h-1zm-.05.098c0-.146.075-.233.096-.254l.707.707a.64.64 0 00.197-.453h-1zm.45.1h-.5v.05h1v-.049h-.5zm-.42-.223a23.685 23.685 0 00-2.179 4.207l.93.367a22.687 22.687 0 012.088-4.03l-.838-.544zm-2.181 4.213c-.273.716-.437 1.346-.466 1.875-.029.525.074 1.028.43 1.385l.708-.707c-.073-.073-.16-.24-.14-.624.021-.381.146-.9.402-1.573l-.934-.356zm.006 3.297c.235.188.521.314.836.392l.243-.97a1.177 1.177 0 01-.454-.203l-.625.781zm.895.404c.354.044.907-.023 1.595-.154l-.187-.983c-.701.134-1.108.166-1.284.144l-.123.992zm1.612-.158c.764-.174 1.635-.465 2.611-.869l-.382-.924c-.943.39-1.758.66-2.45.818l.221.975zm2.619-.872c1.017-.44 2.375-1.146 4.067-2.108l-.494-.87c-1.682.956-3.003 1.64-3.97 2.06l.397.918zm4.064-2.106c1.731-.966 3.676-2.146 5.833-3.54l-.543-.84c-2.143 1.385-4.07 2.554-5.777 3.506l.487.874z" fill="#000" mask="url(#path-5-outside-2_24_2014)"/><path d="M23.58 29.03a186.219 186.219 0 004.497-8.307h0c2.385-4.754 3.95-8.644 4.684-11.664.73-3.001.659-5.22-.34-6.56-.91-1.235-2.486-1.609-4.61-1.238-1.401.24-3.368 1.085-5.885 2.51-2.525 1.428-5.131 3.155-7.818 5.178-2.693 2.028-5.235 4.37-7.626 7.028-2.394 2.627-4.053 5.117-4.96 7.471h0c-1.248 3.237-.99 6.03.829 8.33.122.162.281.29.485.319.204.029.394-.05.557-.172.163-.122.292-.283.321-.487.03-.205-.05-.394-.171-.558h0l-.005-.005c-1.453-1.832-1.676-4.098-.607-6.85.682-1.754 1.84-3.633 3.483-5.638l.001-.001a42.118 42.118 0 015.474-5.623 92.529 92.529 0 016.235-4.8c2.11-1.483 4.052-2.684 5.826-3.604 1.78-.923 3.157-1.454 4.142-1.612h0l.004-.001c.906-.162 1.623-.148 2.166.018.534.163.907.475 1.14.94h0c.38.754.495 1.844.304 3.303-.191 1.455-.683 3.246-1.481 5.378-1.588 4.24-4.376 9.793-8.372 16.662-2.486.065-4.59.13-6.313.195-2.893.098-4.625.164-5.19.197a2.373 2.373 0 00-.692.004l-.214.03v.061a1.07 1.07 0 00-.111.034.47.47 0 00-.25.192.863.863 0 00-.147.392.671.671 0 00.097.412c.154.256.412.369.71.369v0h.006c1.314-.032 2.34.175 3.097.6.75.422 1.256 1.066 1.52 1.95.475 1.615.277 3.706-.64 6.296l-.002.003a38.318 38.318 0 01-3.396 7.336c-1.07 1.49-1.742 2.371-2.033 2.67a.654.654 0 00-.244.281.695.695 0 00-.044.395.83.83 0 00.22.516.718.718 0 00.524.197c.196 0 .37-.074.51-.208.34-.255.73-.684 1.166-1.269.445-.595.949-1.366 1.512-2.31a706.81 706.81 0 004.314-6.447l.002-.003a342.887 342.887 0 006.435-10.408 3273.92 3273.92 0 0118.932-.483c-2.616 4.874-4.604 9.109-5.964 12.702v.003c-.681 1.858-1.153 3.434-1.413 4.725-.258 1.285-.312 2.312-.134 3.06.145.617.463 1.081.968 1.353h0l.007.003a.69.69 0 00.31.076.817.817 0 00.426-.11.776.776 0 00.294-.326h0l.005-.01c.081-.184.115-.385.042-.576a.729.729 0 00-.386-.384c-.061-.055-.132-.17-.188-.392-.134-.553-.084-1.424.188-2.64.269-1.208.748-2.725 1.44-4.555 1.373-3.627 3.412-7.957 6.12-12.99a673.68 673.68 0 016.784-.097c.197.018.398-.013.551-.151.154-.138.205-.336.207-.534.017-.208-.012-.418-.143-.58-.138-.167-.341-.226-.547-.227-.684-.032-2.698-.003-6.029.087 4.68-8.53 10.228-17.126 16.643-25.788h0l.007-.01c.119-.178.191-.375.164-.581-.028-.21-.153-.376-.321-.502-.166-.125-.364-.201-.575-.156-.203.044-.357.187-.474.36-6.622 8.93-12.344 17.827-17.164 26.693-3.553.098-8.152.213-13.798.343h0-.005c-1.355.062-3.04.124-5.058.185zm-9.18 1.777c2.305-.081 4.49-.15 6.556-.209a260.529 260.529 0 01-5.57 8.933c.593-2.04.817-3.792.658-5.251-.143-1.491-.688-2.657-1.644-3.473zm298.367-2.387h-.001l-.01.005c-2.909 1.455-5.67 2.28-8.287 2.484.081-.97-.21-1.74-.916-2.253a1.203 1.203 0 00-.128-.108.709.709 0 00-.049-.14c-.062-.194-.173-.37-.364-.458-.19-.087-.398-.06-.591.014a2.142 2.142 0 00-.361.13c-.942-.118-1.688.023-2.128.534-.533.536-.77 1.128-.633 1.754-1.035 1.428-1.456 2.852-1.216 4.262.088.544.278.986.594 1.292.321.31.744.455 1.241.455.792 0 1.596-.45 2.409-1.264h0l.004-.004c.774-.806 1.352-1.692 1.731-2.658 2.939-.128 6.061-1.015 9.364-2.65h0l.01-.005c.183-.101.334-.245.392-.447.057-.199.007-.398-.091-.578-.082-.18-.207-.335-.395-.407-.191-.073-.391-.04-.575.042zm-11.587 5.66h0l-.005.005c-.273.29-.514.497-.723.631-.21.135-.369.184-.485.184h-.049a.235.235 0 01-.202-.093c-.059-.073-.116-.208-.146-.434h0l-.002-.011c-.139-.783.053-1.652.618-2.618.283.197.578.353.887.465l.01.004.011.003c.406.108.843.184 1.308.228a7.065 7.065 0 01-1.222 1.636zm.34-3.34h0-.003a1.017 1.017 0 01-.405-.208c.347-.341.735-.63 1.165-.868.164.054.285.115.369.178.25.188.382.53.292 1.124a7.703 7.703 0 01-1.418-.226z" fill="#fff" stroke="#000" stroke-width=".5"/><path d="M300.474 28.697h0l-.005.004c-3.341 2.646-5.776 4.405-7.313 5.288l-.002.002c-1.502.881-2.754 1.25-3.77 1.157h0-.007c-.466-.03-.966-.235-1.502-.644a4.924 4.924 0 01-1.276-1.417l-.005-.009-.006-.008a4.01 4.01 0 01-.397-.663.895.895 0 01-.063-.194l-.005-.042c.241-.344.646-.704 1.235-1.076.657-.394 2.057-1.168 4.205-2.325 0 0 0 0 0 0l.736-.393c.181-.082.341-.211.402-.411.061-.2.004-.402-.095-.58-.098-.176-.231-.326-.414-.397a.682.682 0 00-.561.047h0l-.006.003-.744.397s0 0 0 0c-1.918 1.018-3.303 1.778-4.146 2.277 1.131-2.334 2.542-5.03 4.234-8.088h0a150.764 150.764 0 013.765-6.49l.001-.002c1.223-2.015 2.213-3.582 2.97-4.702.395-.576.722-1.025.981-1.35.234-.291.396-.46.494-.536a.753.753 0 00.418-.2.67.67 0 00.185-.486c0-.22-.056-.432-.21-.586-.154-.155-.366-.21-.586-.21a.828.828 0 00-.399.121 2.325 2.325 0 00-.401.3c-.28.252-.609.621-.985 1.101-.753.962-1.718 2.398-2.893 4.302a179.321 179.321 0 00-6.907 12.173v.002c-2.215 4.33-3.582 7.326-4.085 8.972h-.001c-.185.608-.273 1.125-.246 1.54.029.422.179.77.499.976l.012.007.012.006c.11.056.234.076.36.076.259 0 .49-.09.646-.298l.009-.013.008-.013a.757.757 0 00.105-.497.773.773 0 00-.181-.38 1.358 1.358 0 01.016-.209c.021-.14.061-.316.121-.534.088-.318.218-.71.39-1.181.409.752.979 1.427 1.703 2.026.787.65 1.621 1.022 2.501 1.097.15.035.313.052.487.052 1.221 0 2.638-.487 4.244-1.423h0l.003-.002c1.602-.968 4.06-2.762 7.367-5.375.162-.122.289-.282.318-.485.03-.205-.049-.395-.171-.558-.122-.163-.283-.291-.487-.32-.205-.03-.395.049-.558.171zm-16.918 5.41h0z" fill="#fff" stroke="#000" stroke-width=".5"/><path d="M285.557 28.628l-.007.005-.007.004c-2.607 1.683-4.963 3.034-7.068 4.053-1.037.494-1.895.853-2.576 1.08-.69.23-1.168.314-1.46.286h-.024a.473.473 0 01-.16-.022.084.084 0 01-.024-.013l-.004-.002c-.019-.034-.045-.116-.045-.281 0-.165.025-.384.081-.66.113-.554.339-1.305.685-2.26l.001-.001c.162-.456.278-.786.345-.988.103-.242.189-.5.257-.772h0l.002-.007c.068-.306.093-.578.051-.794-.038-.223-.117-.424-.26-.57-.257-.296-.603-.418-1.003-.378h0l-.014.002c-.317.05-.726.241-1.211.54-.494.302-1.092.731-1.795 1.284-1.174.924-2.65 2.203-4.426 3.834a187.67 187.67 0 012.378-4.244h0l.002-.004c.102-.182.154-.385.096-.587-.057-.202-.209-.346-.391-.447-.183-.102-.385-.154-.587-.096-.202.057-.346.208-.448.39a353.416 353.416 0 00-2.134 3.823 47.251 47.251 0 00-1.246 2.393c-.264.528-.439.975-.514 1.335a2.79 2.79 0 00-.104.395.797.797 0 00-.001.304c.012.138.085.25.171.336a.783.783 0 00.573.222.78.78 0 00.425-.134 3.27 3.27 0 00.43-.321l.009-.007.008-.008c.195-.196.589-.574 1.185-1.136 2.082-1.95 3.765-3.455 5.049-4.517.642-.531 1.182-.95 1.621-1.256.205-.144.385-.26.54-.352-.087.303-.226.715-.421 1.24-.165.431-.284.77-.353 1.012a24.26 24.26 0 01-.295.932l-.003.01-.002.009c-.1.4-.169.724-.204.968l-.002.017v.018c0 .243.017.502.051.775.036.288.109.548.223.776l.006.011.007.011c.281.442.737.686 1.321.76h.013c.512.037 1.176-.086 1.981-.346.808-.261 1.779-.667 2.91-1.216h0l.002-.002c2.257-1.128 4.645-2.504 7.163-4.127.174-.099.328-.24.375-.444.047-.203-.03-.393-.145-.552-.101-.176-.243-.32-.44-.377-.202-.058-.404-.005-.587.096z" fill="#fff" stroke="#000" stroke-width=".5"/><path d="M268.186 30.001l.008-.005.008-.006c.163-.122.292-.283.321-.487.028-.199-.045-.384-.162-.544-.098-.171-.238-.322-.439-.368-.205-.047-.397.031-.557.149-2.673 1.683-4.829 2.933-6.471 3.754a34.58 34.58 0 01-4.926 2.02h0c-.912.293-1.643.411-2.201.373-.551-.038-.915-.225-1.141-.529-.212-.308-.263-.771-.07-1.44h.036l.021-.004c1.782-.3 3.147-.732 4.073-1.312.934-.585 1.444-1.337 1.444-2.259 0-.485-.151-.921-.452-1.297-.286-.358-.613-.6-.984-.683h0l-.012-.003c-1.5-.256-2.889.62-4.165 2.433-.82 1.122-1.338 2.138-1.53 3.046-.194.917-.056 1.727.438 2.406.263.375.635.65 1.103.83.434.18.947.267 1.532.267.725 0 1.512-.139 2.357-.409a35.21 35.21 0 005.146-2.048h0l.003-.002c1.697-.865 3.905-2.16 6.62-3.882zm-11.746-.212l-.014.018-.01.02c-.038.076-.13.18-.312.3a10.4 10.4 0 01-.722.434c-.245.122-.59.248-1.044.378-.304.087-.631.174-.979.261.106-.181.226-.372.36-.572.914-1.24 1.741-1.779 2.474-1.779.073 0 .115.012.136.023l.053.027h.043l.005.004a.51.51 0 01.095.123l.006.01.008.01c.067.09.099.186.099.297 0 .066-.01.132-.031.201a2.425 2.425 0 01-.167.245z" fill="#fff" stroke="#000" stroke-width=".5"/><path d="M253.274 28.629h0l-.011.006c-.543.34-1.895 1.359-4.04 3.042-2.661 2.083-4.848 3.704-6.561 4.865-1.721 1.167-2.943 1.854-3.682 2.09-.665.211-1.192.301-1.589.286-.394-.015-.631-.13-.769-.303-.189-.24-.264-.58-.173-1.063.091-.488.348-1.095.787-1.828l.001-.001c.426-.72.984-1.575 1.677-2.564h0l.003-.005c.46-.69.768-1.2.911-1.52.181-.364.25-.722.165-1.061l-.004-.017-.006-.015c-.17-.426-.547-.697-1.057-.842h-.001a10.064 10.064 0 01-1.67-.61c.487-.46.855-.885 1.096-1.277.281-.456.41-.901.302-1.31h0l-.001-.003c-.128-.47-.477-.757-.979-.872-.521-.12-1.119.047-1.769.424h0l-.005.003c-.64.39-1.054.905-1.205 1.545-.156.663.07 1.32.598 1.954h-.001l.005.006c.538.609 1.597 1.13 3.113 1.588a7.988 7.988 0 01-.111.186c-.145.233-.357.547-.637.942h0l-.003.005a114.472 114.472 0 00-1.74 2.636h0l-.004.006c-1.135 1.903-1.376 3.477-.477 4.6h0l.001.002c.488.6 1.195.886 2.08.886.563 0 1.218-.122 1.96-.358.797-.243 1.879-.822 3.239-1.717a96.932 96.932 0 003.482-2.388h0l.004-.004c.962-.729 2.27-1.756 3.924-3.079 2.121-1.657 3.432-2.639 3.947-2.961.165-.103.302-.246.347-.441.044-.193-.014-.38-.115-.543-.101-.18-.245-.33-.445-.386-.202-.058-.404-.006-.587.096zm-16.465-1.286a8.837 8.837 0 01-.644.65l.002-.01.005-.014.003-.015c.018-.087.086-.206.263-.354l.008-.007.008-.008a1.45 1.45 0 01.403-.298 1.82 1.82 0 01-.048.056z" fill="#fff" stroke="#000" stroke-width=".5"/><mask id="path-13-outside-3_24_2014" maskUnits="userSpaceOnUse" x="214.078" y="26.359" width="23" height="11" fill="#000"><path fill="#fff" d="M214.078 26.359h23v11h-23z"/><path d="M235.674 28.699c.297-.199.529-.15.694.148.199.298.166.53-.099.695-6.913 4.499-11.594 6.748-14.042 6.748-.728 0-1.29-.198-1.687-.595-.926-.926-.728-2.73.596-5.409a10.5 10.5 0 01-.447.397c-1.687 1.522-2.812 2.514-3.374 2.977-.562.464-.976.712-1.24.745h-.1c-.463 0-.744-.232-.843-.695-.199-.728.149-1.836 1.042-3.324.893-1.489 1.786-2.399 2.679-2.73.893-.363 1.588-.082 2.084.844.166.298.099.53-.198.695-.298.132-.53.05-.695-.248-.232-.397-.529-.513-.893-.348-.629.298-1.29 1.026-1.985 2.184-.728 1.157-1.091 2-1.091 2.53.363-.198 1.687-1.323 3.969-3.374a493.006 493.006 0 012.729-2.48c.033-.034.066-.05.099-.05.033-.034.066-.05.099-.05h.149c.033 0 .066.016.1.05h.148c0 .033.017.05.05.05l.05.049v.05h.049v.099c.033.033.05.066.05.099.033 0 .05.016.05.05v.099c0 .033-.017.066-.05.099 0 .033-.017.066-.05.1v.049a23.165 23.165 0 00-2.133 4.118c-.53 1.39-.579 2.3-.149 2.73.165.131.38.23.645.297.264.033.744-.017 1.439-.149.728-.165 1.571-.447 2.53-.843.993-.43 2.332-1.125 4.019-2.084 1.721-.96 3.656-2.134 5.806-3.523z"/></mask><path d="M235.674 28.699c.297-.199.529-.15.694.148.199.298.166.53-.099.695-6.913 4.499-11.594 6.748-14.042 6.748-.728 0-1.29-.198-1.687-.595-.926-.926-.728-2.73.596-5.409a10.5 10.5 0 01-.447.397c-1.687 1.522-2.812 2.514-3.374 2.977-.562.464-.976.712-1.24.745h-.1c-.463 0-.744-.232-.843-.695-.199-.728.149-1.836 1.042-3.324.893-1.489 1.786-2.399 2.679-2.73.893-.363 1.588-.082 2.084.844.166.298.099.53-.198.695-.298.132-.53.05-.695-.248-.232-.397-.529-.513-.893-.348-.629.298-1.29 1.026-1.985 2.184-.728 1.157-1.091 2-1.091 2.53.363-.198 1.687-1.323 3.969-3.374a493.006 493.006 0 012.729-2.48c.033-.034.066-.05.099-.05.033-.034.066-.05.099-.05h.149c.033 0 .066.016.1.05h.148c0 .033.017.05.05.05l.05.049v.05h.049v.099c.033.033.05.066.05.099.033 0 .05.016.05.05v.099c0 .033-.017.066-.05.099 0 .033-.017.066-.05.1v.049a23.165 23.165 0 00-2.133 4.118c-.53 1.39-.579 2.3-.149 2.73.165.131.38.23.645.297.264.033.744-.017 1.439-.149.728-.165 1.571-.447 2.53-.843.993-.43 2.332-1.125 4.019-2.084 1.721-.96 3.656-2.134 5.806-3.523z" fill="#fff"/><path d="M235.674 28.699l.271.42.006-.004-.277-.416zm.694.148l-.437.243.01.018.011.017.416-.278zm-.099.695l-.265-.424-.008.005.273.42zm-15.729 6.153l.354-.354-.354.354zm.596-5.409l.448.222-.802-.575.354.353zm-.447.397l-.325-.38-.01.009.335.371zm-3.374 2.977l.318.386-.318-.386zm-1.24.745v.5h.031l.031-.004-.062-.496zm-.943-.695l.489-.105-.003-.013-.004-.014-.482.132zm1.042-3.324l-.429-.258.429.258zm2.679-2.73l.174.47.007-.003.008-.003-.189-.463zm2.084.844l-.441.236.004.007.437-.243zm-.198.695l.203.457.02-.01.019-.01-.242-.437zm-.695-.248l.437-.243-.005-.01-.432.253zm-.893-.348l-.207-.455-.007.004.214.451zm-1.985 2.184l.424.266.005-.01-.429-.256zm-1.091 2.53h-.5v.842l.739-.403-.239-.439zm3.969-3.374l.334.372.003-.003-.337-.369zm2.729-2.48l.334.37.01-.008.01-.01-.354-.353zm.099-.05v.5h.207l.147-.147-.354-.354zm.348 0l-.354.353.146.146h.208v-.5zm.148 0h.5v-.5h-.5v.5zm.05.05l.354-.354-.147-.147h-.207v.5zm.05.049h.5V27.3l-.147-.147-.353.354zm0 .05h-.5v.5h.5v-.5zm.049 0h.5v-.5h-.5v.5zm0 .099h-.5v.207l.147.146.353-.353zm.05.099h-.5v.5h.5v-.5zm0 .248l-.354-.354-.146.147v.207h.5zm-.05.1l-.353-.354-.147.146v.207h.5zm0 .049l.419.272.081-.124v-.148h-.5zm-2.133 4.118l-.465-.184-.003.006.468.178zm-.149 2.73l-.354.353.02.02.021.017.313-.39zm.645.297l-.121.485.029.007.03.004.062-.496zm1.439-.149l.093.491.009-.002.009-.002-.111-.487zm2.53-.843l.192.462.007-.004-.199-.459zm4.019-2.084l-.243-.437-.004.002.247.434zm6.083-3.107a.437.437 0 01.069-.037l-.014.001a.163.163 0 01-.103-.032c-.003-.002-.001-.001.005.006a.354.354 0 01.023.037l.875-.485c-.122-.219-.321-.44-.631-.507-.302-.065-.574.048-.779.185l.555.832zm.001.01a.348.348 0 01.045.082c.002.009-.004-.005 0-.033a.147.147 0 01.012-.04.13.13 0 01.015-.028c.008-.01.007-.005-.02.012l.53.848c.213-.133.41-.344.453-.65.042-.289-.07-.547-.203-.746l-.832.555zm.044-.002c-3.447 2.244-6.326 3.918-8.639 5.03-2.332 1.12-4.027 1.637-5.13 1.637v1c1.345 0 3.215-.608 5.563-1.736 2.368-1.138 5.286-2.838 8.752-5.093l-.546-.838zm-13.769 6.667c-.636 0-1.056-.171-1.333-.449l-.707.707c.516.517 1.221.742 2.04.742v-1zm-1.333-.449c-.319-.319-.492-.826-.403-1.638.09-.818.443-1.879 1.093-3.195l-.897-.443c-.673 1.363-1.081 2.543-1.19 3.528-.109.991.082 1.848.69 2.455l.707-.707zm-.112-5.408c-.05.05-.183.17-.418.37l.65.76a9.77 9.77 0 00.475-.423l-.707-.707zm-.428.379c-1.689 1.523-2.805 2.508-3.357 2.963l.636.771c.572-.471 1.706-1.471 3.391-2.991l-.67-.743zm-3.357 2.963a5.839 5.839 0 01-.671.49c-.188.113-.285.14-.313.144l.124.992c.236-.03.477-.143.703-.278.236-.142.501-.336.793-.577l-.636-.771zm-.922.63h-.1v1h.1v-1zm-.1 0c-.147 0-.211-.036-.24-.06-.03-.025-.081-.085-.114-.24l-.978.21c.066.308.205.595.456.802.252.208.561.288.876.288v-1zm-.361-.327c-.064-.234-.053-.587.107-1.095.157-.503.446-1.115.881-1.84l-.857-.515c-.458.764-.789 1.45-.979 2.056-.188.6-.251 1.164-.117 1.658l.965-.264zm.988-2.935c.878-1.462 1.696-2.248 2.425-2.518l-.348-.937c-1.057.391-2.025 1.425-2.934 2.94l.857.515zm2.44-2.523c.362-.148.62-.14.814-.062.203.082.426.277.64.678l.882-.472c-.282-.525-.654-.934-1.146-1.133-.5-.202-1.036-.154-1.568.063l.378.926zm1.458.623a.305.305 0 01.026.06v-.012c0-.01.001-.02.005-.031a.095.095 0 01.012-.03.048.048 0 01.007-.01s-.004.005-.013.011a.377.377 0 01-.041.027l.485.874c.217-.12.429-.31.511-.598.083-.288.002-.56-.118-.777l-.874.486zm.036-.005a.203.203 0 01-.055.018h.009l.02.005c.016.006.021.012.016.008a.305.305 0 01-.045-.065l-.874.485c.119.215.299.418.567.514.271.097.541.05.768-.051l-.406-.914zm-.06-.043c-.149-.255-.356-.485-.648-.599-.304-.118-.612-.075-.884.048l.414.91a.278.278 0 01.091-.027c.011-.001.015 0 .017.001.006.003.063.028.146.17l.864-.503zm-1.539-.547c-.769.364-1.494 1.202-2.2 2.377l.858.515c.684-1.14 1.282-1.758 1.77-1.989l-.428-.903zm-2.194 2.369a11.92 11.92 0 00-.855 1.569c-.192.444-.313.862-.313 1.227h1c0-.164.06-.433.232-.831.168-.39.426-.867.782-1.433l-.846-.532zm-.429 3.235c.132-.072.313-.204.522-.368.218-.171.494-.4.828-.682a140.78 140.78 0 002.714-2.391l-.668-.744a140.214 140.214 0 01-2.694 2.373c-.328.279-.594.497-.797.657-.213.167-.334.25-.384.277l.479.878zm4.067-3.444a528.337 528.337 0 012.726-2.478l-.668-.743a459.21 459.21 0 00-2.732 2.483l.674.738zm2.746-2.496a.365.365 0 01-.255.096v-1a.642.642 0 00-.453.197l.708.707zm.099-.05a.365.365 0 01-.255.097v-1a.638.638 0 00-.452.196l.707.707zm-.255.097h.1v-1h-.1v1zm.1 0h.049v-1h-.049v1zm.049 0a.362.362 0 01-.254-.097l.707-.707a.638.638 0 00-.453-.196v1zm.1.05h.148v-1h-.148v1zm-.352-.5a.55.55 0 00.159.39.55.55 0 00.391.16v-1c.061 0 .198.015.316.133a.449.449 0 01.134.317h-1zm.55.05l-.354.353h.001s-.001 0 0 0l.003.003.009.01.015.015.01.01c.008.008-.002-.003.006.005l.003.003.002.002h.001v.001l.707-.707a.206.206 0 00-.011-.011l-.011-.01-.015-.016-.003-.003-.002-.003-.004-.003h-.001c0-.001.001 0 0 0v-.001h-.001s.001 0 0 0l-.001-.002-.354.353zm.05.049h-.5v.05h1v-.049h-.5zm0 .55h.049v-1h-.049v1zm.049-.5h-.5v.099h1v-.098h-.5zm-.353.452a.36.36 0 01-.097-.254h1a.643.643 0 00-.196-.453l-.707.707zm.403.246a.449.449 0 01-.316-.134.449.449 0 01-.134-.317h1a.55.55 0 00-.159-.39.55.55 0 00-.391-.16v1zm-.45-.45v.099h1v-.098h-1zm0 .099c0-.147.075-.233.096-.255l.707.708a.639.639 0 00.197-.453h-1zm-.05.099a.36.36 0 01.097-.254l.707.707a.643.643 0 00.196-.453h-1zm.45.1h-.5v.049h1v-.048h-.5zm-.419-.224a23.663 23.663 0 00-2.179 4.207l.93.368a22.67 22.67 0 012.087-4.03l-.838-.545zm-2.182 4.213c-.273.717-.437 1.346-.466 1.875-.028.526.075 1.029.431 1.386l.707-.707c-.073-.074-.16-.24-.139-.624.021-.382.146-.901.402-1.574l-.935-.356zm.006 3.297c.236.189.522.314.837.393l.242-.97a1.182 1.182 0 01-.454-.203l-.625.78zm.896.404c.353.044.906-.023 1.594-.154l-.187-.982c-.701.133-1.107.166-1.283.144l-.124.992zm1.612-.157c.763-.174 1.634-.466 2.611-.87l-.383-.924c-.942.39-1.758.661-2.45.818l.222.975zm2.618-.873c1.017-.44 2.375-1.146 4.068-2.108l-.495-.87c-1.681.957-3.003 1.641-3.97 2.06l.397.918zm4.064-2.106c1.732-.966 3.676-2.146 5.833-3.54l-.543-.84c-2.143 1.386-4.069 2.554-5.777 3.507l.487.873z" fill="#000" mask="url(#path-13-outside-3_24_2014)"/><mask id="path-15-outside-4_24_2014" maskUnits="userSpaceOnUse" x="196.323" y="26.259" width="23" height="11" fill="#000"><path fill="#fff" d="M196.323 26.259h23v11h-23z"/><path d="M217.576 28.649c.298-.133.513-.034.645.297.132.298.033.513-.298.645-4.598 1.886-7.972 2.829-10.122 2.829-1.158.033-1.985-.248-2.481-.844-.43-.53-.529-1.24-.298-2.134-.76.728-1.902 1.985-3.423 3.772a71.17 71.17 0 01-1.985 2.282c-.43.43-.794.711-1.092.843a.531.531 0 01-.297.1c-.331 0-.563-.166-.695-.496-.331-.662-.265-2.118.198-4.367.43-2.282.91-3.572 1.439-3.87.265-.133.48-.066.645.198.166.298.116.53-.148.695-.265.298-.579 1.34-.943 3.126-.364 1.753-.48 2.944-.348 3.572.331-.297 1.158-1.207 2.481-2.729 2.382-2.844 4.119-4.581 5.21-5.21l.05-.05h.05c.033-.032.066-.049.099-.049h.198c0 .033.033.05.1.05v.05h.049l.05.099.099.05v.049l.05.05v.297l-.05.1v.05a6.323 6.323 0 00-.496.843 6.087 6.087 0 00-.348 1.091c-.066.43 0 .745.199.943.132.132.298.248.496.347.199.1.579.15 1.141.15.563 0 1.224-.067 1.985-.2.794-.132 1.869-.413 3.225-.843a90.886 90.886 0 004.615-1.736z"/></mask><path d="M217.576 28.649c.298-.133.513-.034.645.297.132.298.033.513-.298.645-4.598 1.886-7.972 2.829-10.122 2.829-1.158.033-1.985-.248-2.481-.844-.43-.53-.529-1.24-.298-2.134-.76.728-1.902 1.985-3.423 3.772a71.17 71.17 0 01-1.985 2.282c-.43.43-.794.711-1.092.843a.531.531 0 01-.297.1c-.331 0-.563-.166-.695-.496-.331-.662-.265-2.118.198-4.367.43-2.282.91-3.572 1.439-3.87.265-.133.48-.066.645.198.166.298.116.53-.148.695-.265.298-.579 1.34-.943 3.126-.364 1.753-.48 2.944-.348 3.572.331-.297 1.158-1.207 2.481-2.729 2.382-2.844 4.119-4.581 5.21-5.21l.05-.05h.05c.033-.032.066-.049.099-.049h.198c0 .033.033.05.1.05v.05h.049l.05.099.099.05v.049l.05.05v.297l-.05.1v.05a6.323 6.323 0 00-.496.843 6.087 6.087 0 00-.348 1.091c-.066.43 0 .745.199.943.132.132.298.248.496.347.199.1.579.15 1.141.15.563 0 1.224-.067 1.985-.2.794-.132 1.869-.413 3.225-.843a90.886 90.886 0 004.615-1.736z" fill="#fff"/><path d="M217.576 28.649l.187.463.008-.003.008-.004-.203-.456zm.645.297l-.464.186.003.009.004.008.457-.203zm-.298.645l-.186-.464-.004.002.19.462zm-10.122 2.829v-.5h-.014l.014.5zm-2.481-.844l-.388.315.004.005.384-.32zm-.298-2.134l.484.126.442-1.703-1.271 1.216.345.361zm-3.423 3.772l-.381-.325-.001.002.382.323zm-1.985 2.282l.354.353.006-.006.006-.007-.366-.34zm-1.092.843l-.203-.456-.039.017-.035.023.277.416zm-.992-.396l.464-.186-.008-.02-.009-.018-.447.224zm.198-4.367l.49.1.002-.007-.492-.093zm1.439-3.87l-.223-.447-.011.005-.011.006.245.436zm.645.198l.438-.242-.007-.012-.007-.01-.424.264zm-.148.695l-.265-.424-.061.038-.048.054.374.332zm-.943 3.126l.489.101.001-.001-.49-.1zm-.348 3.572l-.489.104.179.849.645-.58-.335-.373zm2.481-2.729l.378.329.006-.008-.384-.32zm5.21-5.21l.25.434.057-.033.047-.047-.354-.354zm.05-.05v-.5h-.207l-.147.147.354.354zm.05 0v.5h.207l.146-.145-.353-.354zm.297-.049h.5v-.5h-.5v.5zm.1.05h.5v-.5h-.5v.5zm0 .05h-.5v.5h.5v-.5zm.049 0l.447-.224-.138-.277h-.309v.5zm.05.099l-.447.223.074.15.149.074.224-.447zm.099.05h.5v-.31l-.276-.138-.224.447zm0 .049h-.5v.207l.146.146.354-.353zm.05.05h.5V27.4l-.147-.147-.353.354zm0 .297l.447.224.053-.106v-.118h-.5zm-.05.1l-.447-.224-.053.105v.119h.5zm0 .05l.407.29.093-.13v-.16h-.5zm-.496.843l-.447-.224-.005.01-.005.01.457.204zm-.348 1.091l-.487-.112-.004.018-.003.018.494.076zm.199.943l.354-.354-.354.354zm.496.347l.224-.447-.224.447zm3.126-.05l-.082-.493-.004.001.086.493zm3.225-.843l.151.477.011-.004-.162-.473zm4.818-1.28c.034-.015.045-.014.037-.013-.005 0-.014 0-.027-.002a.17.17 0 01-.066-.03l-.006-.004a.572.572 0 01.04.076l.928-.371c-.09-.226-.245-.466-.515-.591-.282-.13-.568-.08-.797.022l.406.913zm-.015.044c.015.035.014.046.014.037a.066.066 0 01.002-.026.145.145 0 01.029-.067c.004-.006.007-.007.005-.005-.003.002-.009.007-.022.014a.476.476 0 01-.055.025l.372.929c.225-.09.466-.245.591-.516.13-.282.079-.568-.022-.797l-.914.406zm-.031-.02c-4.596 1.885-7.889 2.79-9.932 2.79v1c2.258 0 5.712-.979 10.312-2.865l-.38-.925zm-9.946 2.79c-1.083.032-1.726-.235-2.083-.663l-.768.64c.635.763 1.646 1.059 2.879 1.023l-.028-1zm-2.079-.658c-.297-.366-.409-.895-.202-1.693l-.968-.251c-.256.988-.169 1.881.394 2.574l.776-.63zm-1.031-2.18c-.781.747-1.936 2.02-3.459 3.808l.761.649c1.521-1.785 2.648-3.025 3.389-3.734l-.691-.723zm-3.46 3.81a72.012 72.012 0 01-1.969 2.265l.732.68a71.72 71.72 0 002.001-2.3l-.764-.645zm-1.957 2.251c-.417.418-.729.646-.941.74l.406.914c.384-.17.8-.504 1.243-.947l-.708-.707zm-1.015.781a.143.143 0 01-.03.017l.01-.001v1c.216 0 .41-.074.575-.184l-.555-.832zm-.02.016c-.079 0-.114-.019-.131-.031-.021-.015-.06-.052-.1-.151l-.928.371c.093.232.235.443.446.593.214.153.461.218.713.218v-1zm-.248-.22c-.105-.21-.178-.631-.146-1.342.031-.69.158-1.588.387-2.7l-.979-.202c-.234 1.138-.372 2.093-.407 2.857-.034.745.025 1.383.251 1.834l.894-.447zm.243-4.05c.213-1.13.434-1.992.659-2.598.113-.303.222-.529.323-.688.104-.163.179-.224.211-.241l-.491-.872c-.233.131-.416.344-.564.577a4.67 4.67 0 00-.416.875c-.254.684-.488 1.609-.705 2.761l.983.186zm1.171-3.516c.028-.014.038-.014.034-.014h-.017a.125.125 0 01-.051-.014l-.006-.005.012.013.025.036.848-.53a1.028 1.028 0 00-.562-.46.974.974 0 00-.73.08l.447.894zm-.016-.006a.306.306 0 01.033.075v-.002c0-.005 0-.014.002-.023a.207.207 0 01.01-.029.08.08 0 01.01-.016c.003-.004-.003.005-.031.023l.53.848a.967.967 0 00.459-.617c.059-.277-.022-.535-.138-.744l-.875.485zm-.085.12c-.12.134-.214.314-.293.497a6.36 6.36 0 00-.246.695 25.098 25.098 0 00-.52 2.166l.98.2c.18-.887.346-1.577.497-2.077a5.8 5.8 0 01.207-.588c.066-.152.11-.215.122-.229l-.747-.664zm-1.059 3.356a22.098 22.098 0 00-.368 2.262c-.059.61-.061 1.126.021 1.516l.979-.207c-.05-.238-.061-.632-.004-1.213.055-.57.172-1.288.351-2.155l-.979-.203zm.477 4.046c.359-.323 1.21-1.261 2.524-2.772l-.755-.657c-1.332 1.533-2.136 2.414-2.438 2.686l.669.743zm2.53-2.78c1.185-1.416 2.205-2.549 3.059-3.403.86-.86 1.53-1.414 2.017-1.694l-.499-.867c-.605.348-1.35.978-2.225 1.854-.883.882-1.923 2.04-3.119 3.469l.767.641zm5.18-5.177l.037-.037a.584.584 0 01.012-.012l-.353-.354-.354-.354v.001a1.172 1.172 0 01-.012.012l-.037.037.707.707zm-.304.097h.05v-1h-.05v1zm.403-.146a.362.362 0 01-.254.096v-1a.64.64 0 00-.453.196l.707.708zm-.254-.404v.5h.099v-1h-.099v.5zm.099.5h.099v-1h-.099v1zm-.401-.5a.544.544 0 00.301.485.67.67 0 00.299.065v-1a.386.386 0 01.149.04.458.458 0 01.251.41h-1zm.6.05h-.5v.05h1v-.049h-.5zm0 .55h.049v-1h-.049v1zm.049-.5l-.447.223.001.002.002.004.009.019.038.074.894-.447a2.959 2.959 0 01-.037-.074l-.01-.019-.002-.004v-.002h-.001l-.447.223zm-.174.546l.044.022.004.002.004.002.009.004.014.007.01.006.008.003c.003.002-.002 0 .001 0v.001h.001c.005.003-.005-.002.001 0l.001.001c.004.002-.003-.001.001 0l.001.001.224-.447.224-.447c-.001 0 0 0 0 0h-.002l-.001-.001c-.001 0 .001 0 0 0h-.001l-.003-.002h-.001l-.002-.002-.004-.002-.011-.005a.228.228 0 01-.014-.007l-.008-.004-.009-.005-.01-.005-.01-.005h-.002c-.001-.001 0 0 0 0l-.001-.001c-.026-.013.023.011-.003-.002-.007-.003.005.003-.003-.001l-.003-.002-.012-.005-.447.894zm.323-.398h-.5v.051h1v-.049h-.5zm-.354.403l.012.012.01.01.016.016.009.01c.001 0-.001-.002.001 0 .001.001-.001-.001 0 0l.001.001h.001v.001l.354-.353.353-.354s.001 0 0 0h-.001c-.004-.005.003.001-.002-.003l-.002-.002h-.001v-.001h-.001l-.002-.003-.003-.003-.016-.016-.01-.01c-.017-.017.012.012-.005-.006l-.003-.003-.002-.001h-.001v-.001l-.708.706zm-.096-.303v.099h1v-.098h-1zm.5.099h-.5v.1h1v-.099h-.5zm-.5.1v.099h1v-.098h-1zm.5.098l-.448-.223v.001a4.762 4.762 0 00-.012.023l-.037.075.894.447a3.106 3.106 0 00.047-.093l.002-.005h.001v-.001l-.447-.224zm-.55.1v.05h1v-.049h-1zm.093-.241a6.76 6.76 0 00-.536.91l.894.447a5.78 5.78 0 01.456-.776l-.814-.581zm-.546.93a6.563 6.563 0 00-.378 1.183l.975.225c.094-.41.201-.74.317-1.001l-.914-.406zm-.385 1.22c-.076.498-.023 1.01.339 1.372l.708-.707c-.035-.035-.114-.152-.058-.514l-.989-.152zm.339 1.372c.177.176.389.322.627.44l.447-.894a1.391 1.391 0 01-.366-.253l-.708.707zm.627.44c.172.087.381.133.593.16.219.03.478.042.771.042v-1a5.13 5.13 0 01-.642-.033.998.998 0 01-.275-.063l-.447.895zm1.364.202c.6 0 1.291-.07 2.071-.206l-.172-.985c-.742.13-1.373.191-1.899.191v1zm2.067-.205c.829-.138 1.93-.428 3.294-.86l-.302-.953c-1.348.427-2.397.7-3.156.826l.164.987zm3.305-.864a91.512 91.512 0 004.64-1.746l-.374-.927a90.987 90.987 0 01-4.589 1.727l.323.946z" fill="#000" mask="url(#path-15-outside-4_24_2014)"/><path d="M198.035 28.629h0l-.011.006c-.543.34-1.895 1.359-4.041 3.042-2.66 2.083-4.847 3.704-6.56 4.865-1.722 1.167-2.943 1.854-3.682 2.09-.665.211-1.192.301-1.589.286-.394-.015-.631-.13-.769-.303-.189-.24-.264-.58-.173-1.063.091-.488.347-1.095.787-1.828l.001-.001c.425-.72.984-1.575 1.676-2.564h0l.004-.005c.46-.69.768-1.2.911-1.52.18-.364.25-.722.165-1.061l-.004-.017-.006-.015c-.171-.426-.548-.697-1.057-.842h-.001a10.064 10.064 0 01-1.67-.61c.487-.46.855-.885 1.096-1.277.281-.456.409-.901.302-1.31h0l-.001-.003c-.128-.47-.478-.757-.979-.872-.521-.12-1.119.047-1.769.424h0l-.005.003c-.64.39-1.054.905-1.205 1.545-.156.663.069 1.32.597 1.954h0l.005.006c.537.609 1.597 1.13 3.113 1.588a7.988 7.988 0 01-.111.186c-.145.233-.357.547-.637.942h0l-.003.005a114.906 114.906 0 00-1.741 2.636h0l-.003.006c-1.136 1.903-1.376 3.477-.477 4.6h0l.001.002c.488.6 1.195.886 2.08.886.563 0 1.218-.122 1.96-.358.796-.243 1.879-.822 3.238-1.717a96.168 96.168 0 003.483-2.388h0l.004-.004c.962-.729 2.27-1.756 3.924-3.079 2.121-1.657 3.431-2.639 3.947-2.961.165-.103.302-.246.347-.441.044-.193-.014-.38-.115-.543-.102-.18-.245-.33-.445-.386-.202-.058-.404-.006-.587.096zm-16.465-1.286a8.876 8.876 0 01-.645.65l.003-.01.005-.014.003-.015c.017-.087.085-.206.262-.354l.009-.007.008-.008a1.45 1.45 0 01.403-.298l-.048.056z" fill="#fff" stroke="#000" stroke-width=".5"/><mask id="path-18-outside-5_24_2014" maskUnits="userSpaceOnUse" x="158.838" y="26.359" width="23" height="11" fill="#000"><path fill="#fff" d="M158.838 26.359h23v11h-23z"/><path d="M180.435 28.699c.297-.199.529-.15.694.148.199.298.166.53-.099.695-6.914 4.499-11.594 6.748-14.042 6.748-.728 0-1.29-.198-1.687-.595-.926-.926-.728-2.73.595-5.409a9.949 9.949 0 01-.446.397c-1.687 1.522-2.812 2.514-3.374 2.977-.563.464-.976.712-1.241.745h-.099c-.463 0-.744-.232-.843-.695-.199-.728.148-1.836 1.041-3.324.894-1.489 1.787-2.399 2.68-2.73.893-.363 1.588-.082 2.084.844.165.298.099.53-.199.695-.297.132-.529.05-.694-.248-.232-.397-.53-.513-.893-.348-.629.298-1.29 1.026-1.985 2.184-.728 1.157-1.092 2-1.092 2.53.364-.198 1.687-1.323 3.97-3.374a458.818 458.818 0 012.729-2.48c.033-.034.066-.05.099-.05.033-.034.066-.05.099-.05h.149c.033 0 .066.016.099.05h.149c0 .033.017.05.05.05l.049.049v.05h.05v.099c.033.033.05.066.05.099.033 0 .049.016.049.05v.099c0 .033-.016.066-.049.099 0 .033-.017.066-.05.1v.049a23.236 23.236 0 00-2.134 4.118c-.529 1.39-.578 2.3-.148 2.73.165.131.38.23.645.297.264.033.744-.017 1.439-.149.727-.165 1.571-.447 2.53-.843.992-.43 2.332-1.125 4.019-2.084 1.72-.96 3.655-2.134 5.806-3.523z"/></mask><path d="M180.435 28.699c.297-.199.529-.15.694.148.199.298.166.53-.099.695-6.914 4.499-11.594 6.748-14.042 6.748-.728 0-1.29-.198-1.687-.595-.926-.926-.728-2.73.595-5.409a9.949 9.949 0 01-.446.397c-1.687 1.522-2.812 2.514-3.374 2.977-.563.464-.976.712-1.241.745h-.099c-.463 0-.744-.232-.843-.695-.199-.728.148-1.836 1.041-3.324.894-1.489 1.787-2.399 2.68-2.73.893-.363 1.588-.082 2.084.844.165.298.099.53-.199.695-.297.132-.529.05-.694-.248-.232-.397-.53-.513-.893-.348-.629.298-1.29 1.026-1.985 2.184-.728 1.157-1.092 2-1.092 2.53.364-.198 1.687-1.323 3.97-3.374a458.818 458.818 0 012.729-2.48c.033-.034.066-.05.099-.05.033-.034.066-.05.099-.05h.149c.033 0 .066.016.099.05h.149c0 .033.017.05.05.05l.049.049v.05h.05v.099c.033.033.05.066.05.099.033 0 .049.016.049.05v.099c0 .033-.016.066-.049.099 0 .033-.017.066-.05.1v.049a23.236 23.236 0 00-2.134 4.118c-.529 1.39-.578 2.3-.148 2.73.165.131.38.23.645.297.264.033.744-.017 1.439-.149.727-.165 1.571-.447 2.53-.843.992-.43 2.332-1.125 4.019-2.084 1.72-.96 3.655-2.134 5.806-3.523z" fill="#fff"/><path d="M180.435 28.699l.271.42.006-.004-.277-.416zm.694.148l-.437.243.01.018.011.017.416-.278zm-.099.695l-.265-.424-.008.005.273.42zm-15.729 6.153l.353-.354-.353.354zm.595-5.409l.449.222-.802-.575.353.353zm-.446.397l-.326-.38-.009.009.335.371zm-3.374 2.977l.318.386-.318-.386zm-1.241.745v.5h.031l.031-.004-.062-.496zm-.942-.695l.488-.105-.002-.013-.004-.014-.482.132zm1.041-3.324l-.428-.258.428.258zm2.68-2.73l.174.47.007-.003.008-.003-.189-.463zm2.084.844l-.441.236.004.007.437-.243zm-.199.695l.203.457.021-.01.019-.01-.243-.437zm-.694-.248l.437-.243-.005-.01-.432.253zm-.893-.348l-.207-.455-.007.004.214.451zm-1.985 2.184l.423.266.006-.01-.429-.256zm-1.092 2.53h-.5v.842l.74-.403-.24-.439zm3.97-3.374l.334.372.003-.003-.337-.369zm2.729-2.48l.334.37.01-.008.009-.01-.353-.353zm.099-.05v.5h.207l.147-.147-.354-.354zm.347 0l-.353.353.146.146h.207v-.5zm.149 0h.5v-.5h-.5v.5zm.05.05l.353-.354-.146-.147h-.207v.5zm.049.049h.5V27.3l-.146-.147-.354.354zm0 .05h-.5v.5h.5v-.5zm.05 0h.5v-.5h-.5v.5zm0 .099h-.5v.207l.146.146.354-.353zm.05.099h-.5v.5h.5v-.5zm0 .248l-.354-.354-.146.147v.207h.5zm-.05.1l-.354-.354-.146.146v.207h.5zm0 .049l.419.272.081-.124v-.148h-.5zm-2.134 4.118l-.465-.184-.002.006.467.178zm-.148 2.73l-.354.353.02.02.021.017.313-.39zm.645.297l-.122.485.03.007.03.004.062-.496zm1.439-.149l.093.491.009-.002.008-.002-.11-.487zm2.53-.843l.191.462.008-.004-.199-.459zm4.019-2.084l-.243-.437-.004.002.247.434zm6.083-3.107a.442.442 0 01.049-.03l.02-.007-.015.001c-.01 0-.024 0-.039-.003a.163.163 0 01-.042-.015c-.012-.006-.019-.012-.022-.014l.005.006a.225.225 0 01.024.037l.874-.485c-.121-.219-.32-.44-.63-.507-.302-.065-.574.048-.779.185l.555.832zm.001.01a.326.326 0 01.044.082c.003.009-.003-.005.001-.033a.189.189 0 01.011-.04.183.183 0 01.016-.028c.008-.01.007-.005-.02.012l.53.848c.213-.133.409-.344.453-.65.041-.289-.07-.547-.203-.746l-.832.555zm.044-.002c-3.448 2.244-6.326 3.918-8.639 5.03-2.332 1.12-4.027 1.637-5.13 1.637v1c1.345 0 3.214-.608 5.563-1.736 2.367-1.138 5.286-2.838 8.752-5.093l-.546-.838zm-13.769 6.667c-.636 0-1.056-.171-1.334-.449l-.707.707c.517.517 1.222.742 2.041.742v-1zm-1.334-.449c-.318-.319-.491-.826-.402-1.638.09-.818.442-1.879 1.093-3.195l-.897-.443c-.673 1.363-1.081 2.543-1.19 3.528-.109.991.082 1.848.689 2.455l.707-.707zm-.111-5.408c-.05.05-.184.17-.419.37l.651.76c.228-.196.393-.34.475-.423l-.707-.707zm-.428.379c-1.689 1.523-2.805 2.508-3.357 2.963l.636.771c.572-.471 1.705-1.471 3.391-2.991l-.67-.743zm-3.357 2.963a5.928 5.928 0 01-.671.49c-.188.113-.286.14-.314.144l.124.992c.237-.03.478-.143.704-.278.236-.142.501-.336.793-.577l-.636-.771zm-.923.63h-.099v1h.099v-1zm-.099 0c-.148 0-.211-.036-.24-.06-.031-.025-.081-.085-.115-.24l-.977.21c.066.308.205.595.456.802.252.208.561.288.876.288v-1zm-.361-.327c-.064-.234-.053-.587.106-1.095.158-.503.447-1.115.882-1.84l-.857-.515c-.458.764-.789 1.45-.979 2.056-.188.6-.251 1.164-.117 1.658l.965-.264zm.988-2.935c.877-1.462 1.696-2.248 2.425-2.518l-.348-.937c-1.057.391-2.025 1.425-2.934 2.94l.857.515zm2.44-2.523c.362-.148.619-.14.814-.062.203.082.425.277.64.678l.882-.472c-.282-.525-.655-.934-1.147-1.133-.5-.202-1.036-.154-1.567.063l.378.926zm1.458.623a.473.473 0 01.026.06v-.012c0-.01.001-.02.005-.031a.095.095 0 01.012-.03.048.048 0 01.007-.01c-.001 0-.004.005-.013.011a.377.377 0 01-.041.027l.485.874c.216-.12.429-.31.511-.598.082-.288.002-.56-.118-.777l-.874.486zm.035-.005a.186.186 0 01-.054.018h.008a.11.11 0 01.021.005c.015.006.021.012.016.008a.27.27 0 01-.045-.065l-.874.485c.119.215.299.418.566.514.272.097.541.05.768-.051l-.406-.914zm-.059-.043c-.149-.255-.356-.485-.648-.599-.304-.118-.612-.075-.884.048l.413.91a.293.293 0 01.091-.027c.012-.001.015 0 .018.001.006.003.063.028.146.17l.864-.503zm-1.539-.547c-.769.364-1.495 1.202-2.2 2.377l.858.515c.684-1.14 1.281-1.758 1.77-1.989l-.428-.903zm-2.194 2.369a11.92 11.92 0 00-.855 1.569c-.192.444-.314.862-.314 1.227h1c0-.164.06-.433.232-.831.168-.39.427-.867.783-1.433l-.846-.532zm-.429 3.235c.132-.072.313-.204.522-.368.218-.171.494-.4.827-.682.667-.567 1.572-1.364 2.715-2.391l-.668-.744a140.214 140.214 0 01-2.694 2.373c-.329.279-.594.497-.798.657-.212.167-.333.25-.383.277l.479.878zm4.067-3.444a528.337 528.337 0 012.726-2.478l-.669-.743a459.21 459.21 0 00-2.732 2.483l.675.738zm2.745-2.496a.362.362 0 01-.254.096v-1a.642.642 0 00-.453.197l.707.707zm.1-.05a.365.365 0 01-.255.097v-1a.642.642 0 00-.453.196l.708.707zm-.255.097h.099v-1h-.099v1zm.099 0h.05v-1h-.05v1zm.05 0a.362.362 0 01-.254-.097l.707-.707a.64.64 0 00-.453-.196v1zm.099.05h.149v-1h-.149v1zm-.351-.5a.55.55 0 00.159.39.55.55 0 00.391.16v-1a.45.45 0 01.316.133.449.449 0 01.134.317h-1zm.55.05l-.354.353h.001l.002.003.01.01.015.015.01.01c.008.008-.002-.003.006.005l.003.003.001.002h.001l.001.001.707-.707-.012-.011-.01-.01-.015-.016a.01.01 0 01-.003-.003l-.003-.003-.004-.003c-.001-.001.001 0 0 0v-.001h-.001l-.001-.002h-.001l-.353.353zm.049.049h-.5v.05h1v-.049h-.5zm0 .55h.05v-1h-.05v1zm.05-.5h-.5v.099h1v-.098h-.5zm-.354.452a.365.365 0 01-.096-.254h1a.643.643 0 00-.196-.453l-.708.707zm.404.246a.452.452 0 01-.317-.134.453.453 0 01-.134-.317h1a.55.55 0 00-.159-.39.549.549 0 00-.39-.16v1zm-.451-.45v.099h1v-.098h-1zm0 .099c0-.147.076-.233.097-.255l.707.708a.638.638 0 00.196-.453h-1zm-.049.099c0-.146.075-.233.096-.254l.708.707a.643.643 0 00.196-.453h-1zm.45.1h-.5v.049h1v-.048h-.5zm-.419-.224a23.669 23.669 0 00-2.18 4.207l.93.368a22.741 22.741 0 012.088-4.03l-.838-.545zm-2.182 4.213c-.273.717-.437 1.346-.466 1.875-.029.526.074 1.029.431 1.386l.707-.707c-.073-.074-.16-.24-.139-.624.02-.382.145-.901.402-1.574l-.935-.356zm.006 3.297c.235.189.521.314.836.393l.243-.97a1.175 1.175 0 01-.454-.203l-.625.78zm.896.404c.353.044.906-.023 1.594-.154l-.187-.982c-.701.133-1.107.166-1.283.144l-.124.992zm1.611-.157c.764-.174 1.635-.466 2.611-.87l-.382-.924c-.943.39-1.758.661-2.45.818l.221.975zm2.619-.873c1.017-.44 2.375-1.146 4.067-2.108l-.494-.87c-1.682.957-3.003 1.641-3.971 2.06l.398.918zm4.064-2.106c1.732-.966 3.676-2.146 5.833-3.54l-.543-.84c-2.143 1.386-4.069 2.554-5.777 3.507l.487.873z" fill="#000" mask="url(#path-18-outside-5_24_2014)"/><path d="M183.504.832h0c.184-.081.385-.115.576-.041.188.072.313.227.395.406.098.18.147.38.091.578-.058.202-.21.346-.392.447l-.008.005-.009.004c-1.275.588-2.635 1.375-4.082 2.361h-.001c-1.413.954-2.911 2.106-4.493 3.457a201.476 201.476 0 00-4.509 3.964h-.001c-1.383 1.253-2.984 2.82-4.8 4.702a342.404 342.404 0 00-4.562 4.81l-.002.002c-1.254 1.32-2.823 3.054-4.707 5.203l-.001.001a373.535 373.535 0 00-4.314 4.909l-.002.002a515.345 515.345 0 00-4.216 4.86h0c-4.895 5.69-8.422 9.632-10.579 11.822-1.063 1.096-1.98 1.926-2.749 2.483-.757.55-1.413.867-1.945.867-1.085 0-1.939-.496-2.543-1.456M183.504.832l-52.642 49.252M183.504.832l-.008.004c-1.505.736-3.154 1.753-4.948 3.049a75.04 75.04 0 00-5.027 3.932c-1.594 1.328-3.435 3.02-5.522 5.073a255.93 255.93 0 00-5.314 5.365 306.61 306.61 0 00-5.512 5.959l-.002.001a879.594 879.594 0 00-5.013 5.659l-.002.002a930.657 930.657 0 01-4.861 5.655l-.001.001a364.036 364.036 0 01-4.909 5.653l-.002.002a152.81 152.81 0 01-3.963 4.36h0l-.004.003c-1.52 1.685-2.701 2.883-3.548 3.599a8.25 8.25 0 01-1.07.794c-.298.178-.493.238-.604.238-.493 0-.917-.238-1.278-.777M183.504.832l-26.146 23.55a871.07 871.07 0 00-5.012 5.656 912.582 912.582 0 01-4.862 5.657c-2.15 2.514-3.788 4.4-4.912 5.656a152.864 152.864 0 01-3.97 4.367c-1.522 1.687-2.712 2.894-3.572 3.622-.86.727-1.472 1.091-1.836 1.091-.596 0-1.092-.297-1.489-.893m-1.054.68h-.001l.212-.134m-.211.134s0 0 0 0l.211-.134m-.211.134c-.248-.39-.455-.876-.625-1.453l-.003-.01h.001c-.139-.554-.239-1.451-.305-2.677v-.006h0c-.034-1.207.05-2.61.25-4.206h0c.2-1.57.616-3.63 1.245-6.182l.001-.003c.664-2.554 1.526-5.356 2.586-8.404l.001-.003c1.094-3.05 2.568-6.742 4.421-11.078l.001-.001c1.887-4.37 4.071-9.053 6.553-14.05m-13.915 47.939c-.232-.364-.43-.827-.596-1.39-.132-.529-.231-1.405-.297-2.63-.034-1.19.049-2.58.248-4.167.198-1.555.612-3.606 1.24-6.153.662-2.547 1.522-5.342 2.58-8.385 1.092-3.044 2.564-6.732 4.416-11.065 1.886-4.367 4.069-9.047 6.55-14.042m-.226-.107l-.003.005.229.102m-.226-.107c.082-.182.212-.343.413-.405.196-.06.394-.006.57.09.179.081.334.207.407.394.073.191.039.392-.043.576l-.004.01h0c-2.744 5.52-5.123 10.675-7.138 15.466-1.983 4.792-3.535 8.903-4.657 12.335-1.09 3.4-1.897 6.434-2.424 9.102-.528 2.67-.772 4.767-.74 6.294m13.616-43.862l.002-.004.224.11m0 0c.132-.297.347-.363.645-.198.298.133.38.348.248.645-2.746 5.525-5.127 10.685-7.145 15.481-1.985 4.797-3.539 8.915-4.664 12.355-1.092 3.407-1.902 6.45-2.431 9.13-.53 2.68-.778 4.797-.745 6.351.066 1.588.331 2.762.794 3.523m0 0l.214-.13-.003-.004m-.211.134l-.544-3.53m.755 3.396c-.428-.706-.689-1.827-.755-3.397m.755 3.397l-.755-3.397m52.892-44.003c-1.291.595-2.663 1.39-4.119 2.382l3.672-3.325c.298-.132.513-.05.645.248.165.298.099.53-.198.695z" fill="#fff" stroke="#000" stroke-width=".5"/><path d="M306.102 57.36c-.546 0-1.019-.077-1.419-.231a1.803 1.803 0 01-.914-.792c-.209-.382-.314-.896-.314-1.542v-7.013h1.255v7.177c0 .391.105.696.314.914.219.21.523.314.914.314h1.283v1.174h-1.119zm-3.902-6.385v-.983h5.021v.983H302.2zm-7.664 6.304v-7.287h1.037v3.125h-.164c0-.719.096-1.324.287-1.815.2-.5.5-.878.901-1.132.4-.264.905-.396 1.514-.396h.055c.918 0 1.596.286 2.033.86.446.573.668 1.4.668 2.483v4.162h-1.309v-4.435c0-.564-.16-1.014-.478-1.35-.318-.346-.755-.52-1.31-.52-.573 0-1.037.178-1.392.533-.355.355-.532.828-.532 1.419v4.353h-1.31zm-3.441 0v-2.184h-.219v-2.524c0-.5-.132-.878-.395-1.133-.255-.254-.633-.382-1.133-.382-.282 0-.573.005-.873.014l-.86.027a13.7 13.7 0 00-.709.041v-1.146c.2-.018.409-.032.627-.04.228-.02.46-.028.696-.028.237-.01.464-.014.682-.014.746 0 1.356.091 1.829.273.473.173.823.46 1.05.86.228.4.342.941.342 1.623v4.613h-1.037zm-2.388.19c-.546 0-1.019-.09-1.419-.272a2.16 2.16 0 01-.915-.82c-.209-.354-.313-.781-.313-1.282 0-.518.113-.95.341-1.296.236-.346.577-.605 1.023-.778.446-.182.983-.273 1.61-.273h1.979v.983h-2.033c-.528 0-.933.127-1.215.382a1.264 1.264 0 00-.423.982c0 .4.141.724.423.97.282.245.687.367 1.215.367.309 0 .605-.054.887-.163.282-.118.514-.31.695-.573.191-.273.296-.646.314-1.12l.355.52c-.045.518-.173.954-.382 1.31a1.97 1.97 0 01-.846.79c-.355.183-.787.273-1.296.273zm-4.965-.109c-.545 0-1.019-.077-1.419-.231a1.803 1.803 0 01-.914-.792c-.209-.382-.314-.896-.314-1.542v-7.013h1.256v7.177c0 .391.104.696.313.914.219.21.523.314.915.314h1.282v1.174h-1.119zm-3.902-6.385v-.983h5.021v.983h-5.021zm-2.758 6.304v-9.961h1.31v9.96h-1.31zm-1.01-8.924v-1.037h2.32v1.037h-2.32zm-5.116 9.142c-.864 0-1.528-.282-1.992-.846-.464-.564-.696-1.378-.696-2.443v-4.23h1.31v4.49c0 .573.155 1.023.464 1.35.309.319.728.478 1.255.478.546 0 .992-.173 1.337-.518.346-.355.519-.837.519-1.447v-4.353h1.31v7.3h-1.037v-3.124h.164c0 .718-.096 1.328-.287 1.828-.191.492-.477.87-.86 1.133-.373.255-.85.382-1.432.382h-.055zm-7.452 0c-.955 0-1.696-.205-2.224-.614-.518-.41-.787-.969-.805-1.678h1.228c.018.282.159.55.423.805.273.245.732.368 1.378.368.582 0 1.028-.114 1.338-.341.309-.236.463-.523.463-.86 0-.3-.113-.532-.341-.696-.227-.172-.596-.286-1.105-.34l-.791-.082c-.692-.073-1.256-.278-1.692-.615-.437-.345-.655-.827-.655-1.446 0-.464.118-.86.354-1.187.237-.337.564-.591.983-.764.418-.182.9-.273 1.446-.273.819 0 1.483.182 1.992.546.51.364.774.905.792 1.623h-1.228c-.009-.29-.146-.536-.41-.736-.254-.21-.636-.314-1.146-.314-.509 0-.896.104-1.16.314a.971.971 0 00-.395.791c0 .273.091.491.273.655.191.164.5.268.928.314l.791.082c.782.082 1.41.3 1.883.655.473.345.709.837.709 1.473 0 .455-.131.86-.395 1.215-.255.345-.61.618-1.065.819-.454.19-.977.286-1.569.286zm-11.116-.218v-7.287h1.037v3.125h-.164c0-.719.096-1.324.287-1.815.2-.5.5-.878.901-1.132.4-.264.905-.396 1.514-.396h.055c.919 0 1.596.286 2.033.86.446.573.668 1.4.668 2.483v4.162h-1.309v-4.435c0-.564-.16-1.014-.478-1.35-.318-.346-.755-.52-1.31-.52-.573 0-1.037.178-1.392.533-.355.355-.532.828-.532 1.419v4.353h-1.31zm-5.864.245c-.637 0-1.196-.109-1.678-.327a3.865 3.865 0 01-1.228-.86 3.917 3.917 0 01-.751-1.214 3.922 3.922 0 01-.245-1.365v-.245c0-.464.086-.92.259-1.365.173-.455.427-.86.764-1.214.337-.364.746-.65 1.228-.86.482-.218 1.032-.327 1.651-.327s1.169.109 1.651.327c.482.21.892.496 1.228.86.337.355.591.76.764 1.214.173.446.26.9.26 1.365v.245c0 .464-.087.919-.26 1.365-.163.446-.414.85-.75 1.214a3.71 3.71 0 01-1.215.86c-.482.218-1.041.327-1.678.327zm0-1.173c.546 0 1.01-.118 1.392-.355a2.37 2.37 0 00.887-.982c.209-.41.314-.87.314-1.379 0-.518-.105-.982-.314-1.391a2.372 2.372 0 00-.901-.97c-.382-.236-.841-.354-1.378-.354-.528 0-.987.118-1.378.355-.391.236-.691.56-.901.969a3.014 3.014 0 00-.313 1.391c0 .51.1.97.3 1.379a2.5 2.5 0 00.887.982c.391.236.859.355 1.405.355zm-9.687 1.173c-.91 0-1.688-.159-2.333-.477-.637-.319-1.151-.732-1.542-1.242a5.196 5.196 0 01-.86-1.651 5.966 5.966 0 01-.273-1.733v-.3c0-.6.091-1.2.273-1.801a5.08 5.08 0 01.873-1.638 4.28 4.28 0 011.529-1.187c.627-.3 1.378-.45 2.251-.45.891 0 1.656.155 2.292.464.637.31 1.142.741 1.515 1.296s.6 1.21.682 1.965h-1.364c-.073-.564-.255-1.028-.546-1.392a2.647 2.647 0 00-1.105-.832 3.8 3.8 0 00-1.474-.273c-.591 0-1.11.105-1.556.314-.445.2-.818.486-1.118.86a3.92 3.92 0 00-.669 1.268 5.392 5.392 0 00-.218 1.57c0 .536.072 1.046.218 1.528.155.482.382.91.682 1.282.309.373.692.67 1.146.887.455.21.987.314 1.597.314.855 0 1.574-.213 2.156-.641.582-.428.937-1.046 1.064-1.856h1.365a4.398 4.398 0 01-.696 1.87c-.364.564-.874 1.014-1.529 1.35-.645.337-1.432.505-2.36.505zm-14.072 2.593c-.337 0-.678-.014-1.024-.041a15.094 15.094 0 01-.969-.11v-1.105c.328.046.669.082 1.024.11.364.036.705.054 1.023.054.664 0 1.192-.09 1.583-.273.4-.172.687-.45.86-.832.181-.373.272-.855.272-1.446v-1.392l.437-1.037c-.027.737-.182 1.35-.464 1.842-.282.482-.65.846-1.105 1.091a3.125 3.125 0 01-1.487.355c-.51 0-.978-.095-1.406-.286a3.444 3.444 0 01-1.091-.819 3.987 3.987 0 01-.71-1.187 4.192 4.192 0 01-.246-1.433v-.245c0-.51.087-.983.26-1.42.172-.445.414-.832.723-1.16a3.254 3.254 0 011.105-.764 3.688 3.688 0 011.433-.272c.609 0 1.146.132 1.61.395.464.255.828.633 1.092 1.133.272.491.423 1.096.45 1.815l-.382.013v-3.11h1.037v6.426c0 .873-.137 1.578-.41 2.115-.263.546-.691.946-1.282 1.2-.582.255-1.36.383-2.333.383zm.395-3.984a2.46 2.46 0 001.187-.287c.364-.191.651-.464.86-.819.218-.364.327-.796.327-1.296v-.628c0-.491-.113-.905-.341-1.241a2.111 2.111 0 00-.859-.765 2.616 2.616 0 00-1.16-.259c-.473 0-.892.11-1.255.328a2.201 2.201 0 00-.846.928c-.201.39-.301.855-.301 1.391 0 .537.1 1.005.301 1.406.209.4.491.71.846.928.363.209.777.313 1.241.313zm-11.88 1.146v-7.287h1.037v3.125h-.164c0-.719.096-1.324.287-1.815.2-.5.5-.878.9-1.132.4-.264.905-.396 1.515-.396h.054c.919 0 1.597.286 2.033.86.446.573.669 1.4.669 2.483v4.162h-1.31v-4.435c0-.564-.159-1.014-.477-1.35-.319-.346-.755-.52-1.31-.52-.573 0-1.037.178-1.392.533-.355.355-.532.828-.532 1.419v4.353h-1.31zm-3.843 0v-7.287h1.31v7.287h-1.31zm-1.119-6.25v-1.037h2.429v1.037h-2.429zm1.488-2.21c-.291 0-.51-.078-.655-.232a.852.852 0 01-.205-.587c0-.237.068-.432.205-.587.145-.154.364-.232.655-.232.291 0 .505.078.641.232a.82.82 0 01.218.587.82.82 0 01-.218.587c-.136.154-.35.232-.641.232zm-3.695 8.541c-.546 0-1.019-.077-1.419-.231a1.803 1.803 0 01-.914-.792c-.21-.382-.314-.896-.314-1.542v-7.013h1.255v7.177c0 .391.105.696.314.914.218.21.523.314.914.314h1.283v1.174h-1.119zm-3.903-6.385v-.983h5.022v.983h-5.022zm-4.193 6.549c-.636 0-1.187-.109-1.651-.327a3.194 3.194 0 01-1.132-.86 3.822 3.822 0 01-.655-1.214 4.618 4.618 0 01-.205-1.365v-.245c0-.473.068-.933.205-1.378.145-.446.364-.846.655-1.201.291-.364.659-.65 1.105-.86.455-.218.987-.327 1.596-.327.792 0 1.442.172 1.952.518.518.337.9.773 1.146 1.31.255.537.382 1.11.382 1.72v.586h-6.468v-.982h5.513l-.3.532c0-.519-.082-.964-.246-1.337a1.917 1.917 0 00-.737-.887c-.327-.21-.741-.314-1.242-.314-.518 0-.95.118-1.296.355a2.199 2.199 0 00-.764.968c-.164.41-.246.883-.246 1.42 0 .518.082.986.246 1.405.173.41.437.737.791.982.355.237.805.355 1.351.355.573 0 1.037-.127 1.392-.382.364-.255.582-.55.655-.887h1.228c-.1.5-.3.932-.6 1.296s-.678.642-1.133.833a3.95 3.95 0 01-1.542.286zm-5.738-.245l-2.742-3.398h-1.201l3.343-3.889h1.378l-3.029 3.507.095-.696 3.671 4.476h-1.515zm-5.021 0v-9.961h1.31v9.96h-1.31zm-5.597 0v-7.287h1.037v3.002h-.054c0-1.064.232-1.842.696-2.333.473-.5 1.178-.75 2.115-.75h.245v1.173h-.464c-.728 0-1.287.195-1.678.586-.391.382-.587.937-.587 1.665v3.944h-1.31zm-3.441 0v-2.184H176v-2.524c0-.5-.132-.878-.396-1.133-.255-.254-.632-.382-1.132-.382-.282 0-.574.005-.874.014l-.859.027c-.273.01-.51.023-.71.041v-1.146c.2-.018.409-.032.628-.04.227-.02.459-.028.696-.028.236-.01.464-.014.682-.014.746 0 1.355.091 1.828.273.473.173.824.46 1.051.86.227.4.341.941.341 1.623v4.613h-1.037zm-2.388.19c-.546 0-1.019-.09-1.419-.272a2.158 2.158 0 01-.914-.82c-.209-.354-.314-.781-.314-1.282 0-.518.114-.95.341-1.296.237-.346.578-.605 1.024-.778.445-.182.982-.273 1.61-.273h1.978v.983h-2.033c-.527 0-.932.127-1.214.382a1.264 1.264 0 00-.423.982c0 .4.141.724.423.97.282.245.687.367 1.214.367.309 0 .605-.054.887-.163.282-.118.514-.31.696-.573.191-.273.296-.646.314-1.12l.355.52c-.046.518-.173.954-.382 1.31a1.981 1.981 0 01-.846.79c-.355.183-.787.273-1.297.273zm-14.381-.19v-9.961h1.774l2.947 6.645h.219l2.933-6.645h1.788v9.96h-1.337v-8.5l.095.027-2.824 6.413h-1.638l-2.838-6.413.109-.027v8.5h-1.228z" fill="#fff"/></svg>