<svg width="80" height="16" fill="none" xmlns="http://www.w3.org/2000/svg"><path d="M6.192 2.41c-.935 0-1.2.418-1.2 1.339v1.522h2.486l-.244 2.463H4.992v7.468H2.017V7.734H0V5.271h2.007V3.792C2.007 1.307 2.995 0 5.767 0 6.362 0 7.074.043 7.5.107v2.315m.171 8.12c0 2.775 1.307 4.853 4.026 4.853 1.488 0 2.423-.75 2.837-1.702v1.5h2.858V5.269h-2.858v1.522c-.436-.953-1.338-1.735-2.837-1.735-2.722 0-4.026 2.089-4.026 4.853m2.986-.043c0-1.48.541-2.464 1.923-2.464 1.22 0 1.838.9 1.838 2.315v.996c0 1.414-.616 2.314-1.838 2.314-1.381 0-1.923-.975-1.923-2.463v-.698zm12.94-4.81c-3.487 0-5.082 1.896-5.082 4.94v.46c0 3.042 1.593 4.939 5.089 4.939 1.167 0 2.252-.247 2.858-.665l-.659-2.132c-.622.296-1.3.453-1.987.46-1.615 0-2.316-.942-2.316-2.539v-.578c0-1.607.7-2.54 2.316-2.54.778 0 1.53.226 1.987.461l.659-2.132c-.605-.428-1.7-.675-2.858-.675m3.24 5.55c0 2.914 1.402 4.81 5.163 4.81 1.423 0 3.038-.31 3.824-.73l-.541-2.067c-.872.374-2.051.6-3.167.6-1.657 0-2.252-.6-2.315-1.961h6.267V9.672c0-2.746-1.338-4.629-4.398-4.629-3.252 0-4.834 1.854-4.834 4.671v.897m2.975-1.296c0-1.34.521-2.186 1.867-2.186 1.307 0 1.731.858 1.731 1.94v.246h-3.598zm17.306.6c0-2.775-1.328-4.853-4.048-4.853-1.38 0-2.337.706-2.772 1.585V.016l-2.975.266v14.905h2.816v-1.5c.415.954 1.445 1.715 2.933 1.715 2.722 0 4.047-2.09 4.047-4.853m-2.974.043c0 1.393-.542 2.443-1.965 2.443-1.222 0-1.88-.879-1.88-2.293v-1.04c0-1.414.658-2.293 1.88-2.293 1.423 0 1.965 1.04 1.965 2.443v.74zm3.973-.118c0 2.86 1.615 4.918 4.898 4.918 3.282 0 4.897-2.068 4.897-4.918v-.503c0-2.86-1.615-4.917-4.897-4.917-3.283 0-4.898 2.067-4.898 4.917v.503zm6.82.204c0 1.318-.54 2.357-1.922 2.357s-1.923-1.04-1.923-2.357v-.92c0-1.319.541-2.357 1.923-2.357 1.381 0 1.923 1.04 1.923 2.356v.921zm3.963-.204c0 2.86 1.615 4.918 4.898 4.918 3.283 0 4.897-2.068 4.897-4.918v-.503c0-2.86-1.614-4.917-4.897-4.917-3.283 0-4.898 2.067-4.898 4.917v.503zm6.83.204c0 1.318-.541 2.357-1.923 2.357-1.381 0-1.924-1.02-1.924-2.354v-.92c0-1.318.542-2.357 1.923-2.357 1.382 0 1.923 1.04 1.923 2.356l.001.918zM72.801.008l-2.975.267V15.16h2.975v-4.853l3.06 4.853h3.165l-3.208-5.02 3.08-4.896h-3.165L72.8 9.98" fill="#A3A3A3"/></svg>