<svg width="103" height="16" fill="none" xmlns="http://www.w3.org/2000/svg"><path fill-rule="evenodd" clip-rule="evenodd" d="M63.43 8.602l-.856-.155c-.856-.154-1.559-.37-1.559-1.233 0-.77.764-1.11 1.712-1.11 1.406 0 2.66.679 2.782.74l.795-2.127c-.306-.154-1.56-.863-3.546-.863-1.835 0-4.036.986-4.036 3.453 0 2.22 1.529 2.929 2.996 3.175l1.01.185c.977.185 1.528.555 1.528 1.233 0 .864-.765 1.264-1.926 1.264-1.865 0-2.966-.585-3.271-.709l-.856 2.066c.275.154 1.528.894 4.035.894 2.415 0 4.341-1.233 4.341-3.545-.03-2.159-1.437-2.96-3.149-3.268zM70.798 0l-2.293 1.295V4.07h-1.192v2.25h1.192v4.902c0 2.097.826 3.946 3.76 3.946h.918v-2.25h-.337c-1.437 0-2.048-.863-2.048-2.035V6.351h2.629v-2.25h-2.63V0zM88.62 6.166c.887 0 1.804.432 2.079 1.418l2.079-.801c-.581-2.128-2.477-2.93-4.158-2.93-2.996 0-4.219 1.943-4.219 3.824v3.915c0 1.88 1.223 3.823 4.219 3.823 1.681 0 3.577-.802 4.158-2.929l-2.08-.801c-.274 1.017-1.191 1.449-2.078 1.449-1.56 0-1.957-.895-1.957-1.881V8.047c0-.987.398-1.881 1.957-1.881zm9.752 2.898l4.28-4.994H99.84l-3.669 4.347V0H93.88v15.2h2.293v-3.546l.734-.894 3.271 4.408h2.721l-4.525-6.104zM79.816 6.505h-2.384c-.367 0-.673.308-.673.71v2.681h-2.354V7.214c-.03-1.695 1.346-3.114 3.027-3.144h2.384v2.435zm-1.926 6.259h2.354c.367 0 .673-.309.673-.71V9.373h2.354v2.683c.03 1.695-1.345 3.113-3.027 3.113H77.89v-2.404zM39.187 4.07h2.63v2.28h-2.63v4.563c0 1.171.612 2.035 2.048 2.035h.337v2.25h-.917c-2.935 0-3.76-1.88-3.76-3.946V6.351h-3.853v4.563c0 1.171.612 2.035 2.049 2.035h.336v2.25h-.917c-2.935 0-3.76-1.88-3.76-3.946V6.351h-1.162V4.07h1.162V1.295L33.041 0v4.07h3.822V1.295L39.157 0v4.07m-24.61-.216c-.734 0-1.468.154-2.11.431V0h-2.293v15.2h2.293V6.504c.459-.308 1.131-.493 1.773-.493 1.437 0 2.11.832 2.11 2.035v7.121h2.293V7.77c-.03-2.25-1.59-3.915-4.066-3.915zm11.556 9.125c-.428.247-.979.37-1.529.37-1.712 0-2.354-.894-2.354-2.127V4.07h-2.293v7.183c0 2.806 1.56 4.131 4.341 4.131 1.315 0 2.813-.339 4.097-.925V4.07h-2.293l.03 8.91zM5.895 8.602l-.856-.155c-.856-.154-1.56-.37-1.56-1.233 0-.77.765-1.11 1.713-1.11 1.406 0 2.66.679 2.812.74l.765-2.127c-.306-.154-1.56-.863-3.547-.863-1.834 0-4.035.986-4.035 3.453 0 2.22 1.529 2.929 2.996 3.175l1.009.185c.978.185 1.528.555 1.528 1.233 0 .864-.764 1.264-1.926 1.264-1.864 0-2.965-.585-3.27-.709l-.887 2.066c.275.154 1.528.894 4.035.894 2.415 0 4.341-1.233 4.341-3.545-.03-2.159-1.406-2.96-3.118-3.268zm43.044.185h-3.852v-.802c0-.894.428-1.88 1.926-1.88 1.437 0 1.926.924 1.926 1.818v.864zm2.293-1.11c0-2.035-1.498-3.823-4.188-3.823-3.057 0-4.219 1.973-4.219 3.823v3.7c0 2.558 1.59 4.038 4.219 4.038 2.354 0 3.546-1.387 3.913-2.25l-1.926-1.203c-.153.493-.917 1.202-1.956 1.202-1.407 0-1.957-.801-1.957-1.85v-.616h6.114V7.677zm1.468 0v7.522h2.292V7.892c0-.647.337-1.726 2.018-1.726.275 0 .856.092 1.04.123V3.977a4.795 4.795 0 00-1.162-.123c-2.904 0-4.188 1.911-4.188 3.823z" fill="#A3A3A3"/></svg>