<svg width="66" height="21" fill="none" xmlns="http://www.w3.org/2000/svg"><path d="M9.004 7.334v2.195h5.234c-.139 1.215-.556 2.149-1.204 2.756-.741.748-1.946 1.588-4.03 1.588-3.196 0-5.697-2.615-5.697-5.838 0-3.224 2.455-5.84 5.697-5.84 1.714 0 3.01.701 3.937 1.589l1.529-1.542C13.173.981 11.413 0 9.004 0 4.604 0 .898 3.597.898 8.034c0 4.438 3.706 8.035 8.106 8.035 2.362 0 4.169-.794 5.558-2.242 1.436-1.448 1.9-3.504 1.9-5.139 0-.513-.047-.98-.093-1.354H9.004zm13.943-1.822c-2.826 0-5.188 2.196-5.188 5.185 0 2.99 2.316 5.185 5.188 5.185s5.188-2.149 5.188-5.138c0-3.036-2.317-5.232-5.188-5.232zm0 8.362c-1.575 0-2.918-1.308-2.918-3.13 0-1.869 1.343-3.13 2.918-3.13 1.575 0 2.918 1.261 2.918 3.13 0 1.822-1.343 3.13-2.918 3.13zM48.283 6.68h-.092c-.51-.607-1.482-1.168-2.733-1.168-2.594 0-4.817 2.242-4.817 5.185 0 2.896 2.223 5.185 4.817 5.185 1.25 0 2.223-.56 2.733-1.168h.092v.748c0 1.962-1.065 3.036-2.732 3.036-1.39 0-2.224-.98-2.594-1.868l-1.946.84c.556 1.355 2.085 3.084 4.586 3.084 2.64 0 4.91-1.589 4.91-5.42V5.793h-2.13v.888h-.094zm-2.593 7.194c-1.575 0-2.733-1.355-2.733-3.13 0-1.822 1.204-3.13 2.733-3.13 1.528 0 2.732 1.355 2.732 3.177.047 1.775-1.158 3.083-2.732 3.083zM34.48 5.512c-2.826 0-5.188 2.196-5.188 5.185 0 2.99 2.316 5.185 5.188 5.185s5.188-2.149 5.188-5.138c0-3.036-2.316-5.232-5.188-5.232zm0 8.362c-1.575 0-2.918-1.308-2.918-3.13 0-1.869 1.343-3.13 2.918-3.13 1.575 0 2.918 1.261 2.918 3.13 0 1.822-1.343 3.13-2.918 3.13zM52.22.234h2.224v15.695h-2.223V.234zm9.08 13.64c-1.159 0-1.946-.514-2.502-1.589L65.7 9.436l-.232-.607c-.417-1.168-1.76-3.317-4.4-3.317-2.64 0-4.864 2.102-4.864 5.185 0 2.896 2.177 5.185 5.095 5.185 2.363 0 3.706-1.448 4.308-2.289l-1.76-1.168c-.602.888-1.39 1.449-2.548 1.449zm-.14-6.4c.927 0 1.714.467 1.946 1.121l-4.632 1.962c-.046-2.149 1.528-3.083 2.686-3.083z" fill="#A3A3A3"/></svg>