<svg width="102" height="12" fill="none" xmlns="http://www.w3.org/2000/svg"><path d="M22.638.822c-.628.24-1.12.582-1.46 1.027-.34.445-.51.941-.51 1.523 0 1.147.697 2.072 2.072 2.722.424.206.967.411 1.63.634.662.222 1.137.428 1.391.633.272.206.39.497.39.856 0 .325-.118.582-.373.753-.237.172-.577.274-1.001.274-.662 0-1.137-.137-1.426-.393-.289-.257-.441-.668-.441-1.233h-2.564c0 .685.17 1.284.526 1.815.357.53.883.941 1.58 1.232.695.308 1.476.445 2.342.445 1.222 0 2.19-.256 2.886-.77.696-.514 1.052-1.233 1.052-2.14 0-1.13-.577-2.02-1.714-2.67-.476-.274-1.07-.514-1.817-.754-.73-.24-1.239-.462-1.545-.667-.288-.223-.44-.463-.44-.72 0-.308.135-.547.39-.753.271-.205.628-.29 1.086-.29.458 0 .815.12 1.07.342.271.24.39.565.39.975h2.546c0-.633-.17-1.198-.51-1.694-.339-.497-.814-.873-1.408-1.13-.611-.274-1.29-.394-2.054-.394-.764 0-1.46.12-2.088.377zm9.167-.377V11.11h7.045V9.124h-4.584v-2.55h3.87v-1.9h-3.87V2.43h4.584V.445m3.106 0V11.11h2.495V7.344h1.359l1.833 3.766h2.682v-.102l-2.173-4.314c.628-.309 1.087-.702 1.375-1.182.289-.496.442-1.095.442-1.849 0-1.027-.34-1.814-1.036-2.38C48.237.72 47.27.446 46.047.446h-4.09zm2.495 1.986h1.58c.475 0 .831.137 1.069.394.237.256.356.616.356 1.078 0 .462-.119.822-.356 1.079-.238.256-.594.393-1.07.393h-1.578V2.431zM52.974.445V11.11h2.564V7.498h1.646c1.29 0 2.309-.308 3.056-.941.747-.617 1.12-1.456 1.12-2.5 0-.702-.17-1.335-.51-1.883-.339-.548-.83-.976-1.459-1.284-.628-.308-1.341-.445-2.156-.445h-4.26zm2.564 1.986h1.714c.458 0 .832.154 1.104.462.271.291.407.702.407 1.198 0 .463-.136.805-.39 1.062-.255.257-.646.376-1.138.376h-1.68l-.017-3.098zM65.4.822c-.629.24-1.121.582-1.46 1.027-.34.445-.51.941-.51 1.523 0 1.147.696 2.072 2.071 2.722.425.206.968.411 1.63.634.662.222 1.137.428 1.392.633.272.206.39.497.39.856 0 .325-.118.582-.373.753-.255.172-.577.274-1.002.274-.662 0-1.137-.137-1.426-.393-.288-.257-.441-.668-.441-1.233h-2.563c0 .685.17 1.284.526 1.815.356.53.883.941 1.579 1.232.696.308 1.477.445 2.342.445 1.222 0 2.19-.256 2.886-.77.696-.514 1.053-1.233 1.053-2.14 0-1.13-.578-2.037-1.715-2.67-.475-.274-1.07-.514-1.816-.754-.73-.24-1.256-.462-1.545-.667-.289-.223-.442-.463-.442-.72 0-.308.136-.547.391-.753.272-.205.628-.29 1.086-.29.459 0 .815.12 1.07.342.272.24.39.565.39.975h2.547c0-.633-.17-1.198-.51-1.694-.34-.497-.814-.873-1.409-1.13-.61-.274-1.29-.394-2.054-.394-.747 0-1.46.12-2.088.377zm7.86-.377v1.986h3.106v8.68h2.546V2.43h3.174V.445m4.295 0l-3.87 10.665h2.716l.611-1.986h3.48l.611 1.986h2.733L88.758.445H86.38zm1.189 2.996l1.137 3.698h-2.258l1.12-3.698zM93.104.445v1.986h3.106v8.68h2.546V2.43h3.175V.445M16.051 0H5.747a.335.335 0 00-.322.325c0 .103.034.171.101.24L7.75 2.808a.333.333 0 010 .479l-3.667 3.68c-.101.103-.067.257.051.326l.459.257c.085.05.22.034.305-.018a.74.74 0 01.39-.102c.103 0 .188.017.272.051.051.017.102.017.136-.017l.866-.788v-.05c0-.429.34-.771.764-.771.356 0 .645.24.73.582l.849.36c.034.016.05 0 .084-.018a.739.739 0 01.425-.137c.068 0 .153.017.22.034.034 0 .051 0 .068-.017l1.46-1.438a.131.131 0 00.034-.085c-.017-.753.543-.84.747-.856.323-.017.611.222.713.513a.133.133 0 00.068.069l.917.325c.034.017.068 0 .102-.017a.761.761 0 01.509-.205c.068 0 .187.05.255-.035l1.833-1.883a.156.156 0 00.05-.12V.36c-.016-.206-.169-.36-.339-.36z" fill="#A3A3A3"/><path d="M16.374 4.57c0-.102-.119-.153-.187-.085L15 5.701c-.034.034-.034.068-.034.102.034.206-.017.428-.272.668a.733.733 0 01-.509.223.739.739 0 01-.679-.48.133.133 0 00-.068-.068l-.984-.343c-.034-.017-.068 0-.102.017a.807.807 0 01-.476.172c-.085 0-.152-.017-.237-.035 0 0-1.12 1.096-1.511 1.49-.051.051-.051.051-.034.154 0 .428-.34.77-.764.77a.785.785 0 01-.747-.582c-.017-.034-.034-.068-.068-.085l-.73-.309c-.034-.017-.085 0-.102.018a.74.74 0 01-.458.154.994.994 0 01-.238-.035c-.05-.017-.085 0-.135.018l-.883.804c-.034.034-.051.069-.051.103a.763.763 0 01-.764.702.777.777 0 01-.696-.445.335.335 0 00-.153-.154l-1.001-.548c-.085-.035-.17-.035-.238.034L.128 10.991c-.05.068-.102.136-.102.24 0 .188.153.341.34.341h9.642a.92.92 0 00.577-.24l.187-.188 2.292-2.276a.326.326 0 01.475 0l2.258 2.26a.334.334 0 00.237.102c.187 0 .34-.154.34-.342V4.57z" fill="#A3A3A3"/></svg>