<svg width="62" height="16" fill="none" xmlns="http://www.w3.org/2000/svg"><path d="M7.655 10.941v2.195H.93V2.28h2.358v8.661h4.366zm1.041-5.168h2.267v7.362H8.696V5.773zM9.83 2.116c.348 0 .683.14.93.389.246.248.384.585.385.937A1.32 1.32 0 019.83 4.767a1.319 1.319 0 01-1.314-1.325c0-.352.138-.689.385-.937a1.31 1.31 0 01.929-.389zm15.44 3.657h2.774L25.07 9.176l2.913 3.96h-2.846l-2.405-3.638h-.03v3.637h-2.265V2.28h2.266v6.488l2.567-2.994zm-13.053.004h2.175v1.008h.03c.302-.579 1.043-1.188 2.145-1.188 2.297 0 2.72 1.524 2.72 3.504v4.034h-2.266v-3.58c0-.853-.016-1.95-1.18-1.95-1.177 0-1.358.93-1.358 1.89v3.638h-2.267V5.777zm20.601 2.822a1.365 1.365 0 00-1.39-1.402c-.998 0-1.542.686-1.602 1.402h2.992zm1.919 3.26c-.725.93-1.919 1.463-3.1 1.463-2.266 0-4.08-1.524-4.08-3.886s1.814-3.883 4.08-3.883c2.117 0 3.445 1.524 3.445 3.883v.716h-5.258c.18.869.83 1.432 1.707 1.432.74 0 1.239-.378 1.617-.9l1.589 1.175zm5.067-4.304c-1.132 0-1.812.762-1.812 1.873 0 1.114.68 1.875 1.812 1.875 1.134 0 1.814-.761 1.814-1.875 0-1.11-.68-1.873-1.814-1.873zm3.9 5.577H41.62v-.976h-.03c-.349.533-1.224 1.158-2.252 1.158-2.176 0-3.611-1.584-3.611-3.825 0-2.057 1.269-3.946 3.354-3.946.937 0 1.813.259 2.325.975h.03V2.279h2.267l.002 10.853zM60.126 0H47.099c-.625 0-1.128.498-1.128 1.11v13.193a1.12 1.12 0 001.128 1.112h13.027c.623 0 1.131-.498 1.131-1.112V1.111C61.257.498 60.75 0 60.126 0z" fill="#A3A3A3"/><path d="M48.237 5.78h2.268v7.356h-2.268V5.779zm1.135-3.658c.348 0 .682.14.928.389a1.332 1.332 0 010 1.874 1.31 1.31 0 01-1.858 0 1.332 1.332 0 010-1.874 1.31 1.31 0 01.93-.389zm2.555 3.657H54.1v1.003h.03c.3-.578 1.043-1.188 2.145-1.188 2.296 0 2.72 1.524 2.72 3.504v4.035H56.73v-3.58c0-.853-.016-1.95-1.178-1.95-1.18 0-1.361.929-1.361 1.888v3.64h-2.265V5.774v.005z" fill="#fff"/></svg>