<svg width="115" height="16" fill="none" xmlns="http://www.w3.org/2000/svg"><path d="M79.448 6.047c0-1.897-1.175-3.26-3.35-3.26h-7.173v9.841h2.351V9.25h2.764l2.704 3.38h2.646v-.238L76.744 9.19c1.705-.356 2.704-1.601 2.704-3.143zm-3.645 1.186h-4.527v-2.43h4.527c.823 0 1.353.474 1.353 1.244.058.771-.47 1.186-1.353 1.186zm39.155-4.506h-2.175v3.735h-5.938V2.727h-2.351v9.842h2.351V8.715h5.938v3.854h2.175V2.727zm-52.323 0l-2.587 8.241h-.118l-2.645-8.24H53.11v9.841h2.234V4.506h.118l2.587 8.063h3.586l2.646-8.063h.117v8.063h2.293V2.727h-4.056zM37.06 6.759c-.823-.06-2.351-.237-3.233-.297-.823-.059-1.294-.355-1.294-.889 0-.533.53-.948 2.528-.948 1.764 0 3.41.415 4.88 1.067V3.498c-1.411-.711-2.998-1.008-4.997-1.008-2.763 0-4.704 1.186-4.704 3.142 0 1.66 1.118 2.61 3.41 2.846.823.119 2.234.237 3.175.297 1.058.059 1.352.415 1.352.89 0 .651-.764 1.066-2.587 1.066-1.88 0-3.821-.652-5.232-1.482v2.253c1.117.77 2.998 1.364 5.174 1.364 2.998 0 4.938-1.186 4.938-3.261 0-1.601-1-2.609-3.41-2.846zm4.998-4.032v9.842h9.053v-2.016h-6.82V8.537h6.703V6.522h-6.702v-1.78h6.82V2.728h-9.054zm57.556 4.032c-.823-.06-2.352-.237-3.234-.297-.823-.059-1.293-.355-1.293-.889 0-.533.529-.948 2.528-.948 1.764 0 3.41.355 4.879 1.067V3.498c-1.411-.711-2.998-1.008-4.997-1.008-2.763 0-4.703 1.186-4.703 3.142 0 1.66 1.117 2.61 3.41 2.846.823.119 2.234.237 3.175.297 1.058.059 1.352.415 1.352.89 0 .651-.764 1.066-2.587 1.066-1.881 0-3.822-.652-5.233-1.482v2.253c1.118.77 2.999 1.364 5.174 1.364 2.998 0 4.939-1.186 4.939-3.261 0-1.601-1.059-2.609-3.41-2.846zM88.855 2.727v5.04c0 1.897-1.175 2.964-2.88 2.964-1.764 0-2.881-1.008-2.881-2.964v-5.04h-2.352V7.53c0 3.558 2.234 5.337 5.233 5.337 2.94 0 5.173-1.72 5.173-5.218v-4.92h-2.293zm-66.61 4.862c0 .474-.235.534-.823.534-.647 0-.764-.119-.823-.593-.118-1.245-.94-2.313-2.352-2.372-.411-.06-.529-.178-.529-.77 0-.534.059-.771.47-.771 2.352.059 4.057 2.015 4.057 3.972zm3.469 0c0-3.676-2.47-7.589-8.231-7.589H6.136c-.235 0-.411.119-.411.356 0 .118.058.237.176.296.412.356 1 .712 1.823 1.127.764.415 1.41.652 1.998.889.236.119.353.237.353.356 0 .178-.117.355-.411.355H.669c-.294-.059-.412.119-.412.297a.54.54 0 00.176.415c.706.77 1.882 1.72 3.587 2.786 1.47.95 3.35 1.957 4.82 2.668.236.119.353.238.353.415 0 .178-.117.297-.411.297H4.608c-.236 0-.353.119-.353.296 0 .119.059.237.176.356.94.89 2.47 1.779 4.468 2.668 2.705 1.127 5.41 1.838 8.466 1.838 5.82 0 8.349-4.387 8.349-7.826zm-7.584 5.277c-2.822 0-5.233-2.313-5.233-5.277 0-2.846 2.352-5.158 5.232-5.158 2.94 0 5.233 2.312 5.233 5.158 0 2.905-2.293 5.277-5.232 5.277z" fill="#A3A3A3"/></svg>