<svg width="73" height="21" fill="none" xmlns="http://www.w3.org/2000/svg"><path d="M4.656.072C3.186.692 1.57 2.446 1.06 4.648.412 7.437 3.103 8.616 3.323 8.229c.26-.454-.482-.608-.634-2.055-.198-1.869.664-3.957 1.748-4.874.202-.17.192.067.192.505 0 .784-.043 7.82-.043 9.289 0 1.987-.081 2.614-.227 3.234-.148.628-.387 1.053-.206 1.216.201.183 1.062-.252 1.56-.953.598-.841.807-1.85.844-2.948.046-1.322.044-3.42.046-4.617.001-1.097.018-4.311-.02-6.243C6.575.309 5.272-.188 4.657.07m52.217 9.3c-.047 1.033-.274 1.84-.555 2.41-.545 1.102-1.675 1.445-2.155-.14-.262-.864-.274-2.307-.086-3.513.191-1.228.726-2.155 1.61-2.072.874.083 1.282 1.217 1.186 3.315zm-14.718 6.41c-.011 1.716-.28 3.22-.854 3.658-.815.62-1.91.155-1.683-1.098.2-1.108 1.15-2.24 2.54-3.623 0 0 .002.316-.003 1.063zm-.222-6.42c-.05.942-.292 1.887-.556 2.42-.544 1.103-1.683 1.448-2.155-.14-.322-1.084-.245-2.487-.086-3.372.207-1.147.71-2.212 1.611-2.212.877 0 1.31.97 1.186 3.305zm-8.526-.014c-.053.997-.246 1.83-.555 2.435-.56 1.095-1.667 1.442-2.155-.14-.352-1.141-.233-2.697-.086-3.537.217-1.247.761-2.131 1.61-2.048.873.086 1.298 1.217 1.186 3.29zm39.07 1.164c-.212 0-.31.222-.39.595-.28 1.298-.573 1.591-.952 1.591-.423 0-.803-.642-.9-1.929-.077-1.011-.065-2.874.033-4.726.02-.38-.084-.757-1.096-1.128-.436-.16-1.069-.394-1.384.373-.891 2.168-1.24 3.89-1.322 4.589-.004.036-.048.043-.055-.041-.053-.56-.17-1.578-.184-3.716-.003-.418-.09-.773-.547-1.063-.296-.189-1.196-.523-1.52-.126-.28.325-.606 1.199-.944 2.234-.274.842-.465 1.411-.465 1.411s.003-2.27.007-3.132c.001-.325-.22-.434-.287-.453-.3-.088-.89-.235-1.142-.235-.31 0-.385.175-.385.429 0 .033-.049 2.99-.049 5.058l.001.292c-.171.95-.727 2.24-1.33 2.24-.605 0-.89-.54-.89-3.004 0-1.438.042-2.064.063-3.103.013-.6.036-1.06.035-1.164-.005-.32-.553-.481-.809-.541a2.372 2.372 0 00-.654-.073c-.246.014-.42.177-.42.4l.001.35c-.318-.503-.828-.853-1.168-.955-.915-.274-1.87-.031-2.59.985-.572.808-.917 1.722-1.053 3.036-.099.96-.066 1.935.11 2.758-.213.93-.61 1.31-1.042 1.31-.63 0-1.086-1.035-1.033-2.826.035-1.178.269-2.005.524-3.201.11-.51.02-.777-.201-1.033-.204-.234-.638-.354-1.261-.207-.445.105-1.08.218-1.661.305 0 0 .035-.14.064-.39.15-1.304-1.255-1.198-1.703-.782-.268.25-.45.543-.52 1.07-.11.837.568 1.232.568 1.232-.222 1.026-.767 2.365-1.33 3.334-.3.519-.53.903-.828 1.312l-.002-.456c-.007-2.156.021-3.853.034-4.464.012-.6.036-1.047.035-1.152-.004-.234-.14-.322-.422-.434a2.966 2.966 0 00-.85-.191c-.386-.03-.618.176-.612.42l.001.329c-.317-.503-.828-.853-1.168-.955-.914-.274-1.87-.03-2.59.985-.572.808-.946 1.94-1.053 3.026-.098 1.012-.08 1.871.055 2.595-.146.726-.564 1.484-1.037 1.484-.605 0-.949-.54-.949-3.004 0-1.438.043-2.063.064-3.103.012-.6.036-1.06.035-1.164-.005-.32-.554-.481-.81-.54a2.332 2.332 0 00-.674-.073c-.234.018-.398.229-.398.386v.363c-.318-.503-.828-.853-1.168-.955-.915-.274-1.864-.027-2.59.985-.473.66-.856 1.392-1.053 3.012-.057.468-.082.906-.079 1.316-.189 1.163-1.022 2.504-1.703 2.504-.4 0-.779-.78-.779-2.442 0-2.215.136-5.368.159-5.672l1.028-.017c.43-.005.819.006 1.39-.024.288-.015.564-1.053.268-1.182-.134-.058-1.083-.109-1.46-.117-.315-.007-1.196-.073-1.196-.073s.08-2.093.098-2.314c.015-.184-.221-.279-.357-.337-.33-.14-.624-.208-.974-.28-.483-.1-.702-.002-.745.409-.064.624-.098 2.451-.098 2.451-.354 0-1.565-.07-1.92-.07-.329 0-.684 1.429-.229 1.446.524.02 1.437.039 2.043.057 0 0-.027 3.205-.027 4.195v.305c-.333 1.75-1.506 2.697-1.506 2.697.252-1.159-.263-2.029-1.19-2.765a88.192 88.192 0 00-1.77-1.348s.436-.435.824-1.309c.275-.619.286-1.327-.388-1.483-1.113-.259-2.032.566-2.306 1.447-.212.682-.099 1.188.317 1.714a2.5 2.5 0 00.097.117 45.273 45.273 0 01-.889 1.657C16.413 10.98 15.8 12.1 15.336 12.1c-.37 0-.365-1.137-.365-2.202 0-.919.067-2.3.12-3.728.018-.473-.216-.742-.609-.986-.239-.148-.748-.44-1.043-.44-.442 0-1.716.06-2.92 3.573-.152.443-.45 1.25-.45 1.25l.026-4.224c0-.1-.052-.195-.172-.26-.203-.112-.745-.339-1.227-.339-.23 0-.344.108-.344.323l-.042 6.607c0 .502.013 1.088.062 1.344.05.257.129.465.227.59a.65.65 0 00.4.257c.174.036 1.129.16 1.178-.208.06-.441.062-.918.564-2.698.78-2.77 1.798-4.122 2.277-4.602.083-.083.179-.088.174.049-.02.607-.092 2.125-.14 3.414-.13 3.45.493 4.09 1.382 4.09.68 0 1.64-.682 2.668-2.408.641-1.076 1.263-2.13 1.71-2.89.312.29.662.604 1.011.938.813.777 1.08 1.516.902 2.217-.135.536-.645 1.088-1.552.551-.264-.156-.377-.277-.643-.454-.142-.095-.36-.123-.491-.024-.34.258-.534.587-.645.993-.108.396.285.605.693.788.35.158 1.104.3 1.585.317 1.873.063 3.373-.912 4.417-3.428.187 2.172.983 3.402 2.366 3.402.924 0 1.85-1.205 2.256-2.39.116.483.288.903.51 1.258 1.066 1.702 3.132 1.336 4.17-.11.321-.446.37-.606.37-.606.152 1.364 1.241 1.841 1.865 1.841.7 0 1.42-.333 1.927-1.481.059.124.123.243.194.356 1.065 1.702 3.132 1.336 4.17-.11.049-.067.091-.129.128-.184l.031.897-.956.883c-1.6 1.48-2.816 2.604-2.906 3.912-.114 1.667 1.227 2.287 2.241 2.368 1.078.086 2-.514 2.568-1.354.498-.74.825-2.33.8-3.902-.009-.63-.024-1.43-.037-2.288a18.327 18.327 0 001.78-2.465C46.2 9.474 46.882 8.05 47.23 6.94c0 0 .592.005 1.224-.037.202-.013.26.029.223.178-.045.18-.798 3.11-.111 5.06.47 1.336 1.53 1.766 2.16 1.766.735 0 1.44-.56 1.817-1.393a2.8 2.8 0 00.145.266c1.065 1.702 3.124 1.333 4.17-.11.235-.325.37-.607.37-.607.224 1.413 1.313 1.849 1.937 1.849.65 0 1.266-.269 1.767-1.463.02.526.053.956.105 1.091.032.083.217.187.351.238.595.222 1.201.117 1.425.071.156-.032.277-.157.294-.482.043-.852.016-2.285.273-3.35.43-1.785.83-2.478 1.021-2.821.107-.193.227-.224.231-.02.01.41.03 1.62.196 3.243.123 1.195.286 1.9.412 2.124.358.639.801.67 1.162.67.23 0 .709-.065.666-.471-.021-.199.016-1.423.44-3.183.277-1.15.738-2.188.905-2.568.061-.14.09-.03.089-.008-.035.792-.114 3.38.206 4.796.433 1.918 1.687 2.133 2.124 2.133.933 0 1.695-.715 1.953-2.598.061-.453-.03-.803-.305-.803" fill="#A3A3A3"/></svg>