<svg width="49" height="16" fill="none" xmlns="http://www.w3.org/2000/svg"><path d="M48.137 10.536c-.081 0-.155.052-.193.163-.49 1.406-1.149 2.242-1.693 2.242-.311 0-.438-.35-.438-.9 0-1.378.818-4.298 1.23-5.63.047-.16.078-.305.078-.427 0-.387-.209-.577-.729-.577-.56 0-1.163.221-1.748 1.257-.203-.913-.816-1.312-1.671-1.312-.989 0-1.945.642-2.731 1.682-.787 1.04-1.712 1.382-2.407 1.214.5-1.235.686-2.158.686-2.843 0-1.074-.526-1.723-1.377-1.723-1.295 0-2.04 1.245-2.04 2.555 0 1.011.454 2.052 1.456 2.556-.84 1.914-2.064 3.644-2.529 3.644-.6 0-.776-2.964-.743-5.083.021-1.216.121-1.279.121-1.646 0-.211-.136-.355-.681-.355-1.273 0-1.666 1.086-1.726 2.333a6.169 6.169 0 01-.219 1.402c-.531 1.913-1.628 3.364-2.343 3.364-.331 0-.421-.334-.421-.771 0-1.377.765-3.098.765-4.566 0-1.08-.47-1.762-1.354-1.762-1.042 0-2.42 1.25-3.723 3.59.43-1.792.606-3.528-.665-3.528a1.707 1.707 0 00-.789.207.451.451 0 00-.257.438c.122 1.907-1.525 6.796-3.086 6.796-.284 0-.422-.31-.422-.81 0-1.38.816-4.292 1.225-5.626a1.6 1.6 0 00.081-.453c0-.365-.224-.552-.731-.552-.558 0-1.163.213-1.747 1.25-.205-.914-.818-1.313-1.674-1.313-1.403 0-2.972 1.497-3.66 3.449-.922 2.605-2.782 5.121-5.284 5.121-2.27 0-3.47-1.906-3.47-4.917 0-4.347 3.165-7.9 5.512-7.9 1.123 0 1.66.722 1.66 1.827 0 1.339-.742 1.961-.742 2.47 0 .157.128.31.383.31 1.02 0 2.221-1.208 2.221-2.857C12.262 1.206 10.935 0 8.588 0 4.708 0 .804 3.937.804 8.981c0 4.013 1.963 6.434 5.36 6.434 2.316 0 4.34-1.817 5.43-3.937.125 1.757.916 2.675 2.122 2.675 1.072 0 1.94-.645 2.602-1.777.256 1.185.932 1.764 1.811 1.764 1.009 0 1.852-.644 2.655-1.84-.011.94.2 1.824 1.009 1.824.38 0 .836-.09.917-.425.851-3.548 2.953-6.444 3.596-6.444.19 0 .243.185.243.404 0 .963-.674 2.94-.674 4.2 0 1.364.574 2.265 1.761 2.265 1.316 0 2.652-1.625 3.544-4 .279 2.22.882 4.01 1.825 4.01 1.159 0 3.215-2.46 4.462-5.062.488.062 1.222.045 1.927-.457a6.759 6.759 0 00-.476 2.444c0 2.416 1.144 3.094 2.128 3.094 1.07 0 1.938-.645 2.603-1.777.22 1.022.78 1.762 1.809 1.762 1.611 0 3.01-1.66 3.01-3.023 0-.36-.153-.58-.331-.58zm-33.439 2.278c-.65 0-.906-.66-.906-1.646 0-1.711 1.16-4.569 2.388-4.569.537 0 .739.637.739 1.416 0 1.737-1.103 4.799-2.221 4.799zm22.286-5.107c-.389-.466-.53-1.1-.53-1.666 0-.697.253-1.286.556-1.286.303 0 .395.3.395.719 0 .7-.248 1.72-.421 2.233zm5.044 5.107c-.65 0-.905-.76-.905-1.646 0-1.651 1.16-4.569 2.397-4.569.537 0 .727.632.727 1.416 0 1.737-1.084 4.799-2.219 4.799z" fill="#A3A3A3"/></svg>