<svg width="75" height="21" fill="none" xmlns="http://www.w3.org/2000/svg"><path d="M23.735 9.881c0 3.36 2.14 5.704 5.106 5.704 2.965 0 5.105-2.343 5.105-5.704 0-3.36-2.14-5.703-5.105-5.703-2.966 0-5.106 2.343-5.106 5.703zm8.255 0c0 2.405-1.3 3.962-3.15 3.962-1.849 0-3.148-1.557-3.148-3.962 0-2.404 1.3-3.961 3.149-3.961 1.85 0 3.149 1.557 3.149 3.961zm7.466 5.704c2.247 0 3.531-1.911 3.531-4.208s-1.284-4.209-3.531-4.209c-1.04 0-1.804.417-2.308 1.018v-.863h-1.835V18.19h1.835v-3.622c.504.6 1.268 1.017 2.308 1.017zm-2.354-4.44c0-1.526.856-2.358 1.987-2.358 1.33 0 2.048 1.048 2.048 2.59 0 1.541-.718 2.59-2.048 2.59-1.131 0-1.987-.848-1.987-2.344v-.477zm10.849 4.44c1.605 0 2.874-.848 3.44-2.266l-1.575-.601c-.245.832-.963 1.295-1.865 1.295-1.177 0-2.002-.848-2.14-2.235h5.625v-.617c0-2.22-1.238-3.993-3.561-3.993-2.324 0-3.822 1.835-3.822 4.209 0 2.497 1.605 4.208 3.898 4.208zm-.092-6.86c1.162 0 1.712.771 1.728 1.665h-3.684c.275-1.094 1.009-1.665 1.956-1.665zm4.954 6.691h1.834v-4.748c0-1.156.84-1.773 1.666-1.773 1.009 0 1.406.724 1.406 1.726v4.795h1.835v-5.334c0-1.742-1.01-2.914-2.69-2.914a2.82 2.82 0 00-2.217 1.018v-.863h-1.834v8.093zM64.926 4.347L60.77 15.416h1.94l.933-2.529h4.739l.948 2.528h1.97L67.143 4.348h-2.217zm1.07 2.19l1.743 4.624h-3.455l1.712-4.625zM74.45 4.38h-1.957v11.068h1.957V4.379zM19.252 8.412a5.158 5.158 0 00-.436-4.205 5.12 5.12 0 00-5.53-2.485A5.06 5.06 0 009.455 0a5.14 5.14 0 00-4.9 3.585A5.082 5.082 0 001.162 6.07a5.214 5.214 0 00.632 6.073 5.158 5.158 0 00.436 4.205 5.12 5.12 0 005.531 2.485 5.057 5.057 0 003.83 1.721 5.14 5.14 0 004.9-3.588 5.083 5.083 0 003.396-2.483 5.215 5.215 0 00-.633-6.07zm-7.66 10.798a3.788 3.788 0 01-2.446-.891 1.54 1.54 0 00.12-.07l4.06-2.363a.667.667 0 00.333-.582v-5.77l1.715.999a.06.06 0 01.033.047v4.778c-.002 2.125-1.709 3.848-3.816 3.852zm-8.207-3.534a3.863 3.863 0 01-.455-2.581l.12.072 4.059 2.364c.206.121.46.121.667 0l4.954-2.885v1.997a.064.064 0 01-.024.054l-4.102 2.388a3.806 3.806 0 01-5.218-1.41zM2.318 6.742a3.815 3.815 0 011.988-1.689l-.002.141v4.728a.667.667 0 00.333.582l4.955 2.885-1.715.999a.06.06 0 01-.058.005l-4.103-2.39a3.873 3.873 0 01-1.398-5.26v-.001zm14.093 3.307l-4.955-2.885 1.715-.998a.06.06 0 01.058-.006l4.103 2.39c1.827 1.063 2.453 3.42 1.398 5.262a3.825 3.825 0 01-1.987 1.688v-4.87a.666.666 0 00-.332-.581zm1.707-2.591a5.618 5.618 0 00-.12-.073l-4.06-2.363a.656.656 0 00-.666 0L8.316 7.907V5.909a.064.064 0 01.025-.053l4.102-2.387a3.802 3.802 0 015.217 1.413c.445.779.606 1.69.456 2.576zm-10.733 3.56l-1.716-.999a.06.06 0 01-.033-.047V5.194c.001-2.128 1.713-3.851 3.822-3.85a3.8 3.8 0 012.442.891 2.804 2.804 0 00-.12.07L7.72 4.667a.665.665 0 00-.333.582l-.003 5.767v.001zm.932-2.026l2.207-1.285 2.207 1.285v2.57l-2.207 1.284-2.207-1.284v-2.57z" fill="#A3A3A3"/></svg>