<svg width="85" height="16" fill="none" xmlns="http://www.w3.org/2000/svg"><path fill-rule="evenodd" clip-rule="evenodd" d="M.45 1.41C.45.64 1.083 0 1.848 0h16.05c.783 0 1.398.64 1.398 1.41v12.595c0 .79-.634 1.41-1.398 1.41H1.848c-.765 0-1.398-.64-1.398-1.41V1.41zm1.193.507v11.524c0 .432.28.714.708.714h15.062a.71.71 0 00.708-.714V1.917a.711.711 0 00-.708-.714H2.351a.711.711 0 00-.708.714zm.559 5.302c0-.395.317-.715.708-.715h3.3a.71.71 0 01.708.715v6.429H2.202V7.219zm5.331-2.275c0-.432.28-.714.709-.714h3.3a.71.71 0 01.707.714v8.78H7.46V4.887l.074.056zm5.257-2.406c0-.357.354-.715.708-.715h3.3a.71.71 0 01.708.715v11.185H12.79V2.481v.057zm15.77 7.294c0 .714-.28 1.41-.838 1.842-.56.432-1.399.714-2.387.714a5.557 5.557 0 01-2.46-.564v-1.691l1.473.564c.372.094.745.15 1.118.15.429 0 .708-.075.913-.207.205-.132.355-.432.355-.714 0-.15 0-.282-.15-.433a1.572 1.572 0 00-.428-.432l-1.193-.564c-.56-.282-.988-.489-1.193-.714-.299-.226-.522-.527-.709-.846-.149-.282-.205-.64-.205-1.053 0-.714.28-1.335.764-1.767a3.653 3.653 0 012.181-.714 8.72 8.72 0 012.592.639l-.56 1.41-1.193-.358a4.878 4.878 0 00-.913-.15c-.354 0-.56.075-.764.282-.205.15-.28.357-.28.64 0 .15 0 .281.15.432a12.09 12.09 0 001.546.996c.765.357 1.398.714 1.622 1.128.354.357.485.846.485 1.41h.074zm6.6 2.406h-5.052V3.459h5.051v1.485h-3.15v1.918h2.945v1.635H32.01v2.124h3.15v1.617zM39.931 7.5h.988c.709 0 1.119-.074 1.398-.356.355-.207.485-.64.485-1.053 0-.489-.15-.846-.485-1.053-.28-.207-.764-.357-1.398-.357h-.988V7.5zm0 1.204v3.459h-1.398V3.459h2.46c1.12 0 1.958.207 2.461.714.56.358.84.997.84 1.843 0 1.052-.56 1.842-1.678 2.33l2.46 3.817h-1.622l-2.106-3.534H39.95v.075h-.019zm10.309 3.459l-.28-.921h-.074c-.355.432-.709.714-.988.846-.28.15-.709.206-1.268.206a2.044 2.044 0 01-1.473-.564 1.966 1.966 0 01-.559-1.41c0-.714.28-1.203.709-1.56.559-.357 1.323-.564 2.386-.564h1.118v-.432c0-.432-.075-.714-.28-.921-.205-.207-.484-.282-.913-.282-.354 0-.708 0-.988.15l-.913.357-.41-1.052c.354-.17.726-.282 1.118-.358.41-.094.839-.15 1.268-.15.838 0 1.398.207 1.901.564.429.357.634.921.634 1.692v4.455h-.988v-.056zm-2.107-.997c.485 0 .914-.15 1.193-.432.355-.282.485-.714.485-1.128v-.564h-.839c-.708 0-1.193.15-1.398.357-.354.207-.485.49-.485.846 0 .357.075.564.206.715.204.15.484.206.838.206zm10.719.997h-1.398V8.14c0-.489-.075-.921-.28-1.128-.205-.282-.559-.357-.988-.357-.633 0-1.044.15-1.323.489-.28.357-.429.92-.429 1.767v3.252h-1.398v-6.58h1.118l.205.846c.224-.32.541-.564.914-.714a2.651 2.651 0 011.193-.282c1.622 0 2.386.846 2.386 2.406v4.324zm3.225-3.534l.764-.846 2.032-2.125h1.622l-2.666 2.82 2.796 3.741h-1.621L62.897 9.4l-.764.564v2.256h-1.398V3.045h1.398v4.456l-.15 1.278h.075v-.15h.019zm6.953 3.534h-1.398v-6.58h1.398v6.58zm-1.473-8.347c0-.207 0-.432.205-.564a.774.774 0 01.56-.207c.28 0 .428.076.559.207.149.15.205.357.205.564 0 .282 0 .433-.205.564-.15.15-.28.207-.56.207-.204 0-.428 0-.559-.207a.711.711 0 01-.205-.564zm9.172 8.347H75.33V8.14c0-.489-.075-.921-.28-1.128-.205-.282-.56-.357-.988-.357-.634 0-1.044.15-1.323.489-.28.357-.43.92-.43 1.767v3.252h-1.397v-6.58h1.118l.205.846c.224-.32.54-.564.914-.714.354-.15.708-.282 1.193-.282 1.621 0 2.386.846 2.386 2.406v4.324zm7.438-6.58v.715l-1.119.282c.224.338.354.733.354 1.128 0 .714-.205 1.203-.708 1.635-.485.357-1.119.564-1.957.564h-.56c-.28.15-.428.357-.428.564 0 .207 0 .282.205.357l.708.15h1.193c.708 0 1.323.15 1.678.433.354.357.559.77.559 1.41 0 .714-.28 1.278-.913 1.692a4.865 4.865 0 01-2.666.564c-.914 0-1.622-.15-2.107-.49a1.48 1.48 0 01-.503-2.03c.056-.112.15-.206.224-.3.298-.282.652-.489 1.044-.564a.99.99 0 01-.485-.432c-.093-.15-.13-.32-.15-.49 0-.281 0-.488.206-.714l.634-.432a1.837 1.837 0 01-.84-.714 2.114 2.114 0 01-.353-1.203 2.109 2.109 0 01.708-1.636c.429-.432 1.118-.64 1.901-.64.355 0 .709.057 1.044.151h2.33zm-5.183 7.576c0 .357.15.564.429.714.28.15.708.283 1.118.283a3.542 3.542 0 001.753-.358c.354-.207.559-.488.559-.846a.735.735 0 00-.354-.639c-.205-.15-.56-.15-1.119-.15h-1.044c-.428 0-.708 0-.987.282-.224.15-.355.432-.355.714zm.634-5.451c0 .432.075.714.28.996.205.207.559.282.913.282.839 0 1.268-.433 1.268-1.278 0-.433-.15-.715-.354-.997-.15-.207-.485-.357-.914-.357-.354 0-.708.15-.913.357-.205.207-.28.564-.28.997z" fill="#A3A3A3"/></svg>