<svg width="69" height="16" fill="none" xmlns="http://www.w3.org/2000/svg"><path d="M21.547 2.992a2.746 2.746 0 00-1.93-1.947c-1.703-.46-8.532-.46-8.532-.46s-6.828 0-8.531.46c-.94.253-1.68 1-1.93 1.947-.457 1.717-.457 5.3-.457 5.3s0 3.584.456 5.3a2.747 2.747 0 001.93 1.948c1.704.46 8.532.46 8.532.46s6.829 0 8.532-.46c.94-.253 1.68-1 1.93-1.947.457-1.717.457-5.3.457-5.3s0-3.584-.457-5.301z" fill="#A3A3A3"/><path d="M8.901 11.596l5.674-3.304L8.9 4.99v6.607z" fill="#fff"/><path d="M34.283 13.097c.12-.315.18-.83.18-1.543V8.546c0-.693-.06-1.2-.18-1.52-.12-.32-.33-.48-.633-.48-.291 0-.497.16-.616.48-.12.32-.18.827-.18 1.52v3.008c0 .713.057 1.228.172 1.543.114.315.322.472.624.472s.513-.157.633-.472zm-2.42 1.512c-.433-.294-.74-.75-.922-1.37-.182-.62-.273-1.444-.273-2.473V9.365c0-1.04.104-1.875.312-2.504.208-.63.534-1.09.976-1.378.443-.289 1.023-.433 1.741-.433.708 0 1.275.147 1.702.44.427.294.74.754.938 1.378.197.625.296 1.457.296 2.497v1.401c0 1.029-.096 1.856-.289 2.48-.193.625-.505 1.082-.937 1.37-.432.29-1.017.434-1.756.434-.76 0-1.357-.148-1.788-.441zm33.44-7.883c-.109.137-.182.36-.218.67-.037.31-.055.779-.055 1.409v.693h1.577v-.693c0-.62-.02-1.09-.062-1.41-.042-.32-.117-.545-.226-.677-.11-.131-.28-.197-.508-.197-.23 0-.398.069-.508.205zm-.273 4.063v.488c0 .62.018 1.084.055 1.394.036.31.111.536.226.677.115.142.291.213.531.213.323 0 .544-.126.664-.378s.184-.672.195-1.26l1.858.11c.01.084.016.2.016.347 0 .892-.242 1.559-.726 2-.484.44-1.169.661-2.054.661-1.061 0-1.806-.336-2.233-1.008-.427-.671-.64-1.71-.64-3.118V9.23c0-1.449.221-2.506.664-3.173.442-.667 1.2-1 2.272-1 .739 0 1.306.136 1.702.41.395.272.674.698.835 1.275.162.577.243 1.375.243 2.394v1.653H65.03zm-38.415-.181l-2.451-8.93h2.139l.859 4.048c.219.998.38 1.848.484 2.551h.062c.073-.503.235-1.349.484-2.535l.89-4.063h2.14l-2.483 8.93v4.283h-2.124v-4.284zm16.976-5.37v9.654h-1.686l-.188-1.181h-.047c-.458.892-1.145 1.338-2.06 1.338-.636 0-1.104-.21-1.406-.63-.302-.42-.453-1.076-.453-1.968V5.238h2.155v7.087c0 .43.047.738.14.921.094.184.25.276.469.276a.949.949 0 00.539-.174 1.07 1.07 0 00.382-.44v-7.67h2.155zm11.054 0v9.654h-1.687l-.187-1.181h-.047c-.458.892-1.145 1.338-2.061 1.338-.635 0-1.104-.21-1.405-.63-.303-.42-.453-1.076-.453-1.968V5.238h2.155v7.087c0 .43.046.738.14.921.094.184.25.276.469.276a.95.95 0 00.538-.174c.172-.115.3-.262.383-.44v-7.67h2.155z" fill="#A3A3A3"/><path d="M49.447 3.427h-2.139v11.465H45.2V3.427h-2.14V1.68h6.387v1.748zm10.355 7.293c0 .703-.029 1.254-.086 1.653-.057.399-.154.682-.289.85a.665.665 0 01-.546.252.99.99 0 01-.492-.126.944.944 0 01-.367-.378v-5.48c.072-.262.197-.478.374-.646.177-.168.37-.252.578-.252.219 0 .388.087.508.26.12.173.203.465.25.874.047.41.07.992.07 1.748v1.244zm1.975-3.938c-.13-.61-.34-1.05-.632-1.323-.292-.273-.693-.41-1.203-.41-.395 0-.765.113-1.108.339-.344.226-.61.522-.797.89h-.016V1.19h-2.076v13.7h1.78l.219-.912h.046c.167.325.417.582.75.771.333.189.703.284 1.109.284.728 0 1.265-.34 1.608-1.016.344-.678.515-1.735.515-3.173V9.317c0-1.081-.065-1.926-.195-2.535z" fill="#A3A3A3"/></svg>