<svg width="100" height="87" fill="none" xmlns="http://www.w3.org/2000/svg"><path d="M.5 85.5v.5h3.874c9.237 0 17.184-1.502 23.825-4.525h0l.01-.005c6.681-3.231 11.817-8.739 15.42-16.479 3.605-7.748 5.388-18.471 5.388-32.131v-5.32c0-8.616-1.22-15.332-3.706-20.1-2.278-4.912-5.244-8.366-8.924-10.298C32.752-4.952 28.826-6 24.618-6 18.134-6 12.933-4.001 9.074.034h0l-.01.01C5.41 4.068 3.594 9.139 3.594 15.22c0 6.45 1.909 11.541 5.78 15.203l.009.009.01.008c4.035 3.445 8.933 5.16 14.664 5.16a44.71 44.71 0 004.56-.227v3.647c0 6.683-.839 12.122-2.495 16.337h0l-.005.011c-1.464 4.01-3.828 6.894-7.082 8.694-3.272 1.81-7.77 2.738-13.535 2.738h-5v18.7zm58.483 0v.5h3.874c9.237 0 17.184-1.502 23.825-4.525h0l.01-.005c6.68-3.231 11.817-8.739 15.419-16.479 3.606-7.748 5.389-18.471 5.389-32.131v-5.32c0-8.616-1.22-15.332-3.707-20.101-2.277-4.91-5.243-8.365-8.923-10.297C91.234-4.952 87.309-6 83.1-6 76.618-6 71.417-4.001 67.557.034h0l-.008.01c-3.656 4.024-5.472 9.095-5.472 15.176 0 6.45 1.908 11.541 5.78 15.203l.009.009.01.008c4.034 3.445 8.932 5.16 14.663 5.16a44.75 44.75 0 004.562-.227v3.647c0 6.683-.84 12.122-2.496 16.337h0l-.005.011c-1.464 4.01-3.828 6.894-7.082 8.694-3.272 1.81-7.77 2.738-13.536 2.738h-4.998v18.7z" stroke="#D3D3D3"/></svg>