<svg width="128" height="56" viewBox="0 0 128 56" fill="none" xmlns="http://www.w3.org/2000/svg">
<path fill-rule="evenodd" clip-rule="evenodd" d="M92.0491 2.18182C91.0189 0.808332 89.4023 0 87.6854 0H8C3.58172 0 0 3.58172 0 8V48C0 52.4183 3.58173 56 8.00001 56H87.6854C89.4023 56 91.0189 55.1917 92.0491 53.8182C94.2309 50.9091 98.5945 50.9091 100.776 53.8182C101.806 55.1917 103.423 56 105.14 56H120C124.418 56 128 52.4183 128 48V8C128 3.58172 124.418 0 120 0H105.14C103.423 0 101.806 0.808332 100.776 2.18182C98.5945 5.09091 94.2309 5.09091 92.0491 2.18182Z" fill="#4369C8"/>
</svg>
