<svg width="168" height="56" viewBox="0 0 168 56" fill="none" xmlns="http://www.w3.org/2000/svg">
<path fill-rule="evenodd" clip-rule="evenodd" d="M122.303 2.18182C121.273 0.808332 119.656 0 117.939 0H8C3.58172 0 0 3.58172 0 8V48C0 52.4183 3.58172 56 8 56H117.939C119.656 56 121.273 55.1917 122.303 53.8182C124.485 50.9091 128.848 50.9091 131.03 53.8182C132.06 55.1917 133.677 56 135.394 56H160C164.418 56 168 52.4183 168 48V8C168 3.58172 164.418 0 160 0H135.394C133.677 0 132.06 0.808332 131.03 2.18182C128.848 5.09091 124.485 5.09091 122.303 2.18182Z" fill="#D5202C"/>
</svg>
