<svg width="126" height="56" viewBox="0 0 126 56" fill="none" xmlns="http://www.w3.org/2000/svg">
<path fill-rule="evenodd" clip-rule="evenodd" d="M89.93 2.18182C88.8999 0.808332 87.2832 0 85.5664 0H8C3.58172 0 0 3.58172 0 8V48C0 52.4183 3.58172 56 8 56H85.5664C87.2832 56 88.8999 55.1917 89.93 53.8182C92.1118 50.9091 96.4755 50.9091 98.6573 53.8182C99.6874 55.1917 101.304 56 103.021 56H117C121.418 56 125 52.4183 125 48V8C125 3.58172 121.418 0 117 0H103.021C101.304 0 99.6874 0.808332 98.6573 2.18182C96.4755 5.09091 92.1118 5.09091 89.93 2.18182Z" fill="#4369C8"/>
<path d="M28.746 32.766C27.8407 32.766 27.0753 32.6213 26.45 32.332C25.834 32.0427 25.3627 31.646 25.036 31.142C24.7093 30.6287 24.546 30.05 24.546 29.406H26.492C26.492 29.6767 26.5667 29.9427 26.716 30.204C26.8653 30.456 27.1033 30.6613 27.43 30.82C27.766 30.9787 28.2047 31.058 28.746 31.058C29.2313 31.058 29.6373 30.988 29.964 30.848C30.2907 30.708 30.5333 30.526 30.692 30.302C30.8507 30.0687 30.93 29.8073 30.93 29.518C30.93 29.154 30.776 28.8647 30.468 28.65C30.16 28.426 29.684 28.286 29.04 28.23L28.144 28.16C27.164 28.076 26.38 27.7727 25.792 27.25C25.2133 26.718 24.924 26.018 24.924 25.15C24.924 24.4967 25.078 23.9367 25.386 23.47C25.694 22.994 26.1233 22.63 26.674 22.378C27.234 22.1167 27.8873 21.986 28.634 21.986C29.4087 21.986 30.076 22.1213 30.636 22.392C31.196 22.6627 31.63 23.0453 31.938 23.54C32.246 24.0253 32.4 24.5993 32.4 25.262H30.454C30.454 24.982 30.384 24.7253 30.244 24.492C30.1133 24.2493 29.9127 24.058 29.642 23.918C29.3807 23.7687 29.0447 23.694 28.634 23.694C28.242 23.694 27.9153 23.7593 27.654 23.89C27.3927 24.0207 27.1967 24.198 27.066 24.422C26.9353 24.646 26.87 24.8887 26.87 25.15C26.87 25.4673 26.9867 25.7473 27.22 25.99C27.4533 26.2233 27.822 26.3587 28.326 26.396L29.222 26.48C29.95 26.536 30.5893 26.69 31.14 26.942C31.6907 27.194 32.1153 27.5347 32.414 27.964C32.722 28.3933 32.876 28.9113 32.876 29.518C32.876 30.162 32.708 30.7313 32.372 31.226C32.036 31.7113 31.5553 32.0893 30.93 32.36C30.314 32.6307 29.586 32.766 28.746 32.766ZM36.4362 32.5V23.75H38.4242V32.5H36.4362ZM33.4822 24.03V22.28H41.3782V24.03H33.4822ZM42.9651 32.5V22.28H44.9111V32.5H42.9651ZM44.6311 32.5V30.82H49.2651V32.5H44.6311ZM44.6311 28.146V26.466H48.9011V28.146H44.6311ZM44.6311 23.96V22.28H49.1531V23.96H44.6311ZM53.0129 29.364V27.642H55.0009C55.4023 27.642 55.7383 27.5627 56.0089 27.404C56.2889 27.2453 56.4989 27.026 56.6389 26.746C56.7883 26.466 56.8629 26.144 56.8629 25.78C56.8629 25.416 56.7883 25.094 56.6389 24.814C56.4989 24.534 56.2889 24.3193 56.0089 24.17C55.7383 24.0113 55.4023 23.932 55.0009 23.932H53.0129V22.21H54.8329C55.6916 22.21 56.4196 22.35 57.0169 22.63C57.6236 22.91 58.0856 23.3113 58.4029 23.834C58.7203 24.3473 58.8789 24.9587 58.8789 25.668V25.892C58.8789 26.6013 58.7203 27.2173 58.4029 27.74C58.0856 28.2533 57.6236 28.6547 57.0169 28.944C56.4196 29.224 55.6916 29.364 54.8329 29.364H53.0129ZM51.3049 32.5V22.21H53.2929V32.5H51.3049ZM64.8713 32.5V23.512L65.4873 23.988H62.7853V22.28H66.8453V32.5H64.8713Z" fill="white"/>
<path d="M100.071 20.929L107.142 28L100.071 35.0711" stroke="white" stroke-width="1.5"/>
</svg>
