<svg width="264" height="56" viewBox="0 0 264 56" fill="none" xmlns="http://www.w3.org/2000/svg">
<path fill-rule="evenodd" clip-rule="evenodd" d="M195.113 2.18182C194.082 0.808332 192.466 0 190.749 0H8C3.58172 0 0 3.58172 0 8V48C0 52.4183 3.58172 56 8 56H190.749C192.466 56 194.082 55.1917 195.113 53.8182C197.294 50.9091 201.658 50.9091 203.84 53.8182C204.87 55.1917 206.487 56 208.203 56H256C260.418 56 264 52.4183 264 48V8C264 3.58172 260.418 0 256 0H208.203C206.487 0 204.87 0.808332 203.84 2.18182C201.658 5.09091 197.294 5.09091 195.113 2.18182Z" fill="#D5202C"/>
</svg>
