<svg width="435" height="721" viewBox="0 0 435 721" fill="none" xmlns="http://www.w3.org/2000/svg">
<path fill-rule="evenodd" clip-rule="evenodd" d="M145.244 0H282.488C286.906 0 290.488 3.58173 290.488 8.00001V136.402C290.488 140.82 294.07 144.402 298.488 144.402H426.892C431.31 144.402 434.892 147.984 434.892 152.402V281.646C434.892 286.064 431.31 289.646 426.892 289.646H299.329C294.911 289.646 291.329 293.228 291.329 297.646V425.208C291.329 429.627 294.911 433.208 299.329 433.208H426.892C431.31 433.208 434.892 436.79 434.892 441.208V570.453C434.892 574.871 431.31 578.453 426.892 578.453H304.097C299.678 578.453 296.097 582.034 296.097 586.453V712.334C296.097 716.752 292.515 720.334 288.097 720.334H158.852C154.434 720.334 150.852 716.752 150.852 712.334V583.089C150.852 578.671 154.434 575.089 158.852 575.089H281.648C286.066 575.089 289.648 571.508 289.648 567.089V442.893C289.648 438.474 286.066 434.893 281.648 434.893H153.244C148.826 434.893 145.244 431.311 145.244 426.893V290.069C145.244 289.837 145.432 289.649 145.665 289.649C145.897 289.649 146.085 289.46 146.085 289.228C146.085 288.995 146.274 288.807 146.506 288.807H281.648C286.066 288.807 289.648 285.225 289.648 280.807V153.244C289.648 148.826 286.066 145.244 281.648 145.244H145.244H145.244H8.00006C3.58179 145.244 6.10352e-05 141.662 6.10352e-05 137.244V8C6.10352e-05 3.58173 3.58179 0 8.00006 0H145.244H145.244Z" fill="white"/>
</svg>
