<svg width="236" height="274" viewBox="0 0 236 274" fill="none" xmlns="http://www.w3.org/2000/svg">
<path d="M4.05078 263.889H218.026C222.445 263.889 226.026 260.308 226.026 255.889V0.985433" stroke="#D5202C" stroke-width="2"/>
<path d="M235.744 0.674042C234.546 0.674042 233.37 0.685707 232.258 0.839136C229.253 1.25378 227.398 4.00143 225.964 6.67404V6.67404V6.67404C224.412 3.88919 222.404 1.03804 219.228 0.755051C218.328 0.674839 217.389 0.674041 216.436 0.674041L235.744 0.674042Z" fill="#D5202C"/>
<path d="M0.189453 253.674C0.189453 254.983 0.20199 256.267 0.374567 257.474C0.795849 260.421 3.40222 262.319 5.98177 263.804V263.804V263.804C3.29379 265.412 0.585245 267.461 0.285789 270.579C0.190339 271.573 0.189453 272.615 0.189453 273.674L0.189453 253.674Z" fill="#D5202C"/>
</svg>
