<svg width="35" height="35" viewBox="0 0 35 35" fill="none" xmlns="http://www.w3.org/2000/svg">
<rect width="35" height="35" rx="8" fill="white"/>
<path fill-rule="evenodd" clip-rule="evenodd" d="M6.7085 13.2661C6.7085 9.56382 9.70981 6.5625 13.4121 6.5625H21.8799C25.5821 6.5625 28.5835 9.56381 28.5835 13.2661V21.7339C28.5835 25.4361 25.5821 28.4375 21.8799 28.4375H13.4121C9.7098 28.4375 6.7085 25.4361 6.7085 21.7339V13.2661ZM13.4121 8.67944C10.879 8.67944 8.82543 10.733 8.82543 13.2661V21.7339C8.82543 24.267 10.879 26.3206 13.4121 26.3206H21.8799C24.413 26.3206 26.4666 24.267 26.4666 21.7339V13.2661C26.4666 10.733 24.413 8.67944 21.8799 8.67944H13.4121Z" fill="black"/>
<path fill-rule="evenodd" clip-rule="evenodd" d="M17.6459 14.3245C15.8921 14.3245 14.4705 15.7461 14.4705 17.4999C14.4705 19.2536 15.8921 20.6753 17.6459 20.6753C18.4879 20.6753 19.2957 20.3407 19.8912 19.7452C20.4867 19.1497 20.8213 18.3419 20.8213 17.4999C20.8213 15.7461 19.3996 14.3245 17.6459 14.3245ZM12.3535 17.4999C12.3535 14.5769 14.7229 12.2075 17.6459 12.2075C20.5688 12.2075 22.9382 14.5769 22.9382 17.4999C22.9382 18.9034 22.3806 20.2496 21.3881 21.2421C20.3956 22.2346 19.0494 22.7922 17.6459 22.7922C14.7229 22.7922 12.3535 20.4228 12.3535 17.4999Z" fill="black"/>
<path d="M23.2912 10.443C22.5117 10.443 21.8799 11.0749 21.8799 11.8543C21.8799 12.6338 22.5117 13.2656 23.2912 13.2656C24.0706 13.2656 24.7025 12.6338 24.7025 11.8543C24.7025 11.0749 24.0706 10.443 23.2912 10.443Z" fill="black"/>
<path fill-rule="evenodd" clip-rule="evenodd" d="M23.2912 13.2661C22.5117 13.2661 21.8799 12.6343 21.8799 11.8548C21.8799 11.0754 22.5117 10.4435 23.2912 10.4435C24.0706 10.4435 24.7025 11.0754 24.7025 11.8548C24.7025 12.6343 24.0706 13.2661 23.2912 13.2661Z" fill="black"/>
</svg>
