<svg width="35" height="35" viewBox="0 0 35 35" fill="none" xmlns="http://www.w3.org/2000/svg">
<rect width="35" height="35" rx="8" fill="white"/>
<path fill-rule="evenodd" clip-rule="evenodd" d="M28.4375 28.4375H24.0625V20.7823C24.0625 18.6823 23.1361 17.5107 21.4747 17.5107C19.6667 17.5107 18.5938 18.7315 18.5938 20.7823V28.4375H14.2188V14.2188H18.5938V15.8177C18.5938 15.8177 19.9664 13.4091 23.0595 13.4091C26.1537 13.4091 28.4375 15.2973 28.4375 19.2042V28.4375ZM9.23344 11.9447C7.75797 11.9447 6.5625 10.7395 6.5625 9.25308C6.5625 7.76777 7.75797 6.5625 9.23344 6.5625C10.7078 6.5625 11.9033 7.76777 11.9033 9.25308C11.9044 10.7395 10.7078 11.9447 9.23344 11.9447ZM6.5625 28.4375H12.0312V14.2188H6.5625V28.4375Z" fill="black"/>
</svg>
