<svg width="80" height="16" viewBox="0 0 80 16" fill="none" xmlns="http://www.w3.org/2000/svg">
<path d="M6.19205 2.40992C5.25702 2.40992 4.99176 2.82805 4.99176 3.74903V5.27092H7.47792L7.23366 7.73418H4.99176V15.2024H2.01709V7.73418H0V5.27092H2.00697V3.79217C2.00697 1.30694 2.9949 0 5.76732 0C6.36241 0 7.07419 0.0431472 7.49892 0.107474V2.42169M7.67006 10.5426C7.67006 13.3173 8.97692 15.3954 11.6964 15.3954C13.1838 15.3954 14.1188 14.6454 14.5327 13.6931V15.193H17.3906V5.26935H14.5327V6.79124C14.097 5.83809 13.1947 5.05597 11.6964 5.05597C8.97381 5.05597 7.67006 7.14504 7.67006 9.90876M10.6556 9.86561C10.6556 8.38687 11.197 7.40235 12.5786 7.40235C13.7999 7.40235 14.4168 8.30215 14.4168 9.71656V10.7129C14.4168 12.1273 13.8007 13.0271 12.5786 13.0271C11.1978 13.0271 10.6556 12.052 10.6556 10.5638V9.86561ZM23.5951 5.05518C20.1086 5.05675 18.5139 6.95206 18.5139 9.99505V10.4555C18.5139 13.4978 20.1071 15.3946 23.6029 15.3946C24.7698 15.3946 25.8549 15.1483 26.4609 14.7302L25.802 12.598C25.1805 12.8943 24.5027 13.0514 23.8153 13.0584C22.2004 13.0584 21.4995 12.1155 21.4995 10.5191V9.94092C21.4995 8.33431 22.1996 7.40156 23.8153 7.40156C24.5932 7.40156 25.3454 7.62671 25.802 7.86205L26.4609 5.72984C25.8557 5.30151 24.7612 5.05518 23.6029 5.05518M26.8429 10.6046C26.8429 13.5189 28.2454 15.415 32.0058 15.415C33.4293 15.415 35.0442 15.1044 35.8299 14.6855L35.2885 12.6176C34.4172 12.9925 33.238 13.2177 32.1224 13.2177C30.4655 13.2177 29.8704 12.6176 29.8067 11.2565H36.0742V9.67184C36.0742 6.92617 34.7362 5.04342 31.6759 5.04342C28.4243 5.04342 26.8421 6.89714 26.8421 9.71421V10.6109M29.8168 9.31491C29.8168 7.9758 30.338 7.12935 31.6837 7.12935C32.9906 7.12935 33.4153 7.98678 33.4153 9.06858V9.31491H29.8168ZM47.1226 9.91503C47.1226 7.14033 45.7948 5.06225 43.0752 5.06225C41.6945 5.06225 40.7384 5.76828 40.3028 6.64689V0.0156899L37.3281 0.282413V15.1875H40.1441V13.6876C40.5587 14.6407 41.5887 15.4017 43.0768 15.4017C45.7994 15.4017 47.1242 13.3126 47.1242 10.5489M44.1495 10.592C44.1495 11.9845 43.6081 13.0349 42.1845 13.0349C40.9632 13.0349 40.3044 12.1563 40.3044 10.7419V9.70244C40.3044 8.28802 40.9632 7.40941 42.1845 7.40941C43.6081 7.40941 44.1495 8.44884 44.1495 9.85228V10.592ZM48.123 10.4744C48.123 13.3346 49.7379 15.3915 53.0206 15.3915C56.3034 15.3915 57.9183 13.3236 57.9183 10.4744V9.97073C57.9183 7.11052 56.3034 5.05362 53.0206 5.05362C49.7379 5.05362 48.123 7.1215 48.123 9.97073V10.4744ZM54.9436 10.6783C54.9436 11.9963 54.4022 13.0349 53.0206 13.0349C51.6391 13.0349 51.0977 11.9955 51.0977 10.6783V9.75735C51.0977 8.43943 51.6391 7.40078 53.0206 7.40078C54.4022 7.40078 54.9436 8.44021 54.9436 9.75735V10.6783ZM58.9062 10.4744C58.9062 13.3346 60.5211 15.3915 63.8038 15.3915C67.0866 15.3915 68.7015 13.3236 68.7015 10.4744V9.97073C68.7015 7.11052 67.0866 5.05362 63.8038 5.05362C60.5211 5.05362 58.9062 7.1215 58.9062 9.97073V10.4744ZM65.7361 10.6783C65.7361 11.9963 65.1947 13.0349 63.8132 13.0349C62.4316 13.0349 61.8894 12.0151 61.8894 10.6815V9.76049C61.8894 8.44257 62.4308 7.40392 63.8124 7.40392C65.1939 7.40392 65.7354 8.44335 65.7354 9.76049L65.7361 10.6783ZM72.801 0.00784497L69.8263 0.274568V15.1608H72.801V10.3081L75.8605 15.1608H79.0265L75.8184 10.1402L78.8989 5.24503H75.7329L72.8002 9.98015" fill="#A3A3A3"/>
</svg>
