<svg width="103" height="16" viewBox="0 0 103 16" fill="none" xmlns="http://www.w3.org/2000/svg">
<path fill-rule="evenodd" clip-rule="evenodd" d="M63.4302 8.60158L62.5742 8.44743C61.7182 8.29328 61.0151 8.07747 61.0151 7.21423C61.0151 6.44348 61.7794 6.10435 62.7271 6.10435C64.1334 6.10435 65.3868 6.78261 65.5091 6.84427L66.3039 4.717C65.9982 4.56285 64.7448 3.85375 62.7576 3.85375C60.9234 3.85375 58.7222 4.84032 58.7222 7.30672C58.7222 9.52648 60.2508 10.2356 61.7182 10.4822L62.7271 10.6672C63.7054 10.8522 64.2556 11.2221 64.2556 11.9004C64.2556 12.7636 63.4914 13.1644 62.3297 13.1644C60.4648 13.1644 59.3642 12.5787 59.0585 12.4553L58.2025 14.5209C58.4777 14.6751 59.7311 15.415 62.2379 15.415C64.6531 15.415 66.5791 14.1818 66.5791 11.8696C66.5485 9.71146 65.1422 8.90988 63.4302 8.60158ZM70.7979 0L68.5051 1.29486V4.06957H67.3128V6.32016H68.5051V11.2221C68.5051 13.3186 69.3305 15.1684 72.2653 15.1684H73.1825V12.9178H72.8462C71.4093 12.9178 70.7979 12.0545 70.7979 10.883V6.35099H73.427V4.1004H70.7979V0ZM88.621 6.16601C89.5076 6.16601 90.4247 6.59763 90.6998 7.58419L92.7787 6.78261C92.1978 4.65534 90.3024 3.85375 88.621 3.85375C85.625 3.85375 84.4021 5.79605 84.4021 7.67668V11.5921C84.4021 13.4727 85.625 15.415 88.621 15.415C90.3024 15.415 92.1978 14.6134 92.7787 12.4862L90.6998 11.6846C90.4247 12.702 89.5076 13.1336 88.621 13.1336C87.0618 13.1336 86.6644 12.2395 86.6644 11.253V8.04664C86.6644 7.06008 87.0618 6.16601 88.621 6.16601ZM98.3732 9.06403L102.653 4.06957H99.8407L96.1721 8.4166V0H93.8793V15.1992H96.1721V11.6538L96.9058 10.7597L100.177 15.1684H102.898L98.3732 9.06403ZM79.8164 6.50514H77.4319C77.065 6.50514 76.7593 6.81344 76.7593 7.21423V9.89644H74.4053V7.21423C74.3748 5.51858 75.7505 4.1004 77.4319 4.06957H79.8164V6.50514ZM77.8904 12.7636H80.2444C80.6113 12.7636 80.917 12.4553 80.917 12.0545V9.37233H83.271V12.0545C83.3016 13.7502 81.9259 15.1684 80.2444 15.1684H77.8904V12.7636ZM39.1872 4.06957H41.8163V6.35099H39.1872V10.9138C39.1872 12.0854 39.7986 12.9486 41.2354 12.9486H41.5717V15.1992H40.6546C37.7197 15.1992 36.8943 13.3186 36.8943 11.253V6.35099H33.0423V10.9138C33.0423 12.0854 33.6537 12.9486 35.0906 12.9486H35.4269V15.1992H34.5097C31.5749 15.1992 30.7495 13.3186 30.7495 11.253V6.35099H29.5878V4.06957H30.7495V1.29486L33.0423 0V4.06957H36.8637V1.29486L39.1566 0V4.06957M14.5467 3.85375C13.813 3.85375 13.0792 4.00791 12.4372 4.28538V0H10.1444V15.1992H12.4372V6.50514C12.8958 6.19684 13.5684 6.01186 14.2104 6.01186C15.6472 6.01186 16.3198 6.84427 16.3198 8.04664V15.1684H18.6127V7.76917C18.5821 5.51858 17.0229 3.85375 14.5467 3.85375ZM26.1026 12.9794C25.6746 13.2261 25.1243 13.3494 24.5741 13.3494C22.8621 13.3494 22.2201 12.4553 22.2201 11.2221V4.06957H19.9272V11.253C19.9272 14.0585 21.4864 15.3842 24.2684 15.3842C25.5829 15.3842 27.0809 15.0451 28.3649 14.4593V4.06957H26.0721L26.1026 12.9794ZM5.89499 8.60158L5.03899 8.44743C4.18299 8.29328 3.47985 8.07747 3.47985 7.21423C3.47985 6.44348 4.24413 6.10435 5.19185 6.10435C6.59813 6.10435 7.85155 6.78261 8.00441 6.84427L8.76869 4.717C8.46298 4.56285 7.20955 3.85375 5.22242 3.85375C3.38814 3.85375 1.187 4.84032 1.187 7.30672C1.187 9.52648 2.71557 10.2356 4.18299 10.4822L5.19185 10.6672C6.17013 10.8522 6.72041 11.2221 6.72041 11.9004C6.72041 12.7636 5.95613 13.1644 4.79442 13.1644C2.92957 13.1644 1.829 12.5787 1.52329 12.4553L0.636719 14.5209C0.911861 14.6751 2.16528 15.415 4.67213 15.415C7.08727 15.415 9.01326 14.1818 9.01326 11.8696C8.98269 9.71146 7.60698 8.90988 5.89499 8.60158ZM48.9394 8.78656H45.0874V7.98498C45.0874 7.09091 45.5154 6.10435 47.0134 6.10435C48.4503 6.10435 48.9394 7.02925 48.9394 7.92332V8.78656ZM51.2323 7.67668C51.2323 5.6419 49.7343 3.85375 47.044 3.85375C43.9869 3.85375 42.8251 5.82688 42.8251 7.67668V11.3763C42.8251 13.9352 44.4149 15.415 47.044 15.415C49.398 15.415 50.5903 14.0277 50.9571 13.1644L49.0311 11.9621C48.8783 12.4553 48.114 13.1644 47.0746 13.1644C45.6683 13.1644 45.118 12.3628 45.118 11.3146V10.698H51.2323C51.2323 10.7289 51.2323 7.67668 51.2323 7.67668ZM52.6997 7.67668V15.1992H54.9925V7.89249C54.9925 7.24506 55.3288 6.16601 57.0102 6.16601C57.2854 6.16601 57.8662 6.2585 58.0497 6.28933V3.97708C57.6828 3.88458 57.2854 3.85375 56.888 3.85375C53.9837 3.85375 52.6997 5.76522 52.6997 7.67668Z" fill="#A3A3A3"/>
</svg>
