<svg width="66" height="21" viewBox="0 0 66 21" fill="none" xmlns="http://www.w3.org/2000/svg">
<path d="M9.00398 7.33381V9.52928H14.2382C14.0992 10.7438 13.6823 11.678 13.0338 12.2853C12.2927 13.0327 11.0884 13.8735 9.00398 13.8735C5.80789 13.8735 3.3066 11.2576 3.3066 8.0345C3.3066 4.81136 5.76157 2.19547 9.00398 2.19547C10.7178 2.19547 12.0148 2.89616 12.9412 3.78369L14.4698 2.24218C13.1728 0.980956 11.4126 0 9.00398 0C4.60356 0 0.897949 3.59684 0.897949 8.0345C0.897949 12.4722 4.60356 16.069 9.00398 16.069C11.3663 16.069 13.1728 15.2749 14.5624 13.8268C15.9983 12.3787 16.4615 10.3234 16.4615 8.68847C16.4615 8.17463 16.4152 7.70751 16.3689 7.33381H9.00398Z" fill="#A3A3A3"/>
<path d="M22.9466 5.51215C20.1211 5.51215 17.7588 7.70762 17.7588 10.6972C17.7588 13.6868 20.0748 15.8822 22.9466 15.8822C25.8185 15.8822 28.1345 13.7335 28.1345 10.7439C28.1345 7.70762 25.8185 5.51215 22.9466 5.51215ZM22.9466 13.8736C21.3718 13.8736 20.0285 12.5657 20.0285 10.7439C20.0285 8.87542 21.3718 7.61419 22.9466 7.61419C24.5215 7.61419 25.8648 8.87542 25.8648 10.7439C25.8648 12.5657 24.5215 13.8736 22.9466 13.8736Z" fill="#A3A3A3"/>
<path d="M48.2835 6.67995H48.1908C47.6813 6.07269 46.7086 5.51215 45.4579 5.51215C42.864 5.51215 40.6406 7.75433 40.6406 10.6972C40.6406 13.5934 42.864 15.8822 45.4579 15.8822C46.7086 15.8822 47.6813 15.3217 48.1908 14.7144H48.2835V15.4618C48.2835 17.4238 47.2181 18.4981 45.5506 18.4981C44.161 18.4981 43.3272 17.5172 42.9566 16.6296L41.0112 17.4705C41.567 18.8251 43.0956 20.5535 45.5969 20.5535C48.2371 20.5535 50.5068 18.9653 50.5068 15.1349V5.79242H48.3761V6.67995H48.2835ZM45.6895 13.8736C44.1146 13.8736 42.9566 12.519 42.9566 10.7439C42.9566 8.92213 44.161 7.61419 45.6895 7.61419C47.2181 7.61419 48.4224 8.96885 48.4224 10.7906C48.4687 12.5657 47.2644 13.8736 45.6895 13.8736Z" fill="#A3A3A3"/>
<path d="M34.4799 5.51215C31.6543 5.51215 29.292 7.70762 29.292 10.6972C29.292 13.6868 31.608 15.8822 34.4799 15.8822C37.3517 15.8822 39.6677 13.7335 39.6677 10.7439C39.6677 7.70762 37.3517 5.51215 34.4799 5.51215ZM34.4799 13.8736C32.905 13.8736 31.5617 12.5657 31.5617 10.7439C31.5617 8.87542 32.905 7.61419 34.4799 7.61419C36.0547 7.61419 37.398 8.87542 37.398 10.7439C37.398 12.5657 36.0547 13.8736 34.4799 13.8736Z" fill="#A3A3A3"/>
<path d="M52.2207 0.233673H54.4441V15.929H52.2207V0.233673Z" fill="#A3A3A3"/>
<path d="M61.2993 13.8736C60.1413 13.8736 59.3539 13.3598 58.798 12.2854L65.6997 9.43597L65.4681 8.82871C65.0513 7.66091 63.708 5.51215 61.0677 5.51215C58.4275 5.51215 56.2041 7.61419 56.2041 10.6972C56.2041 13.5934 58.3811 15.8822 61.2993 15.8822C63.6616 15.8822 65.0049 14.4342 65.6071 13.5934L63.8469 12.4255C63.2448 13.3131 62.4573 13.8736 61.2993 13.8736ZM61.1604 7.47406C62.0868 7.47406 62.8742 7.94118 63.1058 8.59515L58.4738 10.5571C58.4275 8.4083 60.0024 7.47406 61.1604 7.47406Z" fill="#A3A3A3"/>
</svg>
