<svg width="102" height="12" viewBox="0 0 102 12" fill="none" xmlns="http://www.w3.org/2000/svg">
<path d="M22.6379 0.821663C22.0098 1.06133 21.5175 1.40372 21.178 1.84882C20.8385 2.29392 20.6687 2.79037 20.6687 3.37243C20.6687 4.51942 21.3647 5.44386 22.7397 6.09439C23.1641 6.29982 23.7074 6.50525 24.3694 6.7278C25.0315 6.95035 25.5068 7.15578 25.7614 7.36122C26.033 7.56665 26.1518 7.85767 26.1518 8.21718C26.1518 8.54244 26.033 8.79923 25.7784 8.97042C25.5407 9.14161 25.2012 9.24433 24.7768 9.24433C24.1148 9.24433 23.6395 9.10738 23.3509 8.85059C23.0623 8.5938 22.9095 8.18294 22.9095 7.618H20.3462C20.3462 8.30277 20.5159 8.90194 20.8724 9.43264C21.2289 9.96334 21.7552 10.3742 22.4512 10.6652C23.1472 10.9734 23.928 11.1103 24.7938 11.1103C26.016 11.1103 26.9836 10.8535 27.6796 10.34C28.3756 9.82638 28.7321 9.10738 28.7321 8.20006C28.7321 7.07019 28.155 6.17999 27.0176 5.52945C26.5423 5.25555 25.9481 5.01588 25.2012 4.77621C24.4713 4.53654 23.962 4.31399 23.6564 4.10856C23.3678 3.88601 23.2151 3.64634 23.2151 3.38955C23.2151 3.0814 23.3509 2.84173 23.6055 2.6363C23.8771 2.43087 24.2336 2.34527 24.6919 2.34527C25.1503 2.34527 25.5068 2.46511 25.7614 2.68766C26.033 2.92733 26.1518 3.2526 26.1518 3.66346H28.6982C28.6982 3.03005 28.5284 2.46511 28.1889 1.96865C27.8494 1.4722 27.3741 1.09557 26.7799 0.838784C26.1688 0.564876 25.4898 0.445038 24.7259 0.445038C23.962 0.445038 23.266 0.564875 22.6379 0.821663ZM31.8047 0.445038V11.1103H38.8496V9.12449H34.2662V6.57373H38.1366V4.67349H34.2662V2.43087H38.8496V0.445038M41.9561 0.445038V11.1103H44.4515V7.3441H45.8096L47.6429 11.1103H50.3251V11.0076L48.1522 6.69356C48.7803 6.38541 49.2386 5.99167 49.5272 5.51233C49.8158 5.01588 49.9686 4.4167 49.9686 3.66346C49.9686 2.6363 49.6291 1.84882 48.9331 1.28388C48.2371 0.71895 47.2695 0.445038 46.0472 0.445038H41.9561ZM44.4515 2.43087H46.0302C46.5056 2.43087 46.862 2.56783 47.0997 2.82462C47.3374 3.08141 47.4562 3.44091 47.4562 3.90313C47.4562 4.36535 47.3374 4.72485 47.0997 4.98164C46.862 5.23843 46.5056 5.37538 46.0302 5.37538H44.4515V2.43087ZM52.9733 0.445038V11.1103H55.5366V7.49817H57.1832C58.4733 7.49817 59.4919 7.19002 60.2388 6.55661C60.9857 5.94032 61.3592 5.10147 61.3592 4.0572C61.3592 3.35531 61.1894 2.7219 60.8499 2.17408C60.5104 1.62627 60.0181 1.19829 59.39 0.890139C58.7619 0.581993 58.049 0.445038 57.2341 0.445038H52.9733ZM55.5366 2.43087H57.2511C57.7094 2.43087 58.0829 2.58495 58.3545 2.89309C58.6261 3.18412 58.7619 3.59498 58.7619 4.09144C58.7619 4.55366 58.6261 4.89604 58.3715 5.15283C58.1169 5.40962 57.7264 5.52945 57.2341 5.52945H55.5535L55.5366 2.43087Z" fill="#A3A3A3"/>
<path d="M65.3994 0.821663C64.7713 1.06133 64.279 1.40372 63.9395 1.84882C63.6 2.29392 63.4302 2.79037 63.4302 3.37243C63.4302 4.51942 64.1262 5.44386 65.5012 6.09439C65.9256 6.29982 66.4688 6.50525 67.1309 6.7278C67.7929 6.95035 68.2682 7.15578 68.5229 7.36122C68.7945 7.56665 68.9133 7.85767 68.9133 8.21718C68.9133 8.54244 68.7945 8.79923 68.5399 8.97042C68.2852 9.14161 67.9627 9.24433 67.5383 9.24433C66.8762 9.24433 66.4009 9.10738 66.1123 8.85059C65.8238 8.5938 65.671 8.18294 65.671 7.618H63.1077C63.1077 8.30277 63.2774 8.90194 63.6339 9.43264C63.9904 9.96334 64.5166 10.3742 65.2126 10.6652C65.9086 10.9734 66.6895 11.1103 67.5553 11.1103C68.7775 11.1103 69.7451 10.8535 70.4411 10.34C71.1371 9.82638 71.4936 9.10738 71.4936 8.20006C71.4936 7.07019 70.9164 6.16287 69.7791 5.52945C69.3038 5.25555 68.7096 5.01588 67.9627 4.77621C67.2327 4.53654 66.7065 4.31399 66.4179 4.10856C66.1293 3.88601 65.9765 3.64634 65.9765 3.38955C65.9765 3.0814 66.1123 2.84173 66.367 2.6363C66.6386 2.43087 66.9951 2.34527 67.4534 2.34527C67.9118 2.34527 68.2682 2.46511 68.5229 2.68766C68.7945 2.92733 68.9133 3.2526 68.9133 3.66346H71.4597C71.4597 3.03005 71.2899 2.46511 70.9504 1.96865C70.6109 1.4722 70.1356 1.09557 69.5414 0.838784C68.9303 0.564876 68.2513 0.445038 67.4874 0.445038C66.7404 0.445038 66.0275 0.564875 65.3994 0.821663ZM73.2591 0.445038V2.43087H76.3656V11.1103H78.9119V2.43087H82.0864V0.445038M86.3812 0.445038L82.5108 11.1103H85.2269L85.838 9.12449H89.318L89.9291 11.1103H92.6622L88.7578 0.445038H86.3812ZM87.5695 3.44091L88.7068 7.13866H86.4491L87.5695 3.44091ZM93.1035 0.445038V2.43087H96.2101V11.1103H98.7564V2.43087H101.931V0.445038" fill="#A3A3A3"/>
<path d="M16.0513 0H5.74711C5.57735 0 5.42457 0.154072 5.42457 0.325265C5.42457 0.42798 5.45852 0.496456 5.52643 0.564933L7.75023 2.80755C7.88603 2.94451 7.88603 3.14994 7.75023 3.28689L4.0835 6.96753C3.98165 7.07024 4.0156 7.22432 4.13443 7.29279L4.59277 7.54958C4.67765 7.60094 4.81345 7.58382 4.89833 7.53247C5.01716 7.46399 5.13599 7.42975 5.28877 7.42975C5.39062 7.42975 5.4755 7.44687 5.56038 7.4811C5.61131 7.49822 5.66223 7.49822 5.69618 7.46398L6.56194 6.6765C6.56194 6.65938 6.56194 6.64226 6.56194 6.62514C6.56194 6.19716 6.90145 5.85478 7.32584 5.85478C7.68233 5.85478 7.97091 6.09445 8.05579 6.43683L8.90457 6.79634C8.93852 6.81345 8.95549 6.79633 8.98945 6.77922C9.10827 6.69362 9.26105 6.64226 9.41384 6.64226C9.48174 6.64226 9.56662 6.65938 9.63452 6.6765C9.66847 6.6765 9.68545 6.6765 9.70242 6.65938L11.1623 5.22137C11.1793 5.20425 11.1963 5.17001 11.1963 5.13577C11.1793 4.38253 11.7395 4.29693 11.9432 4.27981C12.2657 4.26269 12.5543 4.50236 12.6562 4.79339C12.6731 4.82763 12.6901 4.84474 12.7241 4.86186L13.6408 5.18713C13.6747 5.20425 13.7087 5.18713 13.7426 5.17001C13.8784 5.05017 14.0482 4.96458 14.2519 4.96458C14.3198 4.96458 14.4386 5.01594 14.5065 4.93034L16.3399 3.04722C16.3738 3.01298 16.3908 2.97874 16.3908 2.92739V0.3595C16.3738 0.154069 16.221 0 16.0513 0Z" fill="#A3A3A3"/>
<path d="M16.3739 4.57076C16.3739 4.46804 16.255 4.41668 16.1871 4.48516L14.9988 5.70063C14.9649 5.73486 14.9649 5.7691 14.9649 5.80334C14.9988 6.00877 14.9479 6.23132 14.6933 6.47099C14.5575 6.60795 14.3707 6.69354 14.184 6.69354C13.8784 6.69354 13.6068 6.48811 13.505 6.2142C13.488 6.17996 13.471 6.16285 13.4371 6.14573L12.4525 5.80334C12.4185 5.78622 12.3846 5.80334 12.3506 5.82046C12.2148 5.92318 12.0451 5.99166 11.8753 5.99166C11.7904 5.99166 11.7225 5.97453 11.6377 5.95741C11.6377 5.95741 10.5173 7.05305 10.1268 7.44679C10.0759 7.49815 10.0759 7.49815 10.0929 7.60086C10.0929 8.02884 9.75337 8.37123 9.32899 8.37123C8.9725 8.37123 8.66694 8.11444 8.58206 7.78918C8.56508 7.75494 8.54811 7.7207 8.51416 7.70358L7.78421 7.39543C7.75026 7.37831 7.69933 7.39543 7.68235 7.41255C7.54655 7.51527 7.39377 7.56662 7.22401 7.56662C7.13914 7.56662 7.05426 7.54951 6.98635 7.53239C6.93543 7.51527 6.90148 7.53238 6.85055 7.5495L5.96782 8.35411C5.93387 8.38835 5.91689 8.42259 5.91689 8.45683C5.88294 8.85057 5.56041 9.15872 5.15299 9.15872C4.84743 9.15872 4.57582 8.9704 4.45699 8.71361C4.42304 8.64514 4.37212 8.59378 4.30421 8.55954L3.30265 8.01172C3.21778 7.97749 3.1329 7.97749 3.065 8.04596L0.128221 10.9905C0.077294 11.0589 0.0263672 11.1274 0.0263672 11.2301C0.0263672 11.4185 0.179147 11.5725 0.365879 11.5725H10.008C10.1947 11.5725 10.4494 11.4698 10.5852 11.3329L10.7719 11.1445L13.0636 8.86769C13.1994 8.73073 13.4031 8.73073 13.5389 8.86769L15.7967 11.1274C15.8646 11.1959 15.9495 11.2301 16.0343 11.2301C16.2211 11.2301 16.3739 11.0761 16.3739 10.8878V4.57076Z" fill="#A3A3A3"/>
</svg>
