<svg width="62" height="16" viewBox="0 0 62 16" fill="none" xmlns="http://www.w3.org/2000/svg">
<path d="M7.65487 10.9412V13.1356H0.930908V2.27979H3.28914V10.9412H7.65487ZM8.69636 5.77334H10.9629V13.1351H8.69636V5.77334ZM9.82986 2.11642C10.1784 2.11649 10.5127 2.25613 10.7593 2.50466C11.0058 2.75318 11.1444 3.09025 11.1446 3.44179C11.1446 4.17443 10.5556 4.76665 9.82961 4.76665C9.10361 4.76665 8.51562 4.17418 8.51562 3.44179C8.51581 3.09039 8.65431 2.75343 8.90068 2.50492C9.14705 2.25642 9.4814 2.11669 9.82986 2.11642ZM25.2695 5.77258H28.0445L25.0695 9.17613L27.9825 13.1351H25.137L22.732 9.49833H22.7028V13.1351H20.437V2.27904H22.7028V8.7672L25.2695 5.77258ZM12.2166 5.77687H14.3921V6.78533H14.4221C14.7241 6.20622 15.4646 5.59711 16.5671 5.59711C18.8641 5.59711 19.2871 7.12064 19.2871 9.101V13.1348H17.0208V9.55581C17.0208 8.70215 17.0053 7.60571 15.8418 7.60571C14.6636 7.60571 14.4828 8.53525 14.4828 9.4948V13.1328H12.2163V5.77687H12.2166ZM32.8182 8.59904C32.8332 7.83715 32.2437 7.19728 31.4272 7.19728C30.4305 7.19728 29.8862 7.88303 29.8265 8.59904H32.8182ZM34.7367 11.8589C34.0117 12.7884 32.8185 13.3221 31.6367 13.3221C29.3707 13.3221 27.5575 11.7976 27.5575 9.43606C27.5575 7.0745 29.3707 5.5535 31.6367 5.5535C33.7537 5.5535 35.0817 7.07702 35.0817 9.43606V10.1521H29.8237C30.0037 11.0206 30.6545 11.5841 31.5312 11.5841C32.2717 11.5841 32.77 11.2059 33.148 10.6848L34.7367 11.8589ZM39.8042 7.55478C38.6717 7.55478 37.9922 8.31717 37.9922 9.42849C37.9922 10.5418 38.6722 11.3027 39.8042 11.3027C40.9382 11.3027 41.6184 10.5418 41.6184 9.42849C41.6182 8.31717 40.9384 7.55478 39.8042 7.55478ZM43.7042 13.1315H41.6187V12.1559H41.5892C41.2404 12.6891 40.3649 13.3141 39.3372 13.3141C37.1607 13.3141 35.7257 11.73 35.7257 9.4895C35.7257 7.43225 36.9947 5.54291 39.0797 5.54291C40.0172 5.54291 40.8934 5.80183 41.4047 6.51783H41.4342V2.27904H43.7017L43.7042 13.1315Z" fill="#A3A3A3"/>
<path d="M60.1256 0H47.0989C46.474 0 45.9707 0.497674 45.9707 1.11082V14.3032C45.9707 14.9171 46.4765 15.415 47.0989 15.415H60.1256C60.7491 15.415 61.2571 14.9168 61.2571 14.3032V1.11082C61.2574 0.497674 60.7494 0 60.1256 0Z" fill="#A3A3A3"/>
<path d="M48.2374 5.77929H50.5049V13.136H48.2374V5.77929ZM49.3716 2.12238C49.72 2.12271 50.0541 2.26247 50.3004 2.51097C50.5467 2.75946 50.6852 3.09638 50.6854 3.44774C50.6853 3.79919 50.5469 4.13624 50.3006 4.38484C50.0542 4.63345 49.7201 4.77327 49.3716 4.77361C49.0229 4.77361 48.6885 4.63393 48.4419 4.38529C48.1953 4.13664 48.0567 3.79941 48.0566 3.44774C48.0568 3.09616 48.1955 2.75905 48.4421 2.51052C48.6886 2.26199 49.023 2.12238 49.3716 2.12238ZM51.9266 5.77929H54.1011V6.78195H54.1311C54.4311 6.2036 55.1736 5.59374 56.2761 5.59374C58.5721 5.59374 58.9961 7.11752 58.9961 9.09812V13.1332H56.7308V9.55319C56.7308 8.70004 56.7153 7.60258 55.5526 7.60258C54.3726 7.60258 54.1919 8.53188 54.1919 9.49142V13.1307H51.9269V5.774L51.9266 5.77929Z" fill="white"/>
</svg>
