<svg width="115" height="16" viewBox="0 0 115 16" fill="none" xmlns="http://www.w3.org/2000/svg">
<path d="M79.4484 6.04737C79.4484 4.15014 78.2726 2.7865 76.0973 2.7865H68.9248V12.6284H71.2764V9.24895H74.0396L76.744 12.6284H79.3896V12.3912L76.744 9.18966C78.449 8.83393 79.4484 7.58887 79.4484 6.04737ZM75.8034 7.23314H71.2764V4.80231H75.8034C76.6264 4.80231 77.1555 5.27662 77.1555 6.04737C77.2143 6.81812 76.6852 7.23314 75.8034 7.23314Z" fill="#A3A3A3"/>
<path d="M114.958 2.72711H112.783V6.46229H106.845V2.72711H104.494V12.569H106.845V8.71525H112.783V12.569H114.958V2.72711Z" fill="#A3A3A3"/>
<path d="M62.6345 2.72711L60.0477 10.9682H59.9301L57.2845 2.72711H53.1104V12.569H55.3444V4.50577H55.462L58.0488 12.569H61.635L64.2806 4.50577H64.3982V12.569H66.6911V2.72711H62.6345Z" fill="#A3A3A3"/>
<path d="M37.0602 6.75892C36.2372 6.69963 34.7086 6.52176 33.8267 6.46248C33.0037 6.40319 32.5333 6.10674 32.5333 5.57315C32.5333 5.03955 33.0624 4.62453 35.0613 4.62453C36.8251 4.62453 38.4712 5.03955 39.941 5.69172V3.49805C38.53 2.78659 36.9427 2.49014 34.9438 2.49014C32.1806 2.49014 30.2405 3.67591 30.2405 5.63244C30.2405 7.29251 31.3575 8.24113 33.6504 8.47829C34.4734 8.59686 35.8844 8.71544 36.8251 8.77473C37.8833 8.83402 38.1773 9.18975 38.1773 9.66406C38.1773 10.3162 37.413 10.7313 35.5905 10.7313C33.7091 10.7313 31.769 10.0791 30.3581 9.24904V11.502C31.4751 12.2728 33.3564 12.8656 35.5317 12.8656C38.53 12.8656 40.4701 11.6799 40.4701 9.60477C40.4701 8.00398 39.4707 6.99607 37.0602 6.75892Z" fill="#A3A3A3"/>
<path d="M42.0576 2.72711V12.569H51.1114V10.5532H44.2917V8.53739H50.9939V6.52158H44.2917V4.74292H51.1114V2.72711H42.0576Z" fill="#A3A3A3"/>
<path d="M99.6137 6.75892C98.7906 6.69963 97.2621 6.52176 96.3802 6.46248C95.5571 6.40319 95.0868 6.10674 95.0868 5.57315C95.0868 5.03955 95.6159 4.62453 97.6148 4.62453C99.3785 4.62453 101.025 4.98026 102.494 5.69172V3.49805C101.083 2.78659 99.4961 2.49014 97.4972 2.49014C94.734 2.49014 92.7939 3.67591 92.7939 5.63244C92.7939 7.29251 93.911 8.24113 96.2038 8.47829C97.0269 8.59686 98.4379 8.71544 99.3785 8.77473C100.437 8.83402 100.731 9.18975 100.731 9.66406C100.731 10.3162 99.9665 10.7313 98.1439 10.7313C96.2626 10.7313 94.3225 10.0791 92.9115 9.24904V11.502C94.0286 12.2728 95.9099 12.8656 98.0851 12.8656C101.083 12.8656 103.024 11.6799 103.024 9.60477C103.024 8.00398 101.965 6.99607 99.6137 6.75892Z" fill="#A3A3A3"/>
<path d="M88.8553 2.72711V7.76664C88.8553 9.66387 87.6795 10.7311 85.9746 10.7311C84.2109 10.7311 83.0938 9.72316 83.0938 7.76664V2.72711H80.7422V7.52948C80.7422 11.0868 82.9763 12.8655 85.9746 12.8655C88.9141 12.8655 91.1482 11.1461 91.1482 7.64806V2.72711H88.8553Z" fill="#A3A3A3"/>
<path d="M22.2449 7.58893C22.2449 8.06324 22.0098 8.12253 21.4218 8.12253C20.7751 8.12253 20.6576 8.00395 20.5988 7.52964C20.4812 6.28458 19.6581 5.21739 18.2471 5.1581C17.8356 5.09881 17.718 4.98024 17.718 4.38735C17.718 3.85375 17.7768 3.6166 18.1883 3.6166C20.54 3.67589 22.2449 5.63241 22.2449 7.58893ZM25.7136 7.58893C25.7136 3.91304 23.2444 0 17.4828 0H6.13618C5.90102 0 5.72464 0.118577 5.72464 0.355731C5.72464 0.474308 5.78344 0.592885 5.90102 0.652174C6.31256 1.00791 6.90047 1.36364 7.72354 1.77866C8.48782 2.19368 9.13452 2.43083 9.72243 2.66798C9.9576 2.78656 10.0752 2.90514 10.0752 3.02372C10.0752 3.20158 9.9576 3.37945 9.66364 3.37945H0.668617C0.374662 3.32016 0.25708 3.49802 0.25708 3.67589C0.25708 3.85375 0.315871 3.97233 0.433453 4.09091C1.13895 4.86166 2.31477 5.81028 4.01971 6.87747C5.48948 7.82609 7.37079 8.83399 8.84057 9.54545C9.07573 9.66403 9.19331 9.78261 9.19331 9.96047C9.19331 10.1383 9.07573 10.2569 8.78178 10.2569H4.60762C4.37245 10.2569 4.25487 10.3755 4.25487 10.5534C4.25487 10.6719 4.31366 10.7905 4.43124 10.9091C5.3719 11.7984 6.90047 12.6877 8.89936 13.5771C11.6037 14.7036 14.3081 15.415 17.3653 15.415C23.1856 15.415 25.7136 11.0277 25.7136 7.58893ZM18.1295 12.8656C15.3076 12.8656 12.8971 10.5534 12.8971 7.58893C12.8971 4.74308 15.2488 2.43083 18.1295 2.43083C21.0691 2.43083 23.3619 4.74308 23.3619 7.58893C23.3619 10.4941 21.0691 12.8656 18.1295 12.8656Z" fill="#A3A3A3"/>
</svg>
