<svg width="73" height="21" viewBox="0 0 73 21" fill="none" xmlns="http://www.w3.org/2000/svg">
<path d="M4.65616 0.0720656C3.18566 0.692802 1.5691 2.44646 1.05854 4.64768C0.41195 7.43671 3.1027 8.61611 3.3234 8.2294C3.58316 7.77501 2.84125 7.62135 2.68853 6.17427C2.49116 4.30525 3.35277 2.21682 4.43715 1.30048C4.63871 1.13024 4.62912 1.36719 4.62912 1.80549C4.62912 2.58926 4.58618 9.62526 4.58618 11.0937C4.58618 13.0806 4.5048 13.7081 4.35864 14.3281C4.21055 14.9564 3.97248 15.3809 4.15288 15.5444C4.35443 15.7274 5.21501 15.2923 5.7132 14.591C6.31062 13.75 6.51974 12.7401 6.55728 11.6432C6.60263 10.321 6.6007 8.22298 6.60263 7.02627C6.60445 5.9287 6.62097 2.71479 6.58356 0.78271C6.57438 0.30881 5.27112 -0.188382 4.65608 0.0714891M56.8733 9.37087C56.8259 10.4038 56.5991 11.2112 56.3177 11.7807C55.773 12.8833 54.6425 13.2256 54.1625 11.6407C53.901 10.7767 53.8888 9.33387 54.0768 8.12826C54.2682 6.90008 54.8027 5.97252 55.6878 6.05617C56.5608 6.13886 56.9694 7.2733 56.8733 9.37087ZM42.1563 15.7797C42.1445 17.496 41.8766 19.0009 41.3022 19.438C40.4875 20.0577 39.3925 19.5928 39.6193 18.3404C39.8199 17.2321 40.7687 16.1003 42.1586 14.7173C42.1586 14.7173 42.1615 15.0327 42.1563 15.7797ZM41.9338 9.36087C41.884 10.3017 41.6421 11.2468 41.3783 11.7809C40.8336 12.8834 39.695 13.2281 39.2231 11.6408C38.9005 10.5564 38.9777 9.15277 39.1374 8.26838C39.3445 7.12093 39.8466 6.05642 40.7484 6.05642C41.6251 6.05642 42.0574 7.02635 41.9338 9.36087ZM33.4083 9.34648C33.3548 10.3429 33.1621 11.1759 32.8527 11.7809C32.2931 12.8758 31.1859 13.2231 30.6975 11.6408C30.3455 10.4999 30.4654 8.94423 30.6118 8.10386C30.8291 6.85679 31.3733 5.97264 32.2228 6.05642C33.0954 6.14239 33.5196 7.2733 33.4083 9.34648ZM72.4789 10.5104C72.2656 10.5104 72.1683 10.7321 72.0877 11.1054C71.8084 12.4032 71.5148 12.6962 71.1361 12.6962C70.7131 12.6962 70.3331 12.0536 70.2354 10.7672C70.1586 9.75565 70.1709 7.89339 70.2691 6.04094C70.2892 5.66033 70.1851 5.28375 69.1728 4.91289C68.7372 4.75338 68.104 4.5185 67.7887 5.28594C66.898 7.45411 66.5495 9.17546 66.4675 9.87474C66.4632 9.91093 66.4192 9.91832 66.4115 9.83376C66.3592 9.27369 66.2424 8.25595 66.2279 6.11766C66.2251 5.70046 66.1375 5.34533 65.6808 5.0546C65.3846 4.86595 64.4849 4.53229 64.1609 4.92923C63.8802 5.25387 63.5552 6.12753 63.2174 7.16314C62.9429 8.00485 62.7517 8.57425 62.7517 8.57425C62.7517 8.57425 62.7553 6.30314 62.7586 5.44167C62.7601 5.11668 62.539 5.00838 62.4724 4.98875C62.1723 4.90094 61.5812 4.75424 61.3303 4.75424C61.0207 4.75424 60.9449 4.92875 60.9449 5.18302C60.9449 5.21631 60.8961 8.17315 60.8961 10.2407C60.8961 10.3305 60.8961 10.4285 60.897 10.5326C60.7257 11.4829 60.1704 12.7728 59.5665 12.7728C58.9619 12.7728 58.6766 12.2335 58.6766 9.76868C58.6766 8.33075 58.7194 7.7055 58.7405 6.66551C58.7527 6.06648 58.7763 5.60648 58.7749 5.50209C58.7705 5.18197 58.2216 5.02062 57.9662 4.96099C57.7096 4.90086 57.4866 4.87757 57.3124 4.88757C57.066 4.9016 56.8916 5.06465 56.8916 5.28892C56.8916 5.40916 56.893 5.63782 56.893 5.63782C56.5755 5.13477 56.065 4.78465 55.7253 4.68319C54.8103 4.40916 53.8556 4.65196 53.1355 5.66819C52.5631 6.47563 52.2181 7.39014 52.0823 8.70405C51.9831 9.66461 52.0155 10.6387 52.1919 11.4625C51.9787 12.392 51.5829 12.7728 51.1495 12.7728C50.5203 12.7728 50.0642 11.7372 50.1171 9.946C50.1521 8.76789 50.3858 7.94111 50.6414 6.74502C50.7503 6.23514 50.6618 5.96818 50.4398 5.71233C50.2361 5.4777 49.8022 5.35782 49.1785 5.50526C48.7342 5.61038 48.099 5.72343 47.5178 5.81026C47.5178 5.81026 47.5528 5.66916 47.5816 5.42039C47.7328 4.11575 46.327 4.2216 45.8785 4.6383C45.6107 4.88709 45.4285 5.1805 45.3593 5.70807C45.2496 6.54527 45.9267 6.94015 45.9267 6.94015C45.7046 7.96563 45.16 9.30526 44.5978 10.2738C44.2967 10.7927 44.0664 11.1772 43.769 11.586C43.7679 11.4338 43.7671 11.2816 43.7666 11.1301C43.7598 8.97413 43.7882 7.2773 43.8008 6.66571C43.813 6.06669 43.8368 5.61888 43.8355 5.51449C43.8321 5.28035 43.6965 5.19193 43.4145 5.07998C43.1652 4.98096 42.8703 4.91242 42.5645 4.88851C42.1785 4.85815 41.946 5.06462 41.952 5.30876C41.9532 5.35486 41.9532 5.63791 41.9532 5.63791C41.6358 5.13485 41.1252 4.78474 40.7855 4.68327C39.8706 4.40936 38.9158 4.65217 38.1957 5.66827C37.6235 6.47571 37.2487 7.60876 37.1425 8.69413C37.0436 9.70571 37.0619 10.5654 37.1967 11.2895C37.0513 12.0146 36.633 12.7729 36.16 12.7729C35.5554 12.7729 35.2113 12.2336 35.2113 9.76877C35.2113 8.33084 35.2541 7.7056 35.2752 6.66571C35.2874 6.06669 35.311 5.60657 35.3096 5.5023C35.3052 5.18218 34.7563 5.02083 34.5009 4.96108C34.2336 4.89876 34.0029 4.87583 33.8257 4.889C33.592 4.90656 33.4276 5.11767 33.4276 5.2751V5.63791C33.1102 5.13485 32.5997 4.78474 32.26 4.68327C31.345 4.40936 30.3956 4.65608 29.6702 5.66827C29.1971 6.32827 28.8141 7.05999 28.617 8.67974C28.56 9.14783 28.5349 9.58615 28.5382 9.99585C28.3495 11.1593 27.5163 12.5002 26.8348 12.5002C26.4359 12.5002 26.0561 11.7201 26.0561 10.0576C26.0561 7.84291 26.192 4.68973 26.215 4.38583C26.215 4.38583 27.0761 4.37108 27.2429 4.36912C27.6724 4.36436 28.0615 4.37461 28.6336 4.3451C28.9205 4.33034 29.197 3.2918 28.9008 3.16327C28.7666 3.1051 27.8179 3.05412 27.4418 3.04607C27.1256 3.03885 26.2452 2.97315 26.2452 2.97315C26.2452 2.97315 26.3242 0.88021 26.3426 0.659119C26.3582 0.474848 26.1218 0.379973 25.9862 0.322404C25.6566 0.181797 25.3616 0.114476 25.012 0.0417942C24.529 -0.0586887 24.3099 0.0395989 24.2671 0.450697C24.2026 1.07461 24.1693 2.90205 24.1693 2.90205C23.8148 2.90205 22.6041 2.83217 22.2495 2.83217C21.9201 2.83217 21.5646 4.26083 22.02 4.27839C22.544 4.29888 23.4571 4.31657 24.0625 4.33498C24.0625 4.33498 24.0355 7.54011 24.0355 8.52962C24.0355 8.6349 24.0364 8.73628 24.0366 8.83465C23.7034 10.5859 22.53 11.5318 22.53 11.5318C22.782 10.3733 22.2672 9.5033 21.3399 8.76684C20.9983 8.49545 20.3239 7.98168 19.5693 7.41867C19.5693 7.41867 20.0063 6.98428 20.3939 6.11037C20.6685 5.49135 20.6804 4.78293 20.0063 4.62671C18.8926 4.36842 17.9742 5.19329 17.7003 6.07391C17.4881 6.7561 17.6013 7.26232 18.017 7.78818C18.0474 7.8266 18.0803 7.86586 18.1143 7.90537C17.8629 8.39406 17.5175 9.05199 17.225 9.56221C16.413 10.9788 15.7997 12.0993 15.3362 12.0993C14.9657 12.0993 14.9706 10.9617 14.9706 9.8966C14.9706 8.97839 15.0379 7.59793 15.0916 6.16867C15.1093 5.69598 14.875 5.42671 14.4821 5.18281C14.2434 5.03464 13.7339 4.7433 13.4388 4.7433C12.9972 4.7433 11.723 4.8039 10.519 8.31599C10.3673 8.75865 10.0692 9.56525 10.0692 9.56525L10.0949 5.34183C10.0949 5.24281 10.0426 5.14708 9.92283 5.08159C9.71995 4.97049 9.17808 4.7433 8.69626 4.7433C8.46669 4.7433 8.35213 4.85098 8.35213 5.06561L8.3101 11.6732C8.3101 12.1752 8.32308 12.7609 8.3723 13.0171C8.42134 13.2736 8.50079 13.4822 8.59918 13.6064C8.69744 13.7303 8.81109 13.8248 8.99848 13.8638C9.17288 13.9 10.1279 14.0237 10.1775 13.6556C10.237 13.2146 10.2393 12.7375 10.7407 10.9582C11.5214 8.18806 12.5393 6.83647 13.0178 6.35647C13.1015 6.27257 13.197 6.26757 13.1924 6.40488C13.172 7.0122 13.1002 8.52977 13.0518 9.81904C12.9222 13.2693 13.5446 13.9088 14.434 13.9088C15.1145 13.9088 16.0737 13.227 17.1019 11.501C17.743 10.4254 18.3654 9.37075 18.8126 8.61062C19.1242 8.90155 19.4739 9.21467 19.8234 9.54917C20.6356 10.3265 20.9022 11.0652 20.7253 11.7659C20.59 12.3016 20.0804 12.8536 19.1734 12.317C18.9091 12.1605 18.7962 12.0396 18.5304 11.8631C18.3876 11.7683 18.1696 11.7399 18.0389 11.8392C17.6993 12.0974 17.5051 12.4258 17.3942 12.8324C17.2863 13.2281 17.6792 13.4372 18.0865 13.6201C18.4372 13.7776 19.191 13.9202 19.6716 13.9365C21.5446 13.9996 23.0449 13.0245 24.0894 10.5091C24.2763 12.6815 25.072 13.9107 26.4545 13.9107C27.3788 13.9107 28.3054 12.706 28.7107 11.5207C28.827 12.0039 28.9992 12.424 29.2216 12.7793C30.2868 14.4814 32.3534 14.115 33.3914 12.6697C33.7124 12.2231 33.7612 12.0626 33.7612 12.0626C33.9126 13.4273 35.0024 13.9042 35.6264 13.9042C36.3253 13.9042 37.0468 13.571 37.5526 12.4228C37.6118 12.5474 37.6765 12.6664 37.7471 12.7792C38.8124 14.4813 40.8789 14.115 41.917 12.6696C41.966 12.6018 42.0084 12.5403 42.0455 12.4851L42.076 13.3816C42.076 13.3816 41.4838 13.9294 41.1203 14.2655C39.5204 15.7457 38.3039 16.8688 38.2144 18.1766C38.0995 19.8441 39.4406 20.4639 40.4552 20.5451C41.5327 20.6314 42.4554 20.0311 43.0225 19.1911C43.5213 18.4517 43.8478 16.8604 43.8239 15.2886C43.8143 14.6593 43.7986 13.859 43.7863 13.0012C44.3486 12.3427 44.9821 11.5103 45.5655 10.5361C46.2012 9.47434 46.8825 8.04851 47.2314 6.93887C47.2314 6.93887 47.8234 6.944 48.4551 6.90229C48.6572 6.889 48.7152 6.93058 48.6778 7.07997C48.6327 7.26046 47.8797 10.1895 48.5669 12.1407C49.0373 13.4765 50.0978 13.9062 50.7265 13.9062C51.4624 13.9062 52.1665 13.3457 52.5438 12.5134C52.5892 12.6062 52.6368 12.696 52.6886 12.7789C53.7539 14.481 55.8132 14.1124 56.8585 12.6693C57.0944 12.3437 57.2283 12.0622 57.2283 12.0622C57.4526 13.4746 58.5418 13.911 59.1657 13.911C59.8155 13.911 60.4323 13.6423 60.9327 12.4483C60.9536 12.974 60.9865 13.4039 61.0385 13.5394C61.0702 13.6223 61.2548 13.7263 61.3892 13.7766C61.9837 13.9989 62.59 13.8938 62.8143 13.848C62.9697 13.8163 63.0909 13.6906 63.1075 13.366C63.151 12.5135 63.1243 11.0813 63.3805 10.0169C63.8107 8.23058 64.2119 7.53766 64.4022 7.19461C64.5088 7.00241 64.629 6.9707 64.6333 7.17412C64.6423 7.5857 64.6626 8.79437 64.8292 10.4183C64.9516 11.6126 65.1151 12.3185 65.2407 12.5419C65.5993 13.1808 66.0421 13.2111 66.4027 13.2111C66.6321 13.2111 67.1119 13.1472 67.0689 12.7406C67.048 12.5424 67.0847 11.3177 67.5088 9.55777C67.7857 8.40851 68.2474 7.37008 68.4139 6.99045C68.4753 6.85045 68.5039 6.96081 68.5029 6.98231C68.4678 7.77378 68.3891 10.3626 68.7088 11.7784C69.1423 13.6965 70.396 13.9111 70.8329 13.9111C71.7657 13.9111 72.5285 13.1956 72.7855 11.3129C72.8474 10.8599 72.7557 10.51 72.4811 10.51" fill="#A3A3A3"/>
</svg>
