<svg width="49" height="16" viewBox="0 0 49 16" fill="none" xmlns="http://www.w3.org/2000/svg">
<path d="M48.1369 10.5355C48.056 10.5355 47.9823 10.5882 47.9438 10.6988C47.4549 12.1046 46.7951 12.9411 46.2515 12.9411C45.9396 12.9411 45.8129 12.5903 45.8129 12.0401C45.8129 10.6632 46.6307 7.74305 47.0425 6.41163C47.0901 6.25038 47.1214 6.10625 47.1214 5.98383C47.1214 5.59685 46.912 5.4073 46.3925 5.4073C45.8325 5.4073 45.2295 5.62844 44.6435 6.66435C44.4411 5.75085 43.8283 5.35202 42.9727 5.35202C41.984 5.35202 41.0279 5.9937 40.2415 7.03423C39.4551 8.07475 38.5304 8.41633 37.8347 8.24784C38.3352 7.01251 38.5212 6.0898 38.5212 5.40467C38.5212 4.33058 37.9946 3.68165 37.1435 3.68165C35.8494 3.68165 35.1035 4.92686 35.1035 6.23656C35.1035 7.24813 35.5583 8.28931 36.5595 8.79344C35.7208 10.7067 34.4959 12.4369 34.0312 12.4369C33.4308 12.4369 33.2546 9.47331 33.2879 7.35409C33.3094 6.13784 33.4093 6.07531 33.4093 5.70807C33.4093 5.49681 33.2735 5.35267 32.7279 5.35267C31.4553 5.35267 31.0618 6.43927 31.0024 7.68645C30.9835 8.16031 30.9097 8.63088 30.7831 9.08764C30.2519 11.0009 29.1555 12.4521 28.4402 12.4521C28.1087 12.4521 28.0186 12.1177 28.0186 11.6807C28.0186 10.3039 28.7835 8.58284 28.7835 7.11452C28.7835 6.03517 28.3142 5.35267 27.4299 5.35267C26.3884 5.35267 25.0107 6.60249 23.7074 8.9435C24.1362 7.15072 24.313 5.4152 23.0424 5.4152C22.767 5.41915 22.4961 5.49023 22.2534 5.62185C22.0863 5.70017 21.9845 5.87392 21.9962 6.05952C22.1176 7.96748 20.4711 12.8562 18.91 12.8562C18.6261 12.8562 18.4884 12.5462 18.4884 12.046C18.4884 10.6665 19.3035 7.75358 19.7134 6.41952C19.7656 6.24643 19.7943 6.09769 19.7943 5.96738C19.7943 5.60211 19.5704 5.41454 19.0627 5.41454C18.5047 5.41454 17.8997 5.62844 17.3156 6.66435C17.1107 5.75085 16.4979 5.35202 15.6423 5.35202C14.2385 5.35202 12.6703 6.84929 11.9818 8.80069C11.0596 11.4056 9.20032 13.9224 6.69817 13.9224C4.42706 13.9224 3.22819 12.0164 3.22819 9.00537C3.22819 4.65768 6.39275 1.10568 8.74022 1.10568C9.86273 1.10568 10.3992 1.827 10.3992 2.93203C10.3992 4.27069 9.65781 4.89329 9.65781 5.40269C9.65781 5.55867 9.78637 5.71268 10.0415 5.71268C11.0616 5.71268 12.2624 4.50367 12.2624 2.85502C12.2624 1.20638 10.935 0 8.58751 0C4.70768 0 0.803711 3.93701 0.803711 8.98102C0.803711 12.9944 2.76744 15.415 6.16368 15.415C8.47983 15.415 10.5036 13.5979 11.5948 11.478C11.7188 13.2346 12.5098 14.1527 13.7158 14.1527C14.7881 14.1527 15.656 13.5084 16.3184 12.3764C16.5736 13.561 17.2504 14.1402 18.1295 14.1402C19.1378 14.1402 19.9809 13.4959 20.7843 12.2994C20.7726 13.2392 20.9847 14.1237 21.7926 14.1237C22.1737 14.1237 22.6293 14.0349 22.7102 13.6986C23.5612 10.1512 25.6627 7.25537 26.3061 7.25537C26.4967 7.25537 26.5489 7.4403 26.5489 7.65881C26.5489 8.62233 25.8748 10.5981 25.8748 11.8597C25.8748 13.2227 26.4491 14.1237 27.6362 14.1237C28.9519 14.1237 30.2884 12.4988 31.1799 10.1249C31.4586 12.3435 32.0616 14.1336 33.0053 14.1336C34.1637 14.1336 36.2201 11.6748 37.4666 9.07184C37.9554 9.13436 38.6889 9.11725 39.3944 8.61509C39.0942 9.38183 38.918 10.2203 38.918 11.0594C38.918 13.4748 40.0621 14.1527 41.0462 14.1527C42.1165 14.1527 42.9838 13.5084 43.6489 12.3764C43.8681 13.3978 44.4281 14.1382 45.4579 14.1382C47.0692 14.1382 48.4678 12.4777 48.4678 11.1147C48.4678 10.7541 48.3151 10.5355 48.1369 10.5355ZM14.698 12.814C14.0473 12.814 13.7922 12.1533 13.7922 11.168C13.7922 9.45685 14.9525 6.5992 16.1801 6.5992C16.7165 6.5992 16.9189 7.23628 16.9189 8.01486C16.9195 9.7517 15.8159 12.814 14.698 12.814ZM36.9837 7.70685C36.5953 7.24089 36.4544 6.60644 36.4544 6.04109C36.4544 5.34412 36.7069 4.75508 37.0098 4.75508C37.3126 4.75508 37.4052 5.05519 37.4052 5.47377C37.4052 6.17338 37.1572 7.19482 36.9837 7.70685ZM42.0284 12.814C41.3777 12.814 41.1226 12.0545 41.1226 11.168C41.1226 9.51674 42.2829 6.5992 43.5203 6.5992C44.0567 6.5992 44.2473 7.23101 44.2473 8.01486C44.2473 9.7517 43.1627 12.814 42.0284 12.814Z" fill="#A3A3A3"/>
</svg>
