<svg width="75" height="21" viewBox="0 0 75 21" fill="none" xmlns="http://www.w3.org/2000/svg">
<path d="M23.7354 9.88135C23.7354 13.2419 25.8754 15.585 28.8409 15.585C31.8064 15.585 33.9464 13.2419 33.9464 9.88135C33.9464 6.52081 31.8064 4.17767 28.8409 4.17767C25.8754 4.17767 23.7354 6.52081 23.7354 9.88135ZM31.9898 9.88135C31.9898 12.2861 30.6905 13.8431 28.8409 13.8431C26.9913 13.8431 25.692 12.2861 25.692 9.88135C25.692 7.47656 26.9913 5.91961 28.8409 5.91961C30.6905 5.91961 31.9898 7.47656 31.9898 9.88135Z" fill="#A3A3A3"/>
<path d="M39.456 15.5851C41.703 15.5851 42.987 13.6736 42.987 11.3768C42.987 9.07987 41.703 7.16837 39.456 7.16837C38.4165 7.16837 37.6522 7.58458 37.1478 8.18578V7.32252H35.3135V18.1903H37.1478V14.5677C37.6522 15.1689 38.4165 15.5851 39.456 15.5851ZM37.1019 11.1455C37.1019 9.61941 37.958 8.78698 39.0891 8.78698C40.419 8.78698 41.1374 9.83522 41.1374 11.3768C41.1374 12.9183 40.419 13.9665 39.0891 13.9665C37.958 13.9665 37.1019 13.1187 37.1019 11.6234V11.1455Z" fill="#A3A3A3"/>
<path d="M47.9512 15.5851C49.5562 15.5851 50.8249 14.7373 51.3905 13.3191L49.816 12.7179C49.5715 13.5503 48.853 14.0128 47.9512 14.0128C46.7741 14.0128 45.9487 13.1649 45.8111 11.7776H51.4364V11.1609C51.4364 8.94113 50.1982 7.16837 47.8747 7.16837C45.5512 7.16837 44.0532 9.00279 44.0532 11.3768C44.0532 13.874 45.6583 15.5851 47.9512 15.5851ZM47.8594 8.72532C49.0212 8.72532 49.5715 9.49608 49.5868 10.3902H45.9028C46.178 9.29568 46.9117 8.72532 47.8594 8.72532Z" fill="#A3A3A3"/>
<path d="M52.8125 15.4156H54.6468V10.6676C54.6468 9.5115 55.4875 8.89488 56.313 8.89488C57.3219 8.89488 57.7193 9.61941 57.7193 10.6214V15.4156H59.5536V10.0819C59.5536 8.33993 58.5447 7.16837 56.8633 7.16837C55.8238 7.16837 55.1054 7.64624 54.6468 8.18578V7.32252H52.8125V15.4156Z" fill="#A3A3A3"/>
<path d="M64.9263 4.34723L60.7686 15.4155H62.7099L63.6423 12.8873H68.381L69.3287 15.4155H71.3006L67.1428 4.34723H64.9263ZM65.9964 6.53621L67.739 11.1608H64.2843L65.9964 6.53621Z" fill="#A3A3A3"/>
<path d="M74.4498 4.37936H72.4932V15.4476H74.4498V4.37936Z" fill="#A3A3A3"/>
<path d="M19.2524 8.41238C19.7148 7.01279 19.5555 5.47961 18.8161 4.20656C17.704 2.25395 15.4684 1.24938 13.2851 1.72212C12.3138 0.618636 10.9183 -0.00889695 9.45531 9.53332e-05C7.22356 -0.00504312 5.24338 1.444 4.55679 3.58545C3.12309 3.88155 1.88556 4.78656 1.16139 6.06925C0.0410525 8.01672 0.296456 10.4716 1.79321 12.1416C1.33081 13.5412 1.49004 15.0744 2.2295 16.3474C3.34155 18.3 5.57713 19.3046 7.76048 18.8319C8.73114 19.9354 10.1273 20.5629 11.5903 20.5533C13.8233 20.559 15.8041 19.1087 16.4907 16.9653C17.9244 16.6692 19.1619 15.7642 19.8861 14.4815C21.0052 12.5341 20.7491 10.0811 19.253 8.41109L19.2524 8.41238ZM11.5915 19.2102C10.6979 19.2115 9.83237 18.8961 9.14641 18.3187C9.17762 18.302 9.23175 18.2718 9.26678 18.2499L13.3252 15.8863C13.5328 15.7674 13.6602 15.5445 13.659 15.3037V9.53385L15.3742 10.5326C15.3926 10.5416 15.4047 10.5596 15.4073 10.5802V15.3583C15.4047 17.483 13.6984 19.2057 11.5915 19.2102ZM3.3855 15.6756C2.93775 14.8958 2.77661 13.9818 2.9301 13.0948C2.96004 13.1128 3.0129 13.1455 3.05048 13.1674L7.10891 15.5311C7.31464 15.6525 7.5694 15.6525 7.77576 15.5311L12.7303 12.6458V14.6434C12.7316 14.6639 12.7221 14.6839 12.7061 14.6967L8.60375 17.0854C6.77644 18.1465 4.44278 17.5158 3.38614 15.6756H3.3855ZM2.31739 6.74174C2.76323 5.9607 3.46702 5.36335 4.30521 5.05312C4.30521 5.08845 4.3033 5.15075 4.3033 5.19443V9.92244C4.30202 10.1627 4.42941 10.3855 4.6364 10.5044L9.59097 13.389L7.87576 14.3878C7.85856 14.3993 7.83691 14.4012 7.8178 14.3929L3.71479 12.0022C1.89129 10.9373 1.26584 8.58452 2.31675 6.74238L2.31739 6.74174ZM16.4098 10.049L11.4552 7.16374L13.1704 6.16559C13.1876 6.15403 13.2093 6.1521 13.2284 6.16045L17.3314 8.54919C19.1581 9.61349 19.7842 11.9701 18.7288 13.8122C18.2823 14.592 17.5792 15.1894 16.7416 15.5002V10.6309C16.7435 10.3907 16.6168 10.1684 16.4104 10.049H16.4098ZM18.1167 7.45791C18.0868 7.43929 18.0339 7.40717 17.9964 7.38533L13.9379 5.02165C13.7322 4.90025 13.4774 4.90025 13.2711 5.02165L8.3165 7.90688V5.90931C8.31523 5.88876 8.32478 5.86885 8.34071 5.856L12.4431 3.46919C14.2704 2.40617 16.6066 3.03885 17.6601 4.88227C18.1053 5.66074 18.2664 6.57217 18.1155 7.45791H18.1167ZM7.38406 11.0182L5.66821 10.0194C5.64974 10.0104 5.63764 9.99245 5.63509 9.9719V5.19378C5.63636 3.06647 7.34776 1.34252 9.45722 1.3438C10.3495 1.3438 11.2132 1.65981 11.8992 2.23532C11.868 2.25202 11.8144 2.28221 11.7788 2.30405L7.72035 4.66773C7.51272 4.78656 7.38533 5.0088 7.38661 5.24966L7.38406 11.0169V11.0182ZM8.31587 8.99238L10.5228 7.70713L12.7297 8.99174V11.5616L10.5228 12.8462L8.31587 11.5616V8.99238Z" fill="#A3A3A3"/>
</svg>
