<svg width="85" height="16" viewBox="0 0 85 16" fill="none" xmlns="http://www.w3.org/2000/svg">
<path fill-rule="evenodd" clip-rule="evenodd" d="M0.449707 1.40991C0.449707 0.639159 1.0835 0 1.84779 0H17.8977C18.6807 0 19.2958 0.639159 19.2958 1.40991V14.0051C19.2958 14.7947 18.662 15.415 17.8977 15.415H1.84779C1.0835 15.415 0.449707 14.7759 0.449707 14.0051V1.40991ZM1.64273 1.91748V13.4411C1.64273 13.8735 1.92235 14.1555 2.35109 14.1555H17.4131C17.8045 14.1555 18.1214 13.8359 18.1214 13.4411V1.91748C18.1214 1.5227 17.8045 1.20312 17.4131 1.20312H2.35109C1.95963 1.20312 1.64273 1.5227 1.64273 1.91748ZM2.20197 7.21874C2.20197 6.82397 2.51886 6.50439 2.91033 6.50439H6.20979C6.63854 6.50439 6.91815 6.86156 6.91815 7.21874V13.6479H2.20197V7.27514V7.21874ZM7.53331 4.94409C7.53331 4.51171 7.81292 4.22973 8.24167 4.22973H11.5411C11.8953 4.22973 12.2495 4.51171 12.2495 4.94409V13.7231H7.45874V4.88769L7.53331 4.94409ZM12.7901 2.53784C12.7901 2.18066 13.1443 1.82348 13.4984 1.82348H16.7979C17.2267 1.82348 17.5063 2.18066 17.5063 2.53784V13.7231H12.7901V2.48144V2.53784ZM28.5604 9.83177C28.5604 10.5461 28.2808 11.2417 27.7216 11.6741C27.1623 12.1064 26.3235 12.3884 25.3355 12.3884C24.478 12.3884 23.6392 12.2004 22.8749 11.8244V10.1326L24.3475 10.6965C24.7204 10.7905 25.0932 10.8469 25.466 10.8469C25.8947 10.8469 26.1744 10.7717 26.3794 10.6401C26.5845 10.5085 26.7336 10.2078 26.7336 9.92577C26.7336 9.77538 26.7336 9.64379 26.5845 9.4934C26.4726 9.32421 26.3235 9.17382 26.1557 9.06102L24.9627 8.49706C24.4035 8.21508 23.9747 8.00829 23.7697 7.78271C23.4714 7.55712 23.2477 7.25634 23.0613 6.93676C22.9122 6.65478 22.8563 6.2976 22.8563 5.88403C22.8563 5.16967 23.1359 4.54931 23.6205 4.11694C24.2543 3.64697 25.0186 3.40258 25.8015 3.40258C26.6963 3.47778 27.5724 3.70336 28.3926 4.04174L27.8334 5.45165L26.6404 5.09448C26.3421 5.01928 26.0439 4.96288 25.727 4.94409C25.3728 4.94409 25.1677 5.01928 24.9627 5.22607C24.7576 5.37646 24.6831 5.58324 24.6831 5.86523C24.6831 6.01562 24.6831 6.14721 24.8322 6.2976C25.3169 6.67358 25.8388 6.99316 26.3794 7.29394C27.1437 7.65111 27.7775 8.00829 28.0012 8.42186C28.3554 8.77904 28.4858 9.26781 28.4858 9.83177H28.5604ZM35.1593 12.238H30.1076V3.45898H35.1593V4.94409H32.009V6.86156H34.9543V8.49706H32.009V10.6213H35.1593V12.1816V12.238Z" fill="#A3A3A3"/>
<path fill-rule="evenodd" clip-rule="evenodd" d="M39.9313 7.50073H40.9193C41.6276 7.50073 42.0377 7.42553 42.3173 7.14355C42.6715 6.93676 42.802 6.50439 42.802 6.09082C42.802 5.60205 42.6529 5.24487 42.3173 5.03808C42.0377 4.8313 41.5531 4.68091 40.9193 4.68091H39.9313V7.50073ZM39.9313 8.70385V12.1628H38.5332V3.45898H40.9938C42.1123 3.45898 42.9511 3.66577 43.4544 4.17334C44.0137 4.53052 44.2933 5.16968 44.2933 6.01562C44.2933 7.06835 43.7341 7.8579 42.6156 8.34667L45.0762 12.1628H43.4544L41.348 8.62866H39.9499V8.70385H39.9313ZM50.2398 12.1628L49.9602 11.2417H49.8856C49.5314 11.6741 49.1772 11.956 48.8976 12.0876C48.618 12.238 48.1893 12.2944 47.63 12.2944C47.0894 12.3132 46.5489 12.1064 46.1574 11.7305C45.8032 11.3733 45.5982 10.8845 45.5982 10.3205C45.5982 9.60619 45.8778 9.11742 46.3065 8.76025C46.8658 8.40307 47.63 8.19628 48.6926 8.19628H49.811V7.76391C49.811 7.33154 49.7365 7.04956 49.5314 6.84277C49.3264 6.63598 49.0468 6.56079 48.618 6.56079C48.2638 6.56079 47.9097 6.56079 47.63 6.71118L46.7166 7.06835L46.3065 6.01562C46.6607 5.84643 47.0335 5.73364 47.425 5.65844C47.8351 5.56445 48.2638 5.50805 48.6926 5.50805C49.5314 5.50805 50.0907 5.71484 50.594 6.07202C51.0227 6.42919 51.2278 6.99316 51.2278 7.76391V12.2192H50.2398V12.1628ZM48.1333 11.1665C48.618 11.1665 49.0468 11.0161 49.3264 10.7341C49.6806 10.4521 49.811 10.0198 49.811 9.60619V9.04223H48.9722C48.2638 9.04223 47.7792 9.19262 47.5741 9.39941C47.2199 9.60619 47.0894 9.88818 47.0894 10.2454C47.0894 10.6025 47.164 10.8093 47.2945 10.9597C47.4995 11.1101 47.7792 11.1665 48.1333 11.1665ZM58.8519 12.1628H57.4539V8.13989C57.4539 7.65112 57.3793 7.21874 57.1743 7.01196C56.9692 6.72998 56.615 6.65478 56.1863 6.65478C55.5525 6.65478 55.1424 6.80517 54.8628 7.14355C54.5831 7.50073 54.434 8.06469 54.434 8.91064V12.1628H53.0359V5.58325H54.1544L54.3595 6.4292C54.5832 6.10962 54.9 5.86523 55.2729 5.71484C55.6457 5.52685 56.0558 5.43286 56.4659 5.43286C58.0877 5.43286 58.8519 6.2788 58.8519 7.83911V12.0876V12.1628ZM62.0769 8.62866L62.8411 7.78271L64.873 5.65844H66.4948L63.8291 8.47826L66.6253 12.2192H65.0035L62.8971 9.39941L62.1328 9.96337V12.2192H60.7347V3.04541H62.1328V7.50073L61.9836 8.77905H62.0582V8.62866H62.0769ZM69.03 12.1628H67.6319V5.58325H69.03V12.1628ZM67.5573 3.81616C67.5573 3.60937 67.5573 3.38379 67.7624 3.2522C67.9115 3.10181 68.1166 3.04541 68.3216 3.04541C68.6012 3.04541 68.7504 3.12061 68.8808 3.2522C69.03 3.40259 69.0859 3.60937 69.0859 3.81616C69.0859 4.09814 69.0859 4.24853 68.8808 4.38013C68.7317 4.53052 68.6012 4.58691 68.3216 4.58691C68.1166 4.58691 67.8929 4.58691 67.7624 4.38013C67.6132 4.22973 67.5387 4.02295 67.5573 3.81616ZM76.7287 12.1628H75.3306V8.13989C75.3306 7.65112 75.2561 7.21874 75.051 7.01196C74.846 6.72998 74.4918 6.65478 74.063 6.65478C73.4293 6.65478 73.0191 6.80517 72.7395 7.14355C72.4599 7.50073 72.3108 8.06469 72.3108 8.91064V12.1628H70.9127V5.58325H72.0312L72.2362 6.4292C72.4599 6.10962 72.7768 5.86523 73.1496 5.71484C73.5038 5.56445 73.858 5.43286 74.3427 5.43286C75.9644 5.43286 76.7287 6.2788 76.7287 7.83911V12.0876V12.1628ZM84.1665 5.58325V6.2976L83.048 6.57959C83.2717 6.91796 83.4022 7.31274 83.4022 7.70751C83.4022 8.42187 83.1972 8.91064 82.6939 9.34301C82.2092 9.70019 81.5754 9.90697 80.7365 9.90697H80.1773C79.8977 10.0574 79.7486 10.2642 79.7486 10.4709C79.7486 10.6777 79.7486 10.7529 79.9536 10.8281L80.662 10.9785H81.855C82.5634 10.9785 83.1785 11.1289 83.5327 11.4109C83.8869 11.7681 84.0919 12.1816 84.0919 12.8208C84.0919 13.5351 83.8123 14.0991 83.1785 14.5127C82.3583 14.9451 81.4449 15.1518 80.5129 15.0766C79.5994 15.0766 78.8911 14.9263 78.4064 14.5879C77.7167 14.1743 77.4744 13.2532 77.9031 12.5576C77.959 12.4448 78.0522 12.3508 78.1268 12.2568C78.4251 11.9748 78.7792 11.7681 79.1707 11.6929C78.9656 11.5989 78.7979 11.4673 78.686 11.2605C78.5928 11.1101 78.5555 10.9409 78.5369 10.7717C78.5369 10.4897 78.5369 10.283 78.742 10.0574L79.3757 9.62499C79.0216 9.4746 78.742 9.23022 78.5369 8.91064C78.2946 8.55346 78.1827 8.13989 78.1827 7.70751C78.1641 7.08715 78.4251 6.48559 78.8911 6.07202C79.3198 5.63965 80.0095 5.43286 80.7925 5.43286C81.1466 5.43286 81.5008 5.48925 81.8364 5.58325C81.855 5.58325 84.1665 5.58325 84.1665 5.58325ZM78.9843 13.1592C78.9843 13.5163 79.1334 13.7231 79.413 13.8735C79.6926 14.0239 80.1214 14.1555 80.5315 14.1555C81.128 14.1931 81.7432 14.0615 82.2838 13.7983C82.6379 13.5915 82.843 13.3096 82.843 12.9524C82.843 12.6892 82.7125 12.4448 82.4888 12.3132C82.2838 12.1628 81.9296 12.1628 81.3703 12.1628H80.3264C79.8977 12.1628 79.6181 12.1628 79.3385 12.4448C79.1148 12.5952 78.9843 12.8772 78.9843 13.1592ZM79.6181 7.70751C79.6181 8.13989 79.6926 8.42187 79.8977 8.70385C80.1028 8.91064 80.4569 8.98583 80.8111 8.98583C81.65 8.98583 82.0787 8.55346 82.0787 7.70751C82.0787 7.27514 81.9296 6.99316 81.7245 6.71118C81.5754 6.50439 81.2399 6.354 80.8111 6.354C80.4569 6.354 80.1028 6.50439 79.8977 6.71118C79.6926 6.91796 79.6181 7.27514 79.6181 7.70751Z" fill="#A3A3A3"/>
</svg>
