<svg width="69" height="16" viewBox="0 0 69 16" fill="none" xmlns="http://www.w3.org/2000/svg">
<path d="M21.5472 2.99204C21.2961 2.04462 20.5562 1.29838 19.6167 1.04517C17.9137 0.584981 11.0852 0.58498 11.0852 0.58498C11.0852 0.58498 4.25679 0.584981 2.55383 1.04517C1.61438 1.29838 0.874395 2.04462 0.62331 2.99204C0.166992 4.70941 0.166992 8.29243 0.166992 8.29243C0.166992 8.29243 0.166992 11.8756 0.62331 13.5929C0.874395 14.5402 1.61438 15.2865 2.55383 15.5397C4.25679 16 11.0852 16 11.0852 16C11.0852 16 17.9137 16 19.6167 15.5397C20.5562 15.2865 21.2961 14.5402 21.5472 13.5929C22.0036 11.8756 22.0036 8.29243 22.0036 8.29243C22.0036 8.29243 22.0036 4.70941 21.5472 2.99204Z" fill="#A3A3A3"/>
<path d="M8.90137 11.5956L14.5745 8.29247L8.90137 4.9892V11.5956Z" fill="white"/>
<path d="M34.2829 13.0967C34.4024 12.7819 34.4624 12.2675 34.4624 11.5536V8.54558C34.4624 7.85272 34.4024 7.34629 34.2829 7.02598C34.1631 6.70584 33.9523 6.54562 33.6505 6.54562C33.359 6.54562 33.1531 6.70584 33.0336 7.02598C32.9139 7.34629 32.8541 7.85272 32.8541 8.54558V11.5536C32.8541 12.2675 32.9112 12.7819 33.0259 13.0967C33.1402 13.4118 33.3484 13.5691 33.6505 13.5691C33.9523 13.5691 34.1631 13.4118 34.2829 13.0967ZM31.8626 14.6086C31.4303 14.3149 31.1231 13.8581 30.9412 13.2384C30.7589 12.6192 30.668 11.795 30.668 10.7661V9.36453C30.668 8.32522 30.7719 7.49048 30.9802 6.86062C31.1883 6.23072 31.5135 5.77153 31.9562 5.48271C32.3986 5.1941 32.979 5.04965 33.6974 5.04965C34.4053 5.04965 34.9725 5.19673 35.3994 5.49056C35.8262 5.78449 36.1386 6.24397 36.3365 6.86849C36.534 7.49323 36.6331 8.32522 36.6331 9.36453V10.7661C36.6331 11.795 36.5367 12.6219 36.3442 13.2464C36.1515 13.8711 35.8391 14.3279 35.4072 14.6164C34.9751 14.9051 34.3896 15.0496 33.6505 15.0496C32.8904 15.0496 32.2943 14.9024 31.8626 14.6086Z" fill="#A3A3A3"/>
<path d="M65.3033 6.72612C65.1942 6.86263 65.1211 7.08574 65.0848 7.39532C65.0481 7.70509 65.0303 8.17483 65.0303 8.80474V9.49767H66.6072V8.80474C66.6072 8.18545 66.5864 7.71564 66.5449 7.39532C66.5032 7.07519 66.4278 6.8496 66.3186 6.71825C66.2091 6.58698 66.0399 6.52134 65.8109 6.52134C65.5818 6.52134 65.4126 6.58973 65.3033 6.72612ZM65.0303 10.7891V11.2773C65.0303 11.8969 65.0481 12.3614 65.0848 12.6709C65.1211 12.9807 65.1964 13.2065 65.3113 13.3483C65.4257 13.4898 65.6024 13.5608 65.8422 13.5608C66.1647 13.5608 66.3861 13.4348 66.5058 13.1827C66.6254 12.9308 66.6904 12.5109 66.7009 11.9228L68.5593 12.0332C68.5697 12.1174 68.5749 12.2328 68.5749 12.3795C68.5749 13.2721 68.333 13.9388 67.8487 14.3797C67.3649 14.8205 66.68 15.0411 65.7953 15.0411C64.7335 15.0411 63.989 14.7052 63.5623 14.0331C63.1352 13.3615 62.9219 12.3221 62.9219 10.9151V9.22996C62.9219 7.78115 63.1431 6.72363 63.5857 6.05669C64.028 5.3901 64.7855 5.05675 65.8579 5.05675C66.5968 5.05675 67.1643 5.19326 67.5599 5.46616C67.9553 5.73933 68.2339 6.16453 68.3953 6.74176C68.5568 7.31926 68.6375 8.11728 68.6375 9.1355V10.7891H65.0303Z" fill="#A3A3A3"/>
<path d="M26.6153 10.6082L24.1636 1.67895H26.3029L27.1618 5.72625C27.3805 6.72386 27.5417 7.57421 27.6458 8.2774H27.7084C27.7812 7.77353 27.9426 6.92849 28.1924 5.74204L29.0825 1.67895H31.2219L28.739 10.6082V14.8919H26.6153V10.6082Z" fill="#A3A3A3"/>
<path d="M43.5913 5.23843V14.892H41.9048L41.7173 13.7109H41.6705C41.2124 14.6032 40.5252 15.0493 39.6092 15.0493C38.9742 15.0493 38.5057 14.8396 38.2038 14.4194C37.9018 13.9998 37.751 13.3434 37.751 12.451V5.23843H39.906V12.325C39.906 12.7557 39.9529 13.0626 40.0465 13.2462C40.1402 13.4301 40.2964 13.5218 40.5149 13.5218C40.7024 13.5218 40.882 13.4642 41.0536 13.3485C41.2255 13.2331 41.3529 13.0864 41.4363 12.9078V5.23843H43.5913Z" fill="#A3A3A3"/>
<path d="M54.645 5.23843V14.892H52.9585L52.771 13.7109H52.7244C52.2659 14.6032 51.5789 15.0493 50.6629 15.0493C50.0279 15.0493 49.5594 14.8396 49.2575 14.4194C48.9555 13.9998 48.8047 13.3434 48.8047 12.451V5.23843H50.9597V12.325C50.9597 12.7557 51.0064 13.0626 51.1001 13.2462C51.1939 13.4301 51.3501 13.5218 51.5687 13.5218C51.7561 13.5218 51.9357 13.4642 52.1074 13.3485C52.2792 13.2331 52.4066 13.0864 52.49 12.9078V5.23843H54.645Z" fill="#A3A3A3"/>
<path d="M49.4473 3.42733H47.308V14.8919H45.1999V3.42733H43.0605V1.67924H49.4473V3.42733Z" fill="#A3A3A3"/>
<path d="M59.802 10.7192C59.802 11.4227 59.7731 11.9739 59.7159 12.3727C59.6588 12.7719 59.5624 13.0553 59.4271 13.2231C59.2917 13.3912 59.1093 13.4751 58.8806 13.4751C58.7034 13.4751 58.5395 13.4333 58.3887 13.349C58.2375 13.2651 58.1154 13.1392 58.0216 12.971V7.4908C58.0944 7.22853 58.2193 7.0132 58.3964 6.84518C58.5734 6.67743 58.7658 6.59324 58.9741 6.59324C59.1929 6.59324 59.3618 6.67992 59.4817 6.85303C59.6012 7.02623 59.6846 7.3176 59.7316 7.72716C59.7785 8.1365 59.802 8.71918 59.802 9.47505V10.7192ZM61.7773 6.78152C61.6469 6.17278 61.4361 5.73187 61.1447 5.4587C60.8532 5.18594 60.4523 5.04936 59.9424 5.04936C59.5468 5.04936 59.1772 5.16229 58.8337 5.38788C58.4902 5.61368 58.2246 5.91031 58.0373 6.27772H58.0214L58.0216 1.19103H55.9448V14.8917H57.7249L57.9436 13.9785H57.9903C58.1568 14.3039 58.4066 14.5611 58.7399 14.7501C59.073 14.939 59.4427 15.0335 59.8488 15.0335C60.5773 15.0335 61.1135 14.6949 61.4571 14.0178C61.8006 13.3405 61.9725 12.283 61.9725 10.8446V9.31701C61.9725 8.23578 61.9072 7.39062 61.7773 6.78152Z" fill="#A3A3A3"/>
</svg>
