<svg width="100" height="87" viewBox="0 0 100 87" fill="none" xmlns="http://www.w3.org/2000/svg">
<path d="M0.5 85.5V86H1H4.37401C13.6114 86 21.5583 84.4983 28.1992 81.4751L28.1993 81.4752L28.2098 81.4701C34.8901 78.2388 40.0264 72.7314 43.6284 64.991C47.2338 57.2432 49.0172 46.5199 49.0172 32.86V27.54C49.0172 18.9242 47.7976 12.208 45.3108 7.43906C43.0329 2.52842 40.0668 -0.92638 36.3869 -2.85819C32.7517 -4.9521 28.8258 -6 24.618 -6C18.1343 -6 12.9334 -4.00149 9.07366 0.0344119L9.07354 0.0342984L9.06494 0.0437679C5.40906 4.0677 3.59284 9.13942 3.59284 15.22C3.59284 21.6702 5.50167 26.7611 9.37256 30.4232L9.38184 30.432L9.39157 30.4403C13.4265 33.8845 18.3245 35.6 24.0557 35.6C25.6128 35.6 27.1332 35.5246 28.6167 35.3735V39.02C28.6167 45.7035 27.777 51.1422 26.1208 55.3571L26.1207 55.3571L26.1165 55.3685C24.6524 59.3781 22.2882 62.262 19.0338 64.0625C15.7621 65.8725 11.2643 66.8 5.49867 66.8H1H0.5V67.3V85.5ZM58.9828 85.5V86H59.4828H62.8568C72.0941 86 80.0411 84.4983 86.682 81.4751L86.682 81.4752L86.6925 81.4701C93.3729 78.2388 98.5092 72.7314 102.111 64.991C105.717 57.2432 107.5 46.5199 107.5 32.86V27.54C107.5 18.9242 106.28 12.2079 103.793 7.43902C101.516 2.52842 98.5496 -0.926361 94.8697 -2.85817C91.2345 -4.9521 87.3086 -6 83.1008 -6C76.6171 -6 71.4162 -4.00149 67.5564 0.0344124L67.5563 0.0342989L67.5477 0.0437675C63.8918 4.0677 62.0756 9.13942 62.0756 15.22C62.0756 21.6702 63.9844 26.7611 67.8553 30.4232L67.8646 30.432L67.8743 30.4403C71.9093 33.8845 76.8072 35.6 82.5385 35.6C84.0956 35.6 85.6159 35.5246 87.0995 35.3735V39.02C87.0995 45.7035 86.2598 51.1422 84.6036 55.3571L84.6035 55.3571L84.5993 55.3685C83.1352 59.3781 80.771 62.262 77.5166 64.0625C74.2449 65.8725 69.7471 66.8 63.9814 66.8H59.4828H58.9828V67.3V85.5Z" stroke="#D3D3D3"/>
</svg>
